<?xml version="1.0" encoding="UTF-8"?><svg xmlns="http://www.w3.org/2000/svg" viewBox="0 0 340 220"><defs><style>.e{fill:#003f5e;}.f{fill:#007d85;}.g{fill:#ecfbfc;}.h{fill:#fcc44e;}.i{fill:#e0eff0;}.j{fill:#80bec2;}.k{fill:#4da4aa;}</style></defs><g id="a"><path class="i" d="M313.16,118.25c.55,16.42-3.84,32.89-13.87,45.6-2.19,2.69-4.7,5.29-7.42,7.79-13.68,14.88-34.26,17.04-53.44,14.49-3.84-.34-7.65-.52-11.44-.57-18.94-.25-37.3,2.94-55.67,8-3.67,1.01-7.35,2.1-11.03,3.25-23.62,8.72-51.93,18.23-77.58,14.76-3.66-.5-7.27-1.26-10.81-2.32-36.33-10.82-55.83-56.31-39.01-90.79,1.06-3.41,2.11-6.83,3.05-10.24,1.89-6.83,3.38-13.65,3.77-20.39,.25-3.07,.48-6.14,.74-9.2,1.84-21.38,5.12-41.89,24.81-55.16,7.17-4.83,14.25-8.17,21.24-10.29,3.5-1.06,6.98-1.82,10.44-2.31,37.18-7.4,68.59,15.34,101.36,28.63,3.38,1.19,6.77,2.27,10.16,3.22,3.69,1.03,7.4,1.97,11.13,2.82,12.86,2.92,25.36,3.98,38.43,5.23,33.94,3.24,54.03,35.28,55.11,67.48Z"/></g><g id="b"><circle class="h" cx="164.48" cy="112.5" r="65"/><path class="j" d="M205.51,108.3l-7.84-2.66,.03-.06,10.01,3.33,6.07-4.82-15.91-32.24-5.13,3.42c-2.19,1.46-4.71,2.35-7.34,2.59l-16.24,1.49c-3.2,.29-6.27,1.37-8.96,3.13l-.05,.03-.06-.03-17.02,5.49c-6.61,2.13-12,6.99-14.79,13.35l-1.82,4.13c-1,2.26-2.63,4.19-4.7,5.54l-5.37,3.19,17.54,35.55,3.2-1.57c1.05-.53,2.19-.86,3.37-.96l1.57-.14,.27-.07c.43,2.17,2.35,3.82,4.64,3.82h.53c2.6,0,4.73-2.13,4.73-4.73v-1.86l1.08-.3c.4,2.21,2.33,3.9,4.65,3.9h.53c2.6,0,4.73-2.13,4.73-4.73v-1.94l1.77-.49c.85,1.3,2.31,2.17,3.97,2.17h.53c2.6,0,4.73-2.13,4.73-4.73v-.02l1.56-.44c.82,1.63,2.53,2.73,4.46,2.66l.54-.02c2.65-.09,4.74-2.33,4.65-4.98l-.06-1.71,3.05,1.11c2.51,.85,5.26-.5,6.12-3.01l.17-.51c.85-2.51-.5-5.26-3.01-6.12l-4-1.46h0l9.07,3.3c2.51,.85,5.26-.5,6.12-3.01l.17-.51c.85-2.51-.5-5.26-3.01-6.12l-7.44-2.53h0l9.57,3.24c2.51,.85,5.26-.5,6.12-3.01l.17-.51c.85-2.51-.5-5.26-3.01-6.12Z"/><path class="f" d="M48.09,145.56l68.6-32.19,18.42,37.43-61.65,35.44c-20.21-7.69-25.23-22.97-25.37-40.67Z"/><rect class="g" x="203.92" y="58.79" width="19.58" height="47.54" transform="translate(441.89 62.03) rotate(153.74)"/><path class="k" d="M259.81,33.26l-46.1,26.97,18.85,37.94,51.64-23.75c2.26-19.3-12.01-38.51-24.39-41.16Z"/><path class="e" d="M227.43,102.74c-.14-1.03-.31-2.07-.51-3.09l-2.79,1.37c.17,1.03,.33,2.07,.46,3.12,.71,5.88,.6,11.9-.37,17.91-1.36,8.37-4.3,16.23-8.62,23.23-4.33,7.01-10.04,13.16-16.91,18.12-13.76,9.93-30.55,13.9-47.29,11.19-12.36-2-23.6-7.46-32.62-15.71-.77-.71-1.52-1.43-2.25-2.17l-2.69,1.55c.72,.75,1.46,1.48,2.21,2.19,9.57,9,21.6,14.96,34.87,17.1,3.59,.58,7.19,.87,10.76,.87,13.85,0,27.31-4.32,38.76-12.59,14.41-10.39,23.9-25.77,26.74-43.3,1.07-6.65,1.14-13.3,.25-19.79Zm-9.04-25.32l5.21,10.56c-1.41-3.64-3.15-7.17-5.21-10.56Zm-94.01-17c11.21-8.09,24.2-11.98,37.07-11.98s26.4,4.13,37.35,12.07c.91,.64,1.79,1.32,2.66,2.03l2.96-1.46c-.85-.71-1.71-1.4-2.59-2.07-22.69-17.26-54.92-18.55-79.2-1.02-14.41,10.39-23.9,25.77-26.74,43.3-.95,5.9-1.11,11.8-.51,17.58,.1,1.05,.24,2.09,.4,3.13l2.87-1.37c-.14-1.05-.26-2.1-.35-3.15-1.86-21.54,7.31-43.51,26.08-57.06Z"/></g><g id="c"><path class="e" d="M196.64,70.81c.01,.05,.01,.11,.01,.16,0,.09-.01,.19-.03,.29,0,.02,0,.05-.01,.08-.02,.05-.03,.11-.06,.16-.01,.05-.03,.11-.07,.16-.05,.11-.12,.21-.21,.31-.08,.09-.17,.17-.28,.24l-1.51,1,14.62,29.64,1.03-.82c.07-.05,.14-.1,.22-.14,.07-.04,.15-.08,.23-.1,.16-.06,.33-.09,.5-.08,.08,0,.16,.01,.24,.03,.01-.01,.03-.01,.06,.01,0,0,.01-.01,.02,0h.01s.08,.02,.13,.05c0-.01,.01,0,.01,0t.02,0h0s.01,0,.02,.01c.03,0,.06,.01,.1,.03,.01,0,.02,0,.03,.02h0s.01,0,.02,0,.01,.01,.02,.02c.02,0,.04,.01,.05,.03,.06,.03,.12,.06,.17,.11,.04,.03,.08,.06,.11,.1l-15.46-31.32Zm0,0c.01,.05,.01,.11,.01,.16,0,.09-.01,.19-.03,.29,0,.02,0,.05-.01,.08-.02,.05-.03,.11-.06,.16-.01,.05-.03,.11-.07,.16-.05,.11-.12,.21-.21,.31-.08,.09-.17,.17-.28,.24l-1.51,1,14.62,29.64,1.03-.82c.07-.05,.14-.1,.22-.14,.07-.04,.15-.08,.23-.1,.16-.06,.33-.09,.5-.08,.08,0,.16,.01,.24,.03,.01-.01,.03-.01,.06,.01,0,0,.01-.01,.02,0h.01s.08,.02,.13,.05c0-.01,.01,0,.01,0t.02,0h0s.01,0,.02,.01c.03,0,.06,.01,.1,.03,.01,0,.02,0,.03,.02h0s.01,0,.02,0,.01,.01,.02,.02c.02,0,.04,.01,.05,.03,.06,.03,.12,.06,.17,.11,.04,.03,.08,.06,.11,.1l-15.46-31.32Zm0,0c.01,.05,.01,.11,.01,.16,0,.1-.01,.19-.03,.29,0,.02,0,.05-.01,.08-.02,.05-.03,.11-.06,.16-.01,.05-.03,.11-.07,.16-.05,.11-.12,.21-.21,.31-.08,.09-.17,.17-.28,.24l-1.51,1,14.62,29.64,1.03-.82c.07-.05,.14-.1,.22-.14,.07-.04,.15-.08,.23-.1,.16-.06,.33-.09,.5-.08,.08,0,.16,.01,.24,.03,.01-.01,.03-.01,.06,.01,0,0,.01-.01,.02,0h.01s.08,.02,.13,.05c0-.01,.01,0,.01,0t.02,0h0s.01,0,.02,.01c.03,0,.06,.01,.1,.03,.01,0,.02,0,.03,.02h0s.01,0,.02,0,.01,.01,.02,.02c.02,0,.04,.01,.05,.03,.06,.03,.12,.06,.17,.11,.04,.03,.08,.06,.11,.1l-15.46-31.32Zm35.59,27.89l-.35-.72-1.33-2.68-17.23-34.92-1.33-2.69-.8-1.63c-.36-.74-1.26-1.05-2-.68l-7.36,3.63-3.03,1.5-7.17,3.53c-.36,.18-.63,.49-.76,.87-.13,.37-.1,.79,.08,1.14l2.19,4.45,1.34,2.71,14.62,29.64,1.36,2.75,1.52,3.09c.18,.35,.49,.63,.87,.75,.15,.06,.32,.08,.48,.08,.23,0,.45-.05,.66-.15l10.6-5.23,2.84-1.4,4.12-2.04c.74-.36,1.05-1.26,.68-2Zm-5.31,.95l-2.79,1.37-10.12,4.99-1.46-2.96-.44-.9s-.01-.02-.01-.02l-15.46-31.32h-.01l-.46-.95-1.87-3.79,7.16-3.53,2.96-1.46,4.75-2.34,9.2,18.65s.01,.02,.02,.03l5.21,10.56,4.78,9.7s0,.02,.02,.03l.24,.49s.01,.01,.01,.02l.23,.46-1.96,.97Zm-30.28-28.84c.01,.05,.01,.11,.01,.16,0,.09-.01,.19-.03,.29,0,.02,0,.05-.01,.08-.02,.05-.03,.11-.06,.16-.01,.05-.03,.11-.07,.16-.05,.11-.12,.21-.21,.31-.08,.09-.17,.17-.28,.24l-1.51,1,14.62,29.64,1.03-.82c.07-.05,.14-.1,.22-.14,.07-.04,.15-.08,.23-.1,.16-.06,.33-.09,.5-.08,.08,0,.16,.01,.24,.03,.01-.01,.03-.01,.06,.01,0,0,.01-.01,.02,0h.01s.08,.02,.13,.05c0-.01,.01,0,.01,0t.02,0h0s.01,0,.02,.01c.03,0,.06,.01,.1,.03,.01,0,.02,0,.03,.02h0s.01,0,.02,0,.01,.01,.02,.02c.02,0,.04,.01,.05,.03,.06,.03,.12,.06,.17,.11,.04,.03,.08,.06,.11,.1l-15.46-31.32Zm0,0c.01,.05,.01,.11,.01,.16,0,.09-.01,.19-.03,.29,0,.02,0,.05-.01,.08-.02,.05-.03,.11-.06,.16-.01,.05-.03,.11-.07,.16-.05,.11-.12,.21-.21,.31-.08,.09-.17,.17-.28,.24l-1.51,1,14.62,29.64,1.03-.82c.07-.05,.14-.1,.22-.14,.07-.04,.15-.08,.23-.1,.16-.06,.33-.09,.5-.08,.08,0,.16,.01,.24,.03,.01-.01,.03-.01,.06,.01,0,0,.01-.01,.02,0h.01s.08,.02,.13,.05c0-.01,.01,0,.01,0t.02,0h0s.01,0,.02,.01c.03,0,.06,.01,.1,.03,.01,0,.02,0,.03,.02h0s.01,0,.02,0,.01,.01,.02,.02c.02,0,.04,.01,.05,.03,.06,.03,.12,.06,.17,.11,.04,.03,.08,.06,.11,.1l-15.46-31.32Zm0,0h-.01c.01,.05,.02,.1,.02,.16,0,.09-.01,.19-.03,.29,0,.02,0,.05-.01,.08-.02,.05-.03,.11-.06,.16-.01,.05-.03,.11-.07,.16-.05,.11-.12,.21-.21,.31-.08,.09-.17,.17-.28,.24l-1.51,1,14.62,29.64,1.03-.82c.07-.05,.14-.1,.22-.14,.07-.04,.15-.08,.23-.1,.16-.06,.33-.09,.5-.08,.08,0,.16,.01,.24,.03,.01-.01,.03-.01,.06,.01,0,0,.01-.01,.02,0h.01s.08,.02,.13,.05c0-.01,.01,0,.01,0t.02,0h0s.01,0,.02,.01c.03,0,.06,.01,.1,.03,.01,0,.02,0,.03,.02h0s.03,.02,.04,.03c.02,0,.04,.01,.05,.03,.06,.03,.12,.06,.17,.11,.04,.03,.08,.06,.11,.1l-15.46-31.32Z"/><path class="e" d="M149.22,131.42c-1.18-1.24-2.84-2.01-4.68-2.01-3.59,0-6.5,2.92-6.5,6.5v9.27c0,.91,.2,1.78,.55,2.55,.97,2.17,3.15,3.68,5.68,3.68h.53c2.95,0,5.44-2.07,6.07-4.82,.11-.45,.17-.92,.17-1.41v-9.27c0-1.74-.69-3.32-1.82-4.49Zm-1.18,13.76c0,1.78-1.46,3.23-3.24,3.23h-.53c-1.78,0-3.23-1.45-3.23-3.23v-9.27c0-1.93,1.57-3.5,3.5-3.5s3.5,1.57,3.5,3.5v9.27Z"/><path class="e" d="M201.06,118.81c-.68,0-1.37-.11-2.03-.34l-11.98-4.07c-.78-.27-1.2-1.12-.94-1.9,.27-.78,1.12-1.21,1.9-.94l11.98,4.07c.83,.28,1.73,.22,2.53-.17,.8-.39,1.4-1.07,1.68-1.91l.17-.51c.28-.83,.22-1.73-.17-2.53-.39-.8-1.07-1.4-1.91-1.68l-11.98-4.07c-.78-.27-1.2-1.12-.94-1.9s1.12-1.21,1.9-.94l11.98,4.07c3.3,1.12,5.07,4.72,3.95,8.02l-.17,.51c-.54,1.59-1.67,2.88-3.19,3.63-.89,.44-1.84,.66-2.8,.66Z"/><path class="e" d="M195.65,127.73c-.67,0-1.36-.11-2.03-.34l-16.11-5.86c-.78-.28-1.18-1.14-.9-1.92,.28-.78,1.15-1.18,1.92-.9l16.08,5.85c1.7,.57,3.59-.35,4.18-2.09l.17-.51c.28-.84,.22-1.74-.17-2.54-.39-.8-1.07-1.39-1.91-1.68l-11.98-4.07c-.78-.27-1.2-1.12-.94-1.9,.27-.79,1.12-1.21,1.9-.94l11.98,4.07c1.59,.54,2.88,1.67,3.63,3.19,.75,1.52,.86,3.23,.32,4.83l-.17,.51c-.89,2.63-3.36,4.29-5.99,4.29Z"/><g><path class="e" d="M173.92,130.31l.03,.77-.92-.33-2.1-.76-1.16-.42h0c-.32-.76-.88-1.37-1.59-1.75,0-.14,.03-.28,.08-.41,.28-.77,1.14-1.17,1.92-.89l1.53,.56,.09,.03,2.78,1.01c-.46,.63-.68,1.39-.66,2.19Z"/><path class="e" d="M193.46,130.74l-.18,.51c-.54,1.59-1.67,2.88-3.19,3.63-.89,.44-1.84,.66-2.8,.66-.68,0-1.36-.11-2.03-.34l-1.02-.37-3.01-1.1-.11-3.23,3.04,1.1h0l2.1,.77c.81,.27,1.7,.21,2.5-.18s1.4-1.07,1.68-1.91l.18-.51c.28-.83,.22-1.73-.17-2.53-.4-.8-1.07-1.4-1.91-1.68l-7.5-2.73-3.57-1.31-.69-.25c-.77-.29-1.17-1.15-.89-1.93,.28-.77,1.14-1.17,1.92-.89l7.53,2.75,4.2,1.53c1.56,.53,2.85,1.66,3.6,3.18,.23,.48,.4,.99,.51,1.5,.24,1.1,.18,2.24-.19,3.33Z"/></g><path class="e" d="M160.45,128.67c-1.19-1.38-2.95-2.26-4.91-2.26-3.08,0-5.65,2.14-6.32,5.01-.12,.48-.18,.98-.18,1.49v9.27c0,1.72,.7,3.28,1.83,4.41,1.13,1.12,2.68,1.82,4.4,1.82h.53c3.44,0,6.24-2.8,6.24-6.23v-9.27c0-1.62-.6-3.1-1.59-4.24Zm-1.41,13.51c0,1.78-1.46,3.23-3.24,3.23h-.53c-1.78,0-3.23-1.45-3.23-3.23v-9.27c0-1.93,1.57-3.5,3.5-3.5s3.5,1.57,3.5,3.5v9.27Z"/><path class="e" d="M173.03,130.75c-.03-1.36-.48-2.61-1.23-3.64l-.06-.09c-1.19-1.58-3.08-2.61-5.2-2.61-2.8,0-5.18,1.77-6.09,4.26-.27,.7-.41,1.45-.41,2.24v6.27c0,1.8,.77,3.43,2,4.56,1.11,1.04,2.6,1.67,4.23,1.67h.53c2.85,0,5.25-1.92,6-4.52,.16-.54,.24-1.12,.24-1.71v-6.27s0-.11,0-.16Zm-2.99,6.43c0,1.78-1.46,3.23-3.24,3.23h-.53c-1.78,0-3.23-1.45-3.23-3.23v-6.27c0-1.93,1.57-3.5,3.5-3.5,.59,0,1.15,.15,1.64,.41,.71,.38,1.27,.99,1.59,1.74h0c.17,.42,.27,.87,.27,1.35v6.27Z"/><path class="e" d="M184.16,131.61h0l-.06-1.65c-.06-1.76-.8-3.39-2.09-4.59-1.29-1.2-2.98-1.84-4.72-1.77-1.76,.06-3.39,.8-4.59,2.09-.38,.41-.71,.85-.96,1.33-.02,.02-.03,.04-.03,.06-.49,.89-.76,1.88-.78,2.91-.02,.14-.01,.28-.01,.42l.15,4.37c.06,1.54,.66,3,1.73,4.11,.08,.1,.18,.2,.28,.29,1.18,1.1,2.71,1.71,4.31,1.71,.07,0,.14,0,.22,0l.54-.02c3.32-.12,5.95-2.78,6.09-6.03,.01-.16,.02-.33,.01-.5l-.09-2.72Zm-2.91,2.82c.06,1.83-1.37,3.37-3.2,3.44h-.55c-.88,.05-1.72-.27-2.37-.88s-1.03-1.43-1.06-2.31l-.12-3.59h0l-.03-.78c-.02-.8,.2-1.56,.66-2.19,.09-.13,.2-.26,.31-.38,.66-.71,1.55-1.11,2.5-1.15h.12c.91,0,1.78,.34,2.45,.97,.7,.66,1.11,1.55,1.14,2.5l.02,.44,.11,3.23,.02,.7Z"/><path class="e" d="M149.81,118.54c-4.84,0-8.77-3.94-8.77-8.77v-11.62c0-4.73,2.36-9.11,6.32-11.7l9.31-6.1c2.88-1.89,6.21-3.05,9.64-3.37l16.24-1.49c2.37-.22,4.66-1.03,6.64-2.35l5.13-3.42c.69-.46,1.62-.27,2.08,.42,.46,.69,.27,1.62-.42,2.08l-5.13,3.42c-2.39,1.59-5.17,2.58-8.03,2.84l-16.24,1.49c-2.94,.27-5.8,1.27-8.27,2.89l-9.31,6.1c-3.11,2.04-4.96,5.47-4.96,9.19v11.62c0,3.18,2.59,5.77,5.77,5.77,3.02,0,5.55-2.36,5.76-5.37l.67-9.54c.05-.73,.62-1.31,1.35-1.39l19.47-1.96c.21-.02,.42,0,.62,.07l27.02,9,5.43-4.31c.65-.51,1.59-.41,2.11,.24,.51,.65,.41,1.59-.24,2.11l-6.07,4.82c-.4,.32-.93,.41-1.41,.25l-27.48-9.16-17.89,1.8-.58,8.28c-.32,4.58-4.17,8.16-8.75,8.16Z"/><path class="e" d="M115.47,114.22l-1.64-2.51,4.4-2.88c1.83-1.2,3.26-2.89,4.14-4.89l1.82-4.13c2.97-6.75,8.69-11.91,15.71-14.17l17.02-5.49,.92,2.86-17.02,5.49c-6.2,2-11.26,6.56-13.88,12.52l-1.82,4.13c-1.12,2.54-2.93,4.68-5.25,6.19l-4.4,2.88Z"/><path class="e" d="M132.08,150.13l-1.36-2.67,3.02-1.54c1.23-.62,2.55-1,3.92-1.12l1.57-.14,.26,2.99-1.57,.14c-.99,.09-1.94,.36-2.82,.81l-3.02,1.54Z"/><path class="e" d="M132.88,149.73c.08,.58-.2,1.17-.74,1.48l-13.36,7.67-2.73,1.57-10.87,6.23-2.68,1.55-34.07,19.55c-.24,.14-.49,.2-.75,.2-.52,0-1.02-.27-1.3-.75-.41-.72-.16-1.63,.55-2.05l33.5-19.22,2.66-1.53,10.75-6.17,2.69-1.55,12.92-7.41-16.68-35.39-14.12,6.72-2.87,1.37-51.84,24.68c-.75,.36-1.65,.04-2-.71-.36-.75-.04-1.64,.71-2l52.73-25.1,2.92-1.39,14.54-6.92c.36-.17,.77-.19,1.15-.06,.32,.11,.59,.33,.76,.62,.04,.05,.07,.1,.09,.15l1.21,2.58,15.62,33.13,1.08,2.29c.07,.15,.12,.31,.13,.46Z"/><path class="e" d="M229.83,98.78c-.57,0-1.11-.32-1.36-.87-.35-.75-.02-1.64,.74-1.99l51.64-23.75c.75-.35,1.64-.02,1.99,.74,.35,.75,.02,1.64-.74,1.99l-51.64,23.75c-.2,.09-.42,.14-.63,.14Z"/><path class="e" d="M257.85,33.66l-37.56,22.54-2.64,1.58-4.33,2.6-.96,.58c-.24,.15-.51,.21-.77,.21-.51,0-1.01-.26-1.29-.72-.42-.71-.19-1.64,.52-2.06l1.17-.7,3.46-2.08,2.67-1.6,38.19-22.92c.7-.43,1.63-.2,2.05,.51,.43,.71,.2,1.64-.51,2.06Z"/><path class="e" d="M99.28,63.76c-.33,0-.66-.11-.94-.33-.65-.52-.75-1.46-.23-2.11,4.55-5.65,9.87-10.69,15.8-14.97,.67-.48,1.61-.33,2.09,.34,.48,.67,.33,1.61-.34,2.09-5.72,4.13-10.84,8.98-15.22,14.42-.3,.37-.73,.56-1.17,.56Z"/><path class="e" d="M220.29,56.2l-2.64,1.58c-.72-.74-1.45-1.47-2.2-2.17-18-17.09-43.52-24.95-68.41-20.3-.81,.15-1.6-.38-1.75-1.2-.15-.81,.38-1.6,1.2-1.75,26.12-4.87,52.91,3.51,71.63,21.65,.74,.71,1.47,1.44,2.17,2.19Z"/><path class="e" d="M208.15,178.46c-.46,0-.92-.22-1.22-.62-.48-.67-.33-1.61,.34-2.09,22.18-16.01,34.25-41.87,32.28-69.19-.06-.83,.56-1.54,1.39-1.6,.82-.06,1.55,.56,1.6,1.39,2.05,28.37-10.48,55.22-33.51,71.84-.27,.19-.57,.28-.88,.28Z"/><path class="e" d="M137.41,188.35c-.21,.63-.8,1.02-1.42,1.02-.16,0-.32-.02-.48-.07-12.68-4.26-23.92-11.46-33.01-21.07-.7-.74-1.39-1.5-2.07-2.27l2.66-1.53c.68,.77,1.38,1.52,2.09,2.25,8.65,8.99,19.3,15.75,31.28,19.77,.79,.27,1.21,1.12,.95,1.9Z"/></g><g id="d"/></svg>