<?xml version="1.0" encoding="UTF-8"?><svg xmlns="http://www.w3.org/2000/svg" viewBox="0 0 340 220"><defs><style>.e{fill:#003f5e;}.f{fill:#006a72;}.g{fill:#007d85;}.h{fill:#fff;}.i{fill:#fcb92f;}.j{fill:#b3d8da;}.k{fill:#e0eff0;}.l{fill:#80bec2;}</style></defs><g id="a"><path class="k" d="M21.73,134.27c-1.17-5.58-1.75-11.27-1.69-16.94,.31-25.77,12.15-50.75,32.18-67.03,9.72-7.9,22.12-14.71,34.59-16.9,16.58-2.91,33.86,3.55,50.24,5.81,6.45,.89,12.71,1.44,18.88,1.62,3.09,.09,6.16,.09,9.22,0,35.15-5.25,69.01-26.7,104.83-18.55,4.29,1.18,8.21,2.74,11.8,4.62,50.24,30.42,43.59,124.98,.48,158.54-27.93,21.74-56.78,15.28-87.3,4.88-12.88-4.39-24.71-3.84-38.11-2.05-27.58,3.69-55.72,13.07-83.43,4.92-26.73-7.87-46.05-32.11-51.68-58.92Z"/></g><g id="b"><path class="f" d="M116.31,127.98l-8.34-1.42c-.58-2.2-1.46-4.28-2.57-6.2l4.9-6.91c.51-.75,.44-1.74-.24-2.42l-1.5-1.5-1.46-1.46-1.5-1.5c-.7-.7-1.71-.75-2.42-.24l-6.91,4.9c-1.92-1.12-4-1.99-6.2-2.57l-1.42-8.34c-.17-.89-.91-1.54-1.88-1.54h-6.29c-.99,0-1.74,.68-1.88,1.54l-1.42,8.34c-2.2,.58-4.28,1.46-6.2,2.57l-6.91-4.9c-.75-.51-1.74-.44-2.42,.24l-1.5,1.5-1.46,1.46-1.5,1.5c-.7,.7-.75,1.71-.24,2.42l4.9,6.91c-1.12,1.92-1.99,4-2.57,6.2l-8.34,1.42c-.89,.17-1.54,.91-1.54,1.88v6.29c0,.99,.68,1.74,1.54,1.88l8.34,1.42c.58,2.2,1.46,4.28,2.57,6.2l-4.9,6.91c-.51,.75-.44,1.74,.24,2.42l1.5,1.5,1.46,1.46,1.5,1.5c.7,.7,1.71,.75,2.42,.24l6.91-4.9c1.92,1.12,4,1.99,6.2,2.57l1.42,8.34c.17,.89,.91,1.54,1.88,1.54h6.29c.99,0,1.74-.68,1.88-1.54l1.42-8.34c2.2-.58,4.28-1.46,6.2-2.57l6.91,4.9c.75,.51,1.74,.44,2.42-.24l1.5-1.5,1.46-1.46,1.5-1.5c.7-.7,.75-1.71,.24-2.42l-4.9-6.91c1.12-1.92,1.99-4,2.57-6.2l8.34-1.42c.89-.17,1.54-.91,1.54-1.88v-6.29c0-.99-.68-1.74-1.54-1.88Zm-32.7,15.71c-5.9,0-10.68-4.78-10.68-10.68s4.78-10.68,10.68-10.68,10.68,4.78,10.68,10.68-4.78,10.68-10.68,10.68Z"/><path class="f" d="M119.07,188.57l-3.36-2.69c.28-1.12,.41-2.26,.39-3.4l3.89-1.87c.41-.21,.63-.66,.49-1.14l-.3-1.03-.29-1.01-.3-1.03c-.14-.48-.57-.75-1.02-.7l-4.28,.47c-.58-.97-1.29-1.87-2.12-2.68l1.43-4.06c.14-.44-.03-.91-.46-1.15l-.94-.52-.92-.51-.94-.52c-.44-.24-.94-.13-1.22,.22l-2.69,3.36c-1.12-.28-2.26-.41-3.4-.39l-1.87-3.89c-.21-.41-.66-.63-1.14-.49l-1.03,.3-1.01,.29-1.03,.3c-.48,.14-.75,.57-.7,1.02l.47,4.28c-.97,.58-1.87,1.29-2.68,2.12l-4.06-1.43c-.44-.14-.91,.03-1.15,.46l-.52,.94-.51,.92-.52,.94c-.24,.44-.13,.94,.22,1.22l3.36,2.69c-.28,1.12-.41,2.26-.39,3.4l-3.89,1.87c-.41,.21-.63,.66-.49,1.14l.3,1.03,.29,1.01,.3,1.03c.14,.48,.57,.75,1.02,.7l4.28-.47c.58,.97,1.29,1.87,2.12,2.68l-1.43,4.06c-.14,.44,.03,.91,.46,1.15l.94,.52,.92,.51,.94,.52c.44,.24,.94,.13,1.22-.22l2.69-3.36c1.12,.28,2.26,.41,3.4,.39l1.87,3.89c.21,.41,.66,.63,1.14,.49l1.03-.3,1.01-.29,1.03-.3c.48-.14,.75-.57,.7-1.02l-.47-4.28c.97-.58,1.87-1.29,2.68-2.12l4.06,1.43c.44,.14,.91-.03,1.15-.46l.52-.94,.51-.92,.52-.94c.24-.44,.13-.94-.22-1.22Zm-18.43-1.08c-2.62-1.46-3.57-4.76-2.12-7.39,1.46-2.62,4.76-3.57,7.39-2.12,2.62,1.46,3.57,4.76,2.12,7.39s-4.76,3.57-7.39,2.12Z"/><rect class="h" x="115.39" y="26.5" width="122.19" height="168.21" transform="translate(-23.6 52.76) rotate(-15.95)"/><rect class="h" x="115.5" y="27.19" width="122.19" height="168.21" transform="translate(-16.23 31.34) rotate(-9.7)"/><rect class="h" x="115.83" y="27.28" width="121.64" height="167.46"/><polygon class="k" points="216.93 160.34 196.14 166.47 206.46 147.41 215.21 151.03 216.93 160.34"/><path class="i" d="M273.03,114.92l-56.1,45.42c-1.87-4.94-5.47-9.36-10.48-12.94l56.1-45.42,10.48,12.94Z"/><rect class="l" x="266.93" y="97.7" width="7.73" height="16.65" transform="translate(-6.38 194.03) rotate(-39)"/><path class="g" d="M272.94,92.83h4.96c1.53,0,2.77,1.24,2.77,2.77v11.11c0,1.53-1.24,2.77-2.77,2.77h-4.96v-16.65h0Z" transform="translate(-1.98 196.73) rotate(-39)"/><path class="j" d="M129.2,117.01l-3.43-5.12c-1.91-2.85-4.77-4.66-7.87-5.3-5.98-1.24-11.39-4.42-14.91-9.42l-34.29-48.57c-2.44-3.46-7.35-4.12-10.62-1.32-3.01,2.57-3.25,7.17-.76,10.25l36.53,45.15c4.1,5.07,5.85,11.53,5.41,18.03-.22,3.2,.78,6.5,3.09,9.12l4.07,4.63c3.18,3.63,8.03,4.99,12.45,3.9,.25-.06,.35-.37,.2-.57l-7.36-9.78c-1.14-1.51-.84-3.66,.68-4.8l3.95-2.98c1.51-1.14,3.66-.84,4.8,.68l7.52,9.99c.15,.2,.46,.19,.6-.01,2.7-4.1,2.83-9.57-.05-13.88ZM64.35,54.86c-1.17,.88-2.82,.64-3.7-.52-.88-1.17-.64-2.82,.52-3.7,1.17-.88,2.82-.64,3.7,.52,.88,1.17,.64,2.82-.52,3.7Z"/><circle class="j" cx="147.46" cy="62.51" r="19.87"/><rect class="i" x="127.55" y="102.26" width="12.39" height="12.39"/><rect class="i" x="127.55" y="133.46" width="12.39" height="12.39"/></g><g id="c"><g><path class="e" d="M282.49,102.03l-7.01-8.66c-.72-.89-1.74-1.44-2.88-1.56-1.13-.12-2.24,.21-3.13,.93l-3.87,3.13-6.01,4.88-18.6,15.07-3.94-13.91V26.7c0-.83-.67-1.5-1.5-1.5h-12.22l-1.34-7.85c-.14-.81-.92-1.36-1.73-1.22l-7.13,1.22-1.27-4.49c-.23-.79-1.06-1.26-1.85-1.03l-47.27,13.37h-49.09c-.83,0-1.5,.67-1.5,1.5v7.96l-12.05,2.06c-.39,.06-.74,.28-.97,.61-.23,.32-.32,.73-.25,1.12l.79,4.59-6.96,1.97c-.39,.11-.71,.37-.91,.71-.19,.35-.24,.76-.13,1.14l15.38,54.36c-2-1.38-3.72-3.06-5.11-5l-34.74-48.5c-1.43-2-3.65-3.31-6.09-3.6-2.44-.3-4.91,.47-6.78,2.08-3.55,3.07-3.94,8.63-.87,12.37l32,39c-.22-.05-.45-.07-.69-.07h-6.31c-1.68,0-3.1,1.18-3.37,2.8l-1.27,7.44c-1.66,.5-3.27,1.17-4.81,1.99l-6.19-4.38c-1.37-.93-3.16-.76-4.33,.42l-4.47,4.47c-1.19,1.18-1.36,3.02-.4,4.35l4.36,6.17c-.82,1.54-1.49,3.15-1.99,4.81l-7.48,1.27c-1.62,.32-2.76,1.7-2.76,3.37v6.31c0,1.68,1.18,3.1,2.8,3.37l7.44,1.27c.5,1.66,1.17,3.27,1.99,4.81l-4.38,6.19c-.93,1.37-.76,3.15,.42,4.33l4.47,4.47c1.18,1.18,3.02,1.35,4.35,.4l6.17-4.37c1.54,.83,3.15,1.5,4.81,2l1.27,7.47c.32,1.63,1.7,2.77,3.37,2.77h6.31c1.68,0,3.1-1.18,3.37-2.8l1.27-7.44c1.66-.5,3.27-1.17,4.81-2l6.19,4.39c1.37,.93,3.15,.76,4.33-.42l4.47-4.47c1.18-1.19,1.35-3.02,.4-4.36l-4.37-6.16c.83-1.54,1.5-3.15,2-4.81l4.91-.84v26.88c-.17-.18-.37-.33-.6-.45l-2.83-1.5c-1.07-.56-2.38-.29-3.11,.66l-2.06,2.68c-.61-.09-1.23-.15-1.86-.17l-1.53-3.05c-.57-1.06-1.77-1.55-2.92-1.19l-3.06,.94c-1.16,.36-1.88,1.48-1.73,2.66l.44,3.35c-.5,.37-.98,.77-1.43,1.2l-3.25-1.07c-1.14-.35-2.34,.15-2.91,1.21l-1.49,2.84c-.57,1.07-.29,2.37,.66,3.1l2.68,2.06c-.1,.62-.16,1.24-.18,1.86l-3.04,1.54c-1.06,.56-1.55,1.76-1.2,2.91l.94,3.06c.36,1.16,1.48,1.89,2.66,1.73l3.36-.44c.36,.5,.76,.98,1.19,1.44l-1.07,3.24c-.35,1.15,.15,2.34,1.22,2.91l2.83,1.5c1.07,.56,2.38,.28,3.1-.66l2.06-2.69c.62,.1,1.24,.16,1.86,.18l1.54,3.05c.44,.83,1.27,1.31,2.16,1.31,.25,0,.5-.04,.75-.12l3.06-.94c1.16-.36,1.89-1.48,1.73-2.66l-.44-3.35c.51-.37,.99-.77,1.44-1.2l1.03,.34v1.03c0,.83,.67,1.5,1.5,1.5h12.23l1.34,7.84c.12,.73,.76,1.25,1.48,1.25,.08,0,.17-.01,.25-.02l7.13-1.22,1.27,4.48c.19,.66,.79,1.09,1.44,1.09,.14,0,.27-.02,.41-.05l47.25-13.37h49.1c.83,0,1.5-.67,1.5-1.5v-7.96l12.05-2.06c.4-.07,.75-.29,.98-.61,.22-.33,.32-.73,.25-1.12l-.79-4.6,6.96-1.97c.38-.1,.71-.36,.9-.71,.2-.35,.24-.76,.14-1.14l-10.72-37.91,25.16-20.38,6.02-4.88,3.86-3.13c1.83-1.48,2.11-4.18,.63-6.01ZM213.95,20.25l5.33-.91,1,5.86h-35.2l25.9-4.44,2.97-.51Zm-4.57-5.13l.78,2.74-26.55,4.55,25.77-7.29Zm-107.29,24.3l10.06-1.72v60.44l-9.07-52.95-.51-2.97-.48-2.8Zm-7.13,8.07l5.22-1.48,8.65,50.49-13.87-49.01Zm-39.18,9.18c-2.05-2.5-1.82-6.18,.52-8.2,1.24-1.08,2.84-1.57,4.46-1.38,1.6,.2,3.06,1.06,4,2.37l34.74,48.51c2.23,3.11,5.22,5.64,8.73,7.44,.74,.39,1.51,.74,2.3,1.05,.41,.17,.83,.32,1.25,.46,.12,.05,.24,.09,.37,.13,.53,.17,1.06,.33,1.61,.47,.46,.13,.92,.24,1.39,.33,.1,.03,.2,.05,.3,.07,2.87,.57,5.35,2.22,6.99,4.64l1.52,2.24,.97,1.43,.98,1.44c2.2,3.24,2.51,7.33,.93,10.81l-6.56-8.59c-1.15-1.5-2.99-2.16-4.73-1.88-.13,.03-.27,.05-.4,.09-.07,.01-.13,.03-.2,.05-.56,.17-1.1,.44-1.6,.81l-.6,.46-.46,.35-.14,.11-2.74,2.09c-1.19,.91-1.85,2.26-1.92,3.64-.08,1.11,.23,2.25,.93,3.21,.02,.03,.04,.05,.06,.08l3.67,4.8,2.29,3.01,.36,.46c-.68,.06-1.36,.07-2.03,0-.21-.02-.42-.04-.62-.07-2.52-.38-4.86-1.63-6.62-3.6l-4.11-4.62c-1.98-2.22-2.97-5.08-2.79-8.05,.21-3.4-.15-6.71-1.04-9.81-.29-1-.63-1.99-1.03-2.94-.96-2.3-2.24-4.44-3.81-6.35L55.78,56.67Zm71.18,56.56v-9.58h9.58v9.58h-9.58Zm0,21.63h9.58v9.58h-9.58v-9.58Zm-14.81-8.45l-1.68-.29c-.06-.66,.2-1.33,.76-1.76l.92-.71v2.76Zm-21.72-22.78c1.46,1.78,2.63,3.79,3.49,5.95-1.45-.76-2.96-1.37-4.51-1.84l-1.16-6.76,2.18,2.65Zm14.42,34.89l-.24,.94c-.54,2.04-1.36,4-2.43,5.85l-.49,.83,5.48,7.73c.08,.12,.1,.31-.08,.5l-4.47,4.47c-.22,.22-.44,.11-.5,.07l-7.73-5.47-.83,.49c-1.85,1.07-3.81,1.89-5.85,2.43l-.94,.24-1.59,9.33c-.02,.15-.14,.3-.41,.3h-6.31c-.32,0-.4-.23-.41-.3l-1.59-9.33-.94-.24c-2.04-.54-4.01-1.36-5.85-2.43l-.84-.49-7.72,5.48c-.12,.08-.31,.1-.5-.08l-4.47-4.47c-.22-.22-.11-.44-.08-.5l5.48-7.73-.49-.83c-1.07-1.85-1.89-3.82-2.43-5.86l-.25-.93-9.33-1.59c-.14-.02-.29-.14-.29-.41v-6.31c0-.32,.23-.4,.3-.41l9.32-1.59,.25-.94c.54-2.04,1.36-4.01,2.43-5.85l.49-.84-5.48-7.72c-.08-.12-.11-.32,.08-.5l4.47-4.47c.22-.22,.44-.11,.5-.08l7.72,5.48,.84-.49c1.84-1.07,3.81-1.89,5.85-2.43l.94-.25,1.59-9.32c.02-.15,.14-.3,.41-.3h6.31c.32,0,.4,.23,.41,.3l1.59,9.32,.94,.25c2.04,.54,4.01,1.36,5.85,2.43l.83,.49,.58-.41c.6,2.47,.83,5.09,.67,7.77-.23,3.77,1.02,7.4,3.54,10.22l4.11,4.63c.97,1.09,2.08,2.01,3.29,2.72l-1.73,.3Zm5.41,51.18l-.66,.71c-.68,.75-1.47,1.4-2.32,1.93l-.82,.51,.63,4.76-2.22,.69-2.16-4.29-.97,.04c-1,.04-2.01-.06-3-.29l-.94-.22-2.93,3.82-2.05-1.09,1.5-4.57-.71-.65c-.75-.69-1.39-1.47-1.93-2.32l-.51-.82-4.76,.62-.68-2.21,4.28-2.17-.03-.96c-.05-1.01,.05-2.02,.28-3.01l.22-.94-3.81-2.92,1.08-2.05,4.57,1.5,.65-.71c.69-.75,1.47-1.4,2.32-1.93l.82-.51-.62-4.76,2.21-.69,2.17,4.29,.97-.04c1-.04,2.01,.06,3,.29l.94,.22,2.93-3.82,2.05,1.09-1.5,4.56,.71,.66c.74,.69,1.39,1.47,1.92,2.32l.51,.82,.75-.1v8.55l-.05,.21,.05,.04v4.06l-1.89-.62Zm25,11.25l-5.34,.92-1-5.86h35.19l-25.87,4.43-2.98,.51Zm4.57,5.13l-.77-2.73,26.47-4.54-25.7,7.27Zm94.22-13.07H115.15v-52.86c.38-.03,.75-.08,1.13-.15,.34-.06,.68-.13,1.02-.22,.21-.05,.41-.14,.58-.27,.33-.21,.58-.54,.72-.92,.21-.6,.1-1.25-.28-1.75l-.84-1.1-1.06-1.38-1.27-1.67v-11.33l.02-.02c.19-.14,.39-.24,.6-.3,.1-.03,.19-.06,.29-.07,.68-.1,1.39,.16,1.83,.74l7.62,9.97,.15,.18h-1.7v15.58h15.58v-15.58h-11.22c.09-.08,.17-.18,.24-.29,3.04-4.69,3.02-10.68-.02-15.34h11v-15.58h-15.58v8.96c-2.04-2.38-4.8-4-7.92-4.63-.3-.06-.59-.12-.89-.19V28.2h118.9V121.43l-15.56,12.61h-72.17c-.83,0-1.5,.68-1.5,1.5s.67,1.5,1.5,1.5h68.46l-7.06,5.72h-61.4c-.83,0-1.5,.67-1.5,1.5s.67,1.5,1.5,1.5h57.69l-.6,.49s-.04,.02-.05,.04c-.09,.07-.17,.15-.24,.24-.05,.06-.1,.14-.14,.21l-6.88,12.73c-.04,.06-.08,.12-.11,.19l-3.35,6.19c-.06,.11-.1,.22-.13,.34h-46.19c-.83,0-1.5,.68-1.5,1.5s.67,1.5,1.5,1.5h78.03c.83,0,1.5-.67,1.5-1.5s-.67-1.5-1.5-1.5h-23.8l.59-.18c.09-.02,.17-.05,.25-.08l13.84-4.07s.05-.02,.07-.03c.17-.05,.32-.14,.45-.24l18.3-14.82v46.24Zm-32.31-30.3c-.53-1.2-1.33-2.19-2.39-2.95l5.44-10.06c3.57,2.82,6.3,6.15,7.97,9.75l-11.02,3.26Zm45.38,19.07l-10.07,1.73v-39.17l3.21-2.6,5.87,34.27,.51,2.97,.48,2.8Zm7.12-8.06l-5.21,1.47-6.1-35.61,1.34-1.09,9.97,35.23Zm-8.31-40.44l-2.54,2.06-1.04,.84-2.67,2.17-2.63,2.12-3,2.43-18.23,14.77-.42,.34c-.76-1.59-1.69-3.13-2.8-4.61l2.11-1.7h0l7.33-5.94,3.27-2.65,4.79-3.88c.64-.52,.74-1.47,.22-2.11s-1.47-.74-2.11-.22l-7.24,5.86-3.7,3-4.45,3.6-2.13,1.72c-1.19-1.29-2.51-2.52-3.95-3.67l.47-.38,1.57-1.27,3.7-3,7.06-5.72,3.71-3,10.8-8.75,2.98-2.41,.02,.14v-.16l2.28-1.85,.37-.3,2.17-1.76,18.43-14.93,3.37,4.16-11.97,9.69c-.64,.52-.74,1.47-.22,2.11,.29,.37,.73,.56,1.16,.56,.34,0,.67-.11,.95-.34l11.97-9.7,3.36,4.16-22.99,18.62Zm25.33-20.51l-4.29-5.29s-.01-.02-.02-.03l-.02-.02-4.29-5.3,3.69-2.98,8.61,10.63-3.68,2.99Zm8.71-7.06l-2.7,2.18-8.61-10.63,2.7-2.19c.54-.44,1.35-.36,1.78,.19l7.02,8.66c.19,.24,.28,.52,.28,.8,0,.37-.16,.74-.47,.99Z"/><path class="e" d="M81.61,121.14c-6.73,0-12.22,5.49-12.22,12.22s5.49,12.22,12.22,12.22,12.22-5.48,12.22-12.22-5.48-12.22-12.22-12.22Zm0,21.44c-5.08,0-9.22-4.13-9.22-9.22s4.14-9.22,9.22-9.22,9.22,4.14,9.22,9.22-4.13,9.22-9.22,9.22Z"/><path class="e" d="M101.29,176.83c-3.26,0-5.91,2.65-5.91,5.9s2.65,5.91,5.91,5.91,5.9-2.65,5.9-5.91-2.64-5.9-5.9-5.9Zm0,8.81c-1.6,0-2.91-1.3-2.91-2.91s1.31-2.9,2.91-2.9,2.9,1.3,2.9,2.9-1.3,2.91-2.9,2.91Z"/><path class="e" d="M133.3,105.86l-2.52,2.47-.46-.58c-.51-.65-1.46-.76-2.11-.25-.65,.51-.76,1.46-.25,2.11l1.49,1.89c.26,.33,.66,.54,1.08,.57,.03,0,.06,0,.09,0,.39,0,.77-.15,1.05-.43l3.71-3.64c.59-.58,.6-1.53,.02-2.12-.58-.59-1.53-.6-2.12-.02Z"/><path class="e" d="M133.3,137.35l-2.52,2.47-.46-.58c-.51-.65-1.46-.76-2.11-.25-.65,.51-.76,1.46-.25,2.11l1.49,1.89c.26,.33,.66,.54,1.08,.57,.03,0,.06,0,.09,0,.39,0,.77-.15,1.05-.43l3.71-3.64c.59-.58,.6-1.53,.02-2.12-.58-.59-1.53-.6-2.12-.02Z"/><path class="e" d="M145.73,59.2c3.06,0,5.54-2.48,5.54-5.54s-2.48-5.54-5.54-5.54-5.54,2.48-5.54,5.54,2.48,5.54,5.54,5.54Z"/><path class="e" d="M167.37,62.45c0-11.97-9.74-21.7-21.7-21.7s-21.71,9.73-21.71,21.7,9.74,21.71,21.71,21.71,21.7-9.74,21.7-21.71Zm-40.41,0c0-10.31,8.39-18.7,18.71-18.7s18.7,8.39,18.7,18.7-8.39,18.71-18.7,18.71-18.71-8.39-18.71-18.71Z"/><path class="e" d="M156.89,70.98h0c-.23-2.99-1.84-5.58-4.18-7.13-1.46-.98-3.21-1.54-5.08-1.54h-3.75c-1.88,0-3.63,.56-5.09,1.54-2.34,1.55-3.95,4.14-4.18,7.12h0c-.08,.83,.59,1.54,1.42,1.54h19.45c.83,0,1.5-.71,1.42-1.53Z"/><path class="e" d="M176.78,53.05h28.41c1.38,0,2.5-1.12,2.5-2.5s-1.12-2.5-2.5-2.5h-28.41c-1.38,0-2.5,1.12-2.5,2.5s1.12,2.5,2.5,2.5Z"/><path class="e" d="M175.51,63.13h48.84c.68,0,1.25-.45,1.43-1.07,.05-.14,.07-.28,.07-.43,0-.45-.2-.85-.51-1.12-.26-.24-.61-.38-.99-.38h-48.84c-.83,0-1.5,.67-1.5,1.5s.67,1.5,1.5,1.5Z"/><path class="e" d="M175.51,71.34h48.84c.32,0,.61-.1,.85-.27,.39-.26,.65-.72,.65-1.23,0-.8-.62-1.45-1.41-1.49-.03-.01-.06-.01-.09-.01h-48.84c-.83,0-1.5,.67-1.5,1.5s.67,1.5,1.5,1.5Z"/><path class="e" d="M175.39,79.87h32.03c.83,0,1.5-.67,1.5-1.5s-.67-1.5-1.5-1.5h-32.03c-.82,0-1.5,.68-1.5,1.5s.68,1.5,1.5,1.5Z"/><path class="e" d="M144.82,103.39c0,.83,.67,1.5,1.5,1.5h78.03c.83,0,1.5-.67,1.5-1.5s-.67-1.5-1.5-1.5h-78.03c-.83,0-1.5,.68-1.5,1.5Z"/><path class="e" d="M224.35,110.61h-78.03c-.83,0-1.5,.67-1.5,1.5s.67,1.5,1.5,1.5h78.03c.83,0,1.5-.67,1.5-1.5s-.67-1.5-1.5-1.5Z"/><path class="e" d="M224.35,174.91h-78.03c-.83,0-1.5,.67-1.5,1.5s.67,1.5,1.5,1.5h78.03c.83,0,1.5-.67,1.5-1.5s-.67-1.5-1.5-1.5Z"/><path class="e" d="M240.93,126.66c-.07,.03-.13,.06-.19,.11-.05,.02-.09,.05-.13,.08l-2.55,2.07-1.01,.81-3,2.44-.19,.15c-.64,.52-.74,1.46-.22,2.11,.12,.14,.26,.26,.41,.34,.23,.14,.49,.21,.76,.21,.33,0,.66-.11,.94-.33l1.3-1.05,1.59-1.29,2.67-2.16h0l.49-.4,.69-.56c.65-.52,.75-1.47,.23-2.11-.45-.55-1.19-.71-1.79-.42Z"/><path class="e" d="M124.88,164.25h-.92v15.58h15.58v-15.58h-14.66Zm11.66,3v9.58h-9.58v-9.58h9.58Z"/><path class="e" d="M57.52,49.49c-1.82,1.39-2.17,4-.78,5.82,.82,1.07,2.05,1.63,3.3,1.63,.88,0,1.77-.27,2.52-.85,.88-.67,1.45-1.65,1.6-2.75,.14-1.09-.15-2.19-.82-3.07-1.39-1.82-4-2.17-5.82-.78Zm3.22,4.22c-.51,.38-1.23,.29-1.62-.22-.18-.24-.26-.54-.22-.85,.04-.3,.19-.58,.44-.76,.21-.16,.45-.24,.7-.24,.34,0,.69,.16,.92,.45,.38,.51,.28,1.23-.22,1.62Z"/></g></g><g id="d"/></svg>