<?xml version="1.0" encoding="UTF-8"?><svg xmlns="http://www.w3.org/2000/svg" viewBox="0 0 340 220"><defs><style>.e{fill:#003f5e;}.f{fill:#007d85;}.g{fill:#fff;}.h{fill:#ecfbfc;}.i{fill:#fcc44e;}.j{fill:#b3d8da;}.k{fill:#e0eff0;}.l{fill:#80bec2;}</style></defs><g id="a"><path class="k" d="M313.16,118.25c.55,16.42-3.84,32.89-13.87,45.6-2.19,2.69-4.7,5.29-7.42,7.79-13.68,14.88-34.26,17.04-53.44,14.49-3.84-.34-7.65-.52-11.44-.57-18.94-.25-37.3,2.94-55.67,8-3.67,1.01-7.35,2.1-11.03,3.25-23.62,8.72-51.93,18.23-77.58,14.76-3.66-.5-7.27-1.26-10.81-2.32-36.33-10.82-55.83-56.31-39.01-90.79,1.06-3.41,2.11-6.83,3.05-10.24,1.89-6.83,3.38-13.65,3.77-20.39,.25-3.07,.48-6.14,.74-9.2,1.84-21.38,5.12-41.89,24.81-55.16,7.17-4.83,14.25-8.17,21.24-10.29,3.5-1.06,6.98-1.82,10.44-2.31,37.18-7.4,68.59,15.34,101.36,28.63,3.38,1.19,6.77,2.27,10.16,3.22,3.69,1.03,7.4,1.97,11.13,2.82,12.86,2.92,25.36,3.98,38.43,5.23,33.94,3.24,54.03,35.28,55.11,67.48Z"/></g><g id="b"><path class="j" d="M297.78,75.45l-52.41,33.09-26.73-38.6,49.42-37.76c17.67,9.43,28.73,23.12,29.71,43.27Z"/><circle class="i" cx="169.69" cy="120.95" r="64.9"/><path class="g" d="M103.36,115.29H63.91l-11.56-13.4v13.4c-3.8,0-6.88,3.26-6.88,7.27v26.28c0,4.02,3.08,7.27,6.88,7.27h51c3.8,0,6.88-3.26,6.88-7.27v-26.28c0-4.02-3.08-7.27-6.88-7.27Z"/><rect class="h" x="214.68" y="70.5" width="21.09" height="50.09" transform="translate(464.75 45.75) rotate(145.27)"/><path class="l" d="M220,131.63c.4,2.15-.07,4.31-1.3,6.1-1.51,2.22-4.03,3.54-6.72,3.54-1.14,0-2.24-.24-3.27-.7l-1.28-.57,.23,1.38c.34,2.09-.12,4.19-1.31,5.91-1.93,2.83-5.57,4.22-8.97,3.21l-.96-.27v1.01l-.02,.07,.06,.18c.38,2.13-.08,4.28-1.3,6.06-1.52,2.22-4.04,3.54-6.73,3.54-1.52,0-3-.43-4.29-1.24l-1.35-.84,.21,1.57c.25,1.98-.23,3.98-1.36,5.63-1.52,2.22-4.03,3.54-6.73,3.54-1.63,0-3.22-.5-4.59-1.43l-9.43-6.58-3.06,2.1c-1.8,1.22-3.97,1.68-6.09,1.29-2.15-.4-4-1.61-5.22-3.4-1.2-1.74-1.66-3.84-1.31-5.92l.22-1.29-1.23,.47c-1.37,.52-2.89,.66-4.33,.37-2.14-.39-3.99-1.6-5.22-3.39-1.39-2.02-1.78-4.52-1.09-6.86l.34-1.15-1.18,.2c-.67,.11-1.64,.09-2.51-.08-2.14-.39-3.99-1.6-5.22-3.38-1.23-1.8-1.69-3.96-1.29-6.1,.14-.79,.4-1.56,.77-2.28l.5-1-1.11-.09c-2.47-.19-4.69-1.47-6.08-3.5-1.08-1.58-1.87-5.5-1.71-7.36l24.84-36.05c1.68,.31,5.14,.24,6.81-.15l7.67-1.77,.12-.02s.07-.02,.11-.03h.15l.13-.09c.61-.33,1.23-.61,1.84-.83l14.63-5.31c5.06-1.83,10.74-1.55,15.58,.79l9.52,4.58c.4,.2,.8,.36,1.23,.5l-.14-.32c-.08-.18-.14-.38-.16-.59,.28,.11,.56,.21,.84,.29l1.09,1.59,4.07-.6,24.84,36.26c-2.05,1.24-7.63,5.21-9.32,6.95l-1.93,2,.4,.51c.81,1.03,1.37,2.26,1.61,3.55Z"/><path class="g" d="M216.89,30.02h39.45l11.56-13.4v13.4c3.8,0,6.88,3.26,6.88,7.27v26.28c0,4.02-3.08,7.27-6.88,7.27h-51c-3.8,0-6.88-3.26-6.88-7.27v-26.28c0-4.02,3.08-7.27,6.88-7.27Z"/><path class="f" d="M49.64,78.83l66.87,41.14,25.75-37.65-62.91-46.76c-17.67,9.43-28.73,23.12-29.71,43.27Z"/></g><g id="c"><path class="e" d="M75.5,122.25c-3.31,0-6,2.68-6,6s2.69,6,6,6,6-2.69,6-6-2.68-6-6-6Zm2.38,14.25h-4.75c-4.49,0-8.13,3.63-8.13,8.12,0,.9,.73,1.63,1.63,1.63h17.75c.9,0,1.62-.73,1.62-1.63,0-4.49-3.63-8.12-8.12-8.12Z"/><path class="e" d="M241.04,38.31c-3.32,0-6,2.68-6,6,0,1.89,.9,3.56,2.27,4.66-.01-.06-.02-.1-.02-.16,0-1.66,1.34-3,3-3h1.5c.92,0,1.78,.42,2.34,1.12,.1,.12,.18,.24,.26,.37h.4c1.24,.01,2.25-1,2.25-2.2v-.79c0-3.32-2.68-6-6-6Zm8.82,4.18c-.85-4.1-4.48-7.18-8.82-7.18-4.96,0-9,4.03-9,9v.75c0,.41,.34,.75,.75,.75s.75-.34,.75-.75v-.75c0-4.14,3.36-7.5,7.5-7.5,3.88,0,7.08,2.95,7.46,6.73,.03,.26,.04,.51,.04,.77v.75c0,2.06-1.68,3.75-3.75,3.75h-1.5c0-.37-.13-.7-.35-.96-.28-.33-.69-.54-1.15-.54h-1.5c-.82,0-1.5,.67-1.5,1.5,0,.67,.45,1.25,1.07,1.43,.13,.05,.28,.07,.43,.07h4.5c2.49-.01,4.57-1.73,5.1-4.05,.1-.38,.15-.79,.15-1.2v-.75c0-.62-.06-1.23-.18-1.82Zm-4.57,9.32h-8.5c-3.24,0-5.91,2.47-6.22,5.63-.02,.2-.03,.41-.03,.61,0,.7,.56,1.26,1.25,1.26h18.5c.69,0,1.25-.56,1.25-1.26,0-3.45-2.8-6.24-6.25-6.24Z"/><path class="e" d="M108.48,117.36c-.89-1.85-2.39-3.32-4.22-4.12h0c-.91-.41-1.91-.65-2.95-.68-.1-.01-.2-.01-.3-.01H62.25l-11.11-12.88c-.41-.48-1.08-.64-1.66-.43-.59,.22-.98,.78-.98,1.41v12.04c-3.91,.74-6.88,4.33-6.88,8.63v26.28c0,4.84,3.76,8.77,8.38,8.77h51.01c3.49,0,6.49-2.24,7.75-5.43,.41-1.03,.63-2.16,.63-3.34v-26.28c0-1.42-.33-2.77-.91-3.96Zm-2.09,30.24c0,3.18-2.42,5.77-5.38,5.77H50c-2.97,0-5.38-2.59-5.38-5.77v-26.28c0-3.18,2.41-5.77,5.38-5.77,.83,0,1.5-.67,1.5-1.5v-9.37l8.92,10.35c.29,.33,.7,.52,1.14,.52h39.5c1.09,.01,2.1,.38,2.95,.99,1.43,1.04,2.38,2.79,2.38,4.78v26.28Z"/><path class="e" d="M267.04,27.42V15.38c0-.63-.39-1.19-.97-1.41-.59-.22-1.25-.05-1.66,.43l-11.11,12.88h-38.76c-4.62,0-8.38,3.93-8.38,8.77v26.28c0,1.59,.4,3.08,1.11,4.36,.83,1.52,2.09,2.75,3.59,3.52,.41,.21,.84,.39,1.28,.52,.76,.24,1.57,.37,2.4,.37h51c4.63,0,8.39-3.93,8.39-8.77v-26.28c0-4.3-2.98-7.89-6.89-8.63Zm3.89,34.91c0,3.18-2.42,5.77-5.39,5.77h-51c-.19,0-.37-.01-.55-.03h-.01c-2.71-.3-4.82-2.76-4.82-5.74v-26.28c0-3.18,2.41-5.77,5.38-5.77h39.45c.43,0,.85-.19,1.13-.52l8.92-10.35v9.37c0,.82,.68,1.5,1.5,1.5h.07c1.1,.02,2.12,.38,2.96,1,1.42,1.04,2.36,2.79,2.36,4.77v26.28Z"/><path class="e" d="M233.73,118.71c-.01-1.19-.06-2.36-.15-3.53l-2.89,1.98c.03,.84,.05,1.69,.05,2.54,0,.36,0,.72,0,1.07-.57,34.47-28.79,62.34-63.39,62.34-25.8,0-48.06-15.5-57.95-37.68-1.18-2.65-2.19-5.4-3-8.22v8.84c.72,1.67,1.51,3.3,2.37,4.89,11.18,20.91,33.25,35.17,58.58,35.17,36.61,0,66.4-29.79,66.4-66.41,0-.33,0-.66,0-.99Zm-21.59-47.98c-.29-.26-.59-.53-.89-.79-1.28-1.14-2.61-2.23-3.98-3.25-11.12-8.4-24.95-13.39-39.93-13.39-15.94,0-30.59,5.65-42.05,15.04-.79,.65-1.57,1.32-2.33,2.01l2.43,1.86c.77-.69,1.56-1.35,2.36-1.99,10.86-8.71,24.63-13.92,39.59-13.92,15.79,0,30.25,5.8,41.36,15.39,.78,.67,1.54,1.36,2.29,2.08l2.52-1.74c-.45-.44-.9-.87-1.37-1.3Zm-110.43,38.8c-.16,1-.29,2.01-.4,3.03-.01,.08-.02,.17-.03,.25-.09,.91-.16,1.82-.22,2.74,1.09,.01,2.1,.38,2.95,.99,.03-.65,.07-1.29,.13-1.93,.03-.46,.07-.92,.12-1.37h0c.06-.67,.14-1.32,.23-1.96l-2.78-1.75Z"/><path class="e" d="M248.61,119.71c0,.82-.67,1.5-1.5,1.5s-1.5-.68-1.5-1.5c0-2.95-.16-5.89-.49-8.81-.22-2.02-.52-4.02-.91-6.01l.43,.63,2.45-1.54c.21,1.06,.4,2.12,.57,3.19,.63,4.13,.95,8.32,.95,12.54Z"/><path class="e" d="M167.33,200.99c-.83,0-1.5-.67-1.5-1.5s.67-1.5,1.5-1.5c30.17,0,57.98-17.64,70.85-44.95,.35-.75,1.25-1.07,2-.72,.75,.35,1.07,1.25,.72,2-13.36,28.35-42.24,46.67-73.56,46.67Z"/><path class="e" d="M126.77,188.43c-.28,.46-.77,.71-1.28,.71-.27,0-.54-.07-.78-.22-13.1-8.09-23.35-19.38-29.99-32.55-.5-.99-.98-1.99-1.43-3h3.31c.48,1.01,.98,2.01,1.5,3,6.4,12.1,16.01,22.49,28.18,30,.71,.43,.93,1.36,.49,2.06Z"/><path class="e" d="M120.93,56.31c-.47,0-.93-.22-1.22-.63-.48-.67-.33-1.61,.35-2.09,13.84-9.92,30.19-15.16,47.28-15.16,.83,0,1.5,.67,1.5,1.5s-.67,1.5-1.5,1.5c-16.45,0-32.2,5.05-45.53,14.6-.26,.19-.57,.28-.87,.28Z"/><path class="e" d="M214.54,71.1c-.83,0-1.64-.13-2.4-.37,.47,.43,.92,.86,1.37,1.3l1.36-.93h-.33Zm0,0c-.83,0-1.64-.13-2.4-.37,.47,.43,.92,.86,1.37,1.3l1.36-.93h-.33Zm0,0c-.83,0-1.64-.13-2.4-.37,.47,.43,.92,.86,1.37,1.3l1.36-.93h-.33Zm0,0c-.83,0-1.64-.13-2.4-.37,.47,.43,.92,.86,1.37,1.3l1.36-.93h-.33Zm0,0c-.83,0-1.64-.13-2.4-.37,.47,.43,.92,.86,1.37,1.3l1.36-.93h-.33Zm83.61,2.52c-.44-.7-1.37-.91-2.07-.47l-48.99,30.83-2.45,1.54-.43-.63-23.2-33.79-1.1-1.6,1.81-1.4h-7.18c-.19,0-.37-.01-.55-.03h-.01l-2.73,1.87-.39,.27-2.16,1.48-9.63,6.61c-.33,.23-.55,.57-.62,.97-.06,.29-.03,.58,.09,.85-.49-.14-.97-.32-1.44-.55l-9.52-4.58c-5.03-2.43-10.93-2.72-16.17-.82l-14.63,5.31c-.67,.24-1.32,.54-1.94,.88-.1,.01-.2,.04-.3,.06l-7.69,1.77c-1.25,.29-2.54,.36-3.8,.22-.37-.03-.74-.09-1.11-.16l-1.83,2.64c.51,.15,1.03,.27,1.55,.36,1.93,.35,3.92,.32,5.86-.13l2.31-.53-7.54,8.56c-3.1,3.58-2.96,8.85,.32,12.26,3.04,3.16,7.9,3.71,11.61,1.26l14.9-10.74,45.51,31.09c1.29,.89,2.17,2.23,2.46,3.78,.28,1.55-.05,3.11-.94,4.41-.89,1.3-2.23,2.17-3.78,2.46-1.55,.29-3.12-.04-4.41-.93l-22.29-15.35c-.05-.04-.1-.06-.15-.09-.01,0-.01-.01-.02-.01,0-.01-.02-.01-.03-.02l-1.35-.94c-.68-.47-1.62-.3-2.09,.38-.47,.68-.3,1.61,.38,2.09l19.86,13.78c2.68,1.84,3.36,5.51,1.53,8.19-1.85,2.68-5.52,3.36-8.19,1.53l-19.86-13.78c-.16-.11-.34-.18-.52-.23h-.02s-.05-.01-.08-.01c-.55-.09-1.13,.13-1.47,.62-.06,.09-.11,.18-.15,.28-.26,.64-.06,1.4,.53,1.81l1.57,1.09,15.47,10.76c1.3,.89,2.17,2.23,2.46,3.78s-.05,3.12-.94,4.41c-1.84,2.68-5.51,3.37-8.18,1.53l-14.8-10.28h0c-.23-.54-.51-1.06-.85-1.55-1.34-1.96-3.36-3.27-5.7-3.71-.8-.15-1.6-.19-2.39-.12,.82-2.53,.5-5.4-1.12-7.75-2.27-3.31-6.39-4.6-10.03-3.43,.1-.53,.15-1.08,.15-1.63,0-1.73-.5-3.48-1.55-5.01-2.72-3.96-8.1-5.03-12.12-2.45,.28-2.16-.24-4.32-1.48-6.13-1.34-1.95-3.36-3.27-5.7-3.7-1.74-.32-3.5-.13-5.1,.56-.54,.23-1.06,.51-1.55,.85l-2.07,1.42-5.16,7.41-.03,.39c-.11,1.95,.43,3.85,1.54,5.48,1.58,2.3,4.05,3.62,6.64,3.82-.39,.77-.68,1.61-.84,2.49-.43,2.33,.07,4.69,1.41,6.65,1.34,1.95,3.37,3.27,5.7,3.7,.55,.11,1.1,.16,1.64,.16,.38,0,.76-.02,1.13-.08-.73,2.46-.37,5.22,1.19,7.5,1.34,1.95,3.37,3.27,5.7,3.7,.55,.11,1.1,.16,1.64,.16,1.06,0,2.11-.19,3.1-.57-.37,2.18,.08,4.5,1.43,6.47,1.34,1.96,3.37,3.27,5.7,3.71,.55,.1,1.1,.15,1.64,.15,1.78,0,3.51-.54,5.01-1.56l2.64-1.81,9,6.29c1.54,1.05,3.29,1.56,5.02,1.56,2.84,0,5.63-1.35,7.35-3.86,1.24-1.82,1.76-3.99,1.48-6.15,1.45,.91,3.08,1.35,4.69,1.35,2.83,0,5.62-1.35,7.35-3.86,1.34-1.96,1.84-4.32,1.41-6.66-.01-.03-.01-.05-.02-.08h0c.81,.22,1.63,.34,2.45,.34,2.84,0,5.63-1.35,7.35-3.86,1.35-1.96,1.79-4.28,1.43-6.46,1.14,.51,2.36,.76,3.58,.76,2.83,0,5.62-1.35,7.34-3.86,1.35-1.96,1.85-4.32,1.42-6.66-.27-1.44-.88-2.76-1.76-3.88l1.48-1.53c1.82-1.87,3.9-3.47,6.17-4.74l1.01,1.46c.22,.32,.57,.55,.96,.62,.09,.02,.18,.03,.27,.03,.3,0,.6-.09,.85-.27l1.71-1.17,3-2.06,11.39-7.81,.86-.59c.68-.47,.85-1.4,.38-2.09l-.1-.17,1.4-.88,50.02-31.48c.7-.44,.91-1.37,.47-2.07ZM124.78,127.68c-1.31,.22-2.66,0-3.82-.64-.79-.43-1.49-1.04-2.03-1.83-.7-1.01-1.05-2.19-1.03-3.4,.01-.33,.04-.67,.1-1,.17-.89,.53-1.72,1.05-2.42,.38-.52,.85-.98,1.4-1.36l3.43-2.35c1.01-.7,2.17-1.03,3.32-1.03,1.87,0,3.72,.89,4.86,2.55,1.83,2.68,1.15,6.35-1.52,8.18l-3.43,2.35c-.72,.5-1.51,.81-2.33,.95Zm9.67,11.92l-.13,.09c-.92,.64-1.98,.98-3.08,1.02-.44,.03-.88-.01-1.32-.09-1.55-.28-2.89-1.15-3.78-2.45-.87-1.28-1.21-2.81-.94-4.33,0-.03,0-.05,.01-.08,.21-1.13,.74-2.16,1.51-2.97,.29-.3,.6-.56,.94-.8l.96-.66,.09-.06s.07-.04,.1-.06l3.42-2.35s.06-.04,.08-.06l5.17-3.55c1.01-.69,2.17-1.03,3.32-1.03,.93,0,1.87,.23,2.7,.66,.84,.43,1.59,1.07,2.16,1.9,1.82,2.65,1.16,6.29-1.47,8.14-.02,.02-.03,.03-.05,.04l-8.51,5.84-1.18,.8Zm10.07,11l-.54,.37c-1.29,.89-2.86,1.22-4.4,.93-1.55-.28-2.89-1.15-3.78-2.45-1.12-1.64-1.3-3.65-.66-5.38h0c.35-.94,.93-1.79,1.73-2.46,.05-.04,.1-.08,.15-.12l8.81-6.06s.05-.04,.08-.05l2.99-2.06c1-.68,2.14-1.03,3.32-1.03,.36,0,.73,.03,1.09,.1,1.54,.29,2.89,1.16,3.77,2.45,.89,1.3,1.23,2.86,.94,4.41-.29,1.54-1.16,2.88-2.46,3.77l-8.06,5.54-.33,.22-2.65,1.82Zm13.05,8.96h-.01l-1.71,1.17c-1.29,.89-2.86,1.22-4.4,.94-1.55-.29-2.89-1.16-3.78-2.46-1.37-2.01-1.33-4.57-.1-6.51,.4-.62,.91-1.17,1.55-1.62l.69-.48h.01l7.44-5.1c.06-.04,.12-.09,.18-.14l.68-.46c1.02-.69,2.17-1.03,3.32-1.03,.94,0,1.87,.22,2.71,.66,.37,.19,.72,.42,1.05,.7h.01c.41,.34,.78,.74,1.09,1.2,.38,.55,.65,1.14,.82,1.76h0c.65,2.36-.22,4.96-2.34,6.42l-4.57,3.13-2.64,1.82Zm21.52,4.13c-1.62,2.36-4.66,3.18-7.19,2.08l-9.04-6.21,3.62-2.48c2.3-1.58,3.63-4.07,3.82-6.66l7.26,5.08c1.3,.89,2.17,2.23,2.46,3.78,.29,1.55-.04,3.11-.93,4.41Zm38.52-40.94l-1.56,1.61-23.19-15.85-15.34-10.48-7.57-5.17c-.26-.17-.55-.26-.85-.26s-.61,.09-.88,.28l-15.7,11.32c-2.45,1.61-5.71,1.25-7.75-.87-2.2-2.29-2.29-5.82-.22-8.21l8.35-9.47c.86-.99,1.89-1.82,3.02-2.46,.6-.36,1.23-.65,1.89-.89l7.79-2.83,6.83-2.48c4.49-1.63,9.54-1.37,13.85,.7l9.52,4.58c1.59,.77,3.3,1.17,5.01,1.23l23.42,34.12c-2.44,1.39-4.66,3.11-6.62,5.13Zm16.77-8.12l-.8,.55-2.89,1.98-2.13,1.46-1.69-2.46-22.65-33.01-1.86-2.71-.35-.51,8.98-6.16,2.52-1.74,1.36-.93,1.62-1.11,.76,1.11,25.79,37.58-8.66,5.95Zm-19.84-43.53c-.83,0-1.64-.13-2.4-.37,.47,.43,.92,.86,1.37,1.3l1.36-.93h-.33Zm0,0c-.83,0-1.64-.13-2.4-.37,.47,.43,.92,.86,1.37,1.3l1.36-.93h-.33Zm23.29-19.29l-7.26,5.63c-.02,.2-.03,.41-.03,.61,0,.7,.56,1.26,1.25,1.26h1.27l9.67-7.5h-4.9Zm12.03-9.32l-1.36,1.05c.03,.26,.04,.51,.04,.77v.75c0,2.06-1.68,3.75-3.75,3.75h-1.5c0-.37-.13-.7-.35-.96l-3.08,2.39c.13,.05,.28,.07,.43,.07h4.38l5.22-4.05c.1-.38,.15-.79,.15-1.2v-.75c0-.62-.06-1.23-.18-1.82Zm18.43-12.38c-.51-.66-1.45-.77-2.11-.27l-.57,.44c1.1,.02,2.12,.38,2.96,1,.08-.4-.01-.82-.28-1.17Zm-24.16,16.82c.1,.12,.18,.24,.26,.37h.4c1.24,.01,2.25-1,2.25-2.2v-.43l-2.91,2.26Zm-29.59,24.17c-.83,0-1.64-.13-2.4-.37,.47,.43,.92,.86,1.37,1.3l1.36-.93h-.33Zm0,0c-.83,0-1.64-.13-2.4-.37,.47,.43,.92,.86,1.37,1.3l1.36-.93h-.33Z"/><path class="e" d="M142.82,83.55l-1.16,1.7-17.93,26.11-6.67,9.71c-.29,.42-.76,.65-1.24,.65-.27,0-.55-.08-.8-.23l-.1-.06-6.44-4.07-4.34-2.75-2.86-1.8-.4-.26-51.36-32.46c-.7-.44-.91-1.37-.46-2.07,.44-.7,1.37-.91,2.07-.47l50.58,31.98,2.78,1.75,10.91,6.9,24.14-35.15-14.15-10.82-2.43-1.86-44.25-33.85c-.65-.51-.78-1.45-.28-2.1,.51-.66,1.45-.79,2.11-.29l44.75,34.23,2.46,1.88,14.75,11.29c.3,.23,.48,.55,.55,.9,.08,.38,.01,.79-.23,1.14Z"/></g><g id="d"/></svg>