<?xml version="1.0" encoding="UTF-8"?><svg xmlns="http://www.w3.org/2000/svg" viewBox="0 0 340 220"><defs><style>.e{fill:#003f5e;}.f{fill:#007d85;}.g{fill:#fdce6d;}.h{fill:#fff;}.i{fill:#fcb92f;}.j{fill:#b3d8da;}.k{fill:#e0eff0;}</style></defs><g id="a"><path class="k" d="M24.89,75.76c4.93-26.08,24.17-48.5,51.34-54.26,14.14-3,27.06-.46,40.75,3.38,22.6,6.34,45.8,8,69.11,6.75,3.98-.21,7.97-.5,11.98-.85,26.01-2.26,52.75-7.38,78.86,.7,28.64,8.86,47.71,34.14,48.59,63.24,.54,17.83-7.67,34.09-16.24,49.24-10.16,17.98-19.36,38.05-37.62,49.69-21.75,13.87-51.28,14.55-76.5,12.65-39.91-3-83.05-14.25-117.63-34.39-31.31-18.24-55.19-47.03-53.99-83.8,.14-4.25,.6-8.38,1.35-12.35Z"/></g><g id="b"><path class="g" d="M62.64,178.67H208.15c3.15,0,5.7-2.81,5.7-6.27V79.17c0-3.47-2.55-6.27-5.7-6.27H118.42c-1.78,0-3.46-.91-4.53-2.47l-5.62-8.12c-1.08-1.56-2.75-2.47-4.53-2.47H62.64c-3.15,0-5.7,2.81-5.7,6.27v106.28c0,3.47,2.55,6.27,5.7,6.27Z"/><rect class="h" x="82.09" y="51.66" width="106.61" height="147.41" transform="translate(260.76 -10.03) rotate(90)"/><rect class="g" x="56.94" y="78.35" width="156.91" height="100.49" rx="5.7" ry="5.7" transform="translate(270.79 257.18) rotate(-180)"/><rect class="h" x="67.75" y="83.53" width="34.33" height="34.33" transform="translate(185.62 15.79) rotate(90)"/><rect class="h" x="168.62" y="36.1" width="107.08" height="147.41"/><rect class="h" x="168.62" y="36.1" width="107.08" height="147.41" transform="translate(-12.84 31.13) rotate(-7.79)"/><rect class="h" x="168.62" y="36.1" width="107.08" height="147.41" transform="translate(-21.62 65.28) rotate(-15.95)"/><rect class="j" x="123.43" y="159.72" width="8.08" height="39.2" rx="4.04" ry="4.04" transform="translate(122.97 399.29) rotate(-143.42)"/><circle class="j" cx="152.25" cy="145.93" r="26.67"/><circle class="h" cx="152.74" cy="145.91" r="19.52"/><rect class="f" x="115.9" y="177.22" width="11.06" height="20.37" rx="2.54" ry="2.54" transform="translate(107.27 410.25) rotate(-143.42)"/><rect class="i" x="179.36" y="75.65" width="15.56" height="15.56"/><rect class="i" x="179.36" y="102.22" width="15.56" height="15.56"/><rect class="i" x="179.36" y="129.66" width="15.56" height="15.56"/></g><g id="c"><path class="e" d="M162.62,73.69l-.3-2.17h-3.02l.29,2.17,.11,.83h3.03l-.11-.83Zm50.09,3.98h-3.1c.05,.12,.08,.25,.11,.38,.1,.4,.15,.82,.15,1.25v1.37h3v-1.37c0-.56-.05-1.1-.16-1.63Zm-2.84,34.64v3h3v-3h-3Zm0-7.65v3h3v-3h-3Zm0,26.99v3h3v-3h-3Zm0,26.98v3h3v-3h-3Zm0,7.66v3h3v-3h-3Zm0-26.99v3h3v-3h-3Zm0-53.98v3h3v-3h-3Zm-17.43-11.61h-15.56c-.58,0-1.08,.33-1.32,.81h18.2c-.24-.48-.74-.81-1.32-.81Zm-27.43-2.19v3h3v-3h-3Zm-35.15,105.78l-1.71,2.25-2.99-2.25H60.16c-.14,0-.29-.01-.43-.02-.11-.01-.23-.03-.34-.06-.62-.13-1.19-.41-1.68-.82-1.06-.87-1.75-2.29-1.75-3.88V66.24c0-2.63,1.89-4.77,4.2-4.77h41.09c1.29,0,2.49,.66,3.3,1.82l5.12,7.4,.5,.72c.67,.97,1.54,1.74,2.52,2.28h43.24l-.61-2.17h-39.39c-.86,0-1.67-.29-2.36-.83-.35-.27-.67-.6-.94-.99l-5.62-8.12c-1.35-1.95-3.5-3.11-5.76-3.11H60.16c-3.97,0-7.2,3.48-7.2,7.77v106.28c0,3.65,2.33,6.72,5.48,7.56,0,0,.01,0,.02,0,.16,.03,.33,.07,.49,.1,.15,.03,.31,.06,.48,.07,.24,.03,.48,.04,.73,.04h59.12l1.15-1.52c.2-.27,.51-.41,.83-.41,.22,0,.44,.07,.62,.21l.36,.27,1.92,1.45h43.85v-3h-38.15Z"/><path class="e" d="M79.28,79.08c-.74-1.25-2.09-2.02-3.54-2.02-.12,0-.25,.01-.37,.02-.13,0-.25,.03-.37,.05-.08,.01-.15,.03-.23,.05-.08,.01-.15,.04-.23,.06-.08,.02-.16,.05-.23,.08-.04,.01-.07,.02-.11,.04-.04,.01-.08,.03-.11,.05-.13,.06-.27,.13-.4,.21-.11,.06-.22,.13-.32,.2-.06,.04-.12,.08-.17,.13-.1,.07-.19,.15-.27,.23-.1,.09-.19,.18-.27,.28-.07,.08-.14,.16-.2,.24-.06,.09-.12,.17-.18,.26-.12,.18-.22,.36-.3,.56-.04,.09-.08,.19-.11,.29h8.71c-.52,0-1.02-.26-1.3-.73Zm0,0c-.74-1.25-2.09-2.02-3.54-2.02-.12,0-.25,.01-.37,.02-.13,0-.25,.03-.37,.05-.08,.01-.15,.03-.23,.05-.08,.01-.15,.04-.23,.06-.08,.02-.16,.05-.23,.08-.04,.01-.07,.02-.11,.04-.04,.01-.08,.03-.11,.05-.13,.06-.27,.13-.4,.21-.11,.06-.22,.13-.32,.2-.06,.04-.12,.08-.17,.13-.1,.07-.19,.15-.27,.23-.1,.09-.19,.18-.27,.28-.07,.08-.14,.16-.2,.24-.06,.09-.12,.17-.18,.26-.12,.18-.22,.36-.3,.56-.04,.09-.08,.19-.11,.29h8.71c-.52,0-1.02-.26-1.3-.73Zm0,0c-.74-1.25-2.09-2.02-3.54-2.02-.12,0-.25,.01-.37,.02-.13,0-.25,.03-.37,.05-.08,.01-.15,.03-.23,.05-.08,.01-.15,.04-.23,.06-.08,.02-.16,.05-.23,.08-.04,.01-.07,.02-.11,.04-.04,.01-.08,.03-.11,.05-.13,.06-.27,.13-.4,.21-.11,.06-.22,.13-.32,.2-.06,.04-.12,.08-.17,.13-.1,.07-.19,.15-.27,.23-.1,.09-.19,.18-.27,.28-.07,.08-.14,.16-.2,.24-.06,.09-.12,.17-.18,.26-.12,.18-.22,.36-.3,.56-.04,.09-.08,.19-.11,.29h8.71c-.52,0-1.02-.26-1.3-.73Zm0,0c-.74-1.25-2.09-2.02-3.54-2.02-.12,0-.25,.01-.37,.02-.13,0-.25,.03-.37,.05-.08,.01-.15,.03-.23,.05-.08,.01-.15,.04-.23,.06-.08,.02-.16,.05-.23,.08-.04,.01-.07,.02-.11,.04-.04,.01-.08,.03-.11,.05-.13,.06-.27,.13-.4,.21-.11,.06-.22,.13-.32,.2-.06,.04-.12,.08-.17,.13-.1,.07-.19,.15-.27,.23-.1,.09-.19,.18-.27,.28-.07,.08-.14,.16-.2,.24-.06,.09-.12,.17-.18,.26-.12,.18-.22,.36-.3,.56-.04,.09-.08,.19-.11,.29h8.71c-.52,0-1.02-.26-1.3-.73Zm96.1-2.27v3h3v-3h-3Zm14.19,2.42c-.58-.59-1.53-.6-2.12-.02l-.61,.6h3.07c-.06-.21-.17-.41-.34-.58Zm12.12-1.56c-.83,0-1.5,.67-1.5,1.5,0,.23,.05,.45,.15,.64h4.78v-2.14h-3.43Zm-10.75-.86v3h3v-3h-3Zm-111.66,2.27c-.74-1.25-2.09-2.02-3.54-2.02-.12,0-.25,.01-.37,.02-.13,0-.25,.03-.37,.05-.08,.01-.15,.03-.23,.05-.08,.01-.15,.04-.23,.06-.08,.02-.16,.05-.23,.08-.04,.01-.07,.02-.11,.04-.04,.01-.08,.03-.11,.05-.13,.06-.27,.13-.4,.21-.11,.06-.22,.13-.32,.2-.06,.04-.12,.08-.17,.13-.1,.07-.19,.15-.27,.23-.1,.09-.19,.18-.27,.28-.07,.08-.14,.16-.2,.24-.06,.09-.12,.17-.18,.26-.12,.18-.22,.36-.3,.56-.04,.09-.08,.19-.11,.29h8.71c-.52,0-1.02-.26-1.3-.73Zm0,0c-.74-1.25-2.09-2.02-3.54-2.02-.12,0-.25,.01-.37,.02-.13,0-.25,.03-.37,.05-.08,.01-.15,.03-.23,.05-.08,.01-.15,.04-.23,.06-.08,.02-.16,.05-.23,.08-.04,.01-.07,.02-.11,.04-.04,.01-.08,.03-.11,.05-.13,.06-.27,.13-.4,.21-.11,.06-.22,.13-.32,.2-.06,.04-.12,.08-.17,.13-.1,.07-.19,.15-.27,.23-.1,.09-.19,.18-.27,.28-.07,.08-.14,.16-.2,.24-.06,.09-.12,.17-.18,.26-.12,.18-.22,.36-.3,.56-.04,.09-.08,.19-.11,.29h8.71c-.52,0-1.02-.26-1.3-.73Zm0,0c-.74-1.25-2.09-2.02-3.54-2.02-.12,0-.25,.01-.37,.02-.13,0-.25,.03-.37,.05-.08,.01-.15,.03-.23,.05-.08,.01-.15,.04-.23,.06-.08,.02-.16,.05-.23,.08-.04,.01-.07,.02-.11,.04-.04,.01-.08,.03-.11,.05-.13,.06-.27,.13-.4,.21-.11,.06-.22,.13-.32,.2-.06,.04-.12,.08-.17,.13-.1,.07-.19,.15-.27,.23-.1,.09-.19,.18-.27,.28-.07,.08-.14,.16-.2,.24-.06,.09-.12,.17-.18,.26-.12,.18-.22,.36-.3,.56-.04,.09-.08,.19-.11,.29h8.71c-.52,0-1.02-.26-1.3-.73Zm96.1-2.27v3h3v-3h-3Zm14.19,2.42c-.58-.59-1.53-.6-2.12-.02l-.61,.6h3.07c-.06-.21-.17-.41-.34-.58Zm12.12-1.56c-.83,0-1.5,.67-1.5,1.5,0,.23,.05,.45,.15,.64h4.78v-2.14h-3.43Zm-10.75-.86v3h3v-3h-3Zm-111.66,2.27c-.74-1.25-2.09-2.02-3.54-2.02-.12,0-.25,.01-.37,.02-.13,0-.25,.03-.37,.05-.08,.01-.15,.03-.23,.05-.08,.01-.15,.04-.23,.06-.08,.02-.16,.05-.23,.08-.04,.01-.07,.02-.11,.04-.04,.01-.08,.03-.11,.05-.13,.06-.27,.13-.4,.21-.11,.06-.22,.13-.32,.2-.06,.04-.12,.08-.17,.13-.1,.07-.19,.15-.27,.23-.1,.09-.19,.18-.27,.28-.07,.08-.14,.16-.2,.24-.06,.09-.12,.17-.18,.26-.12,.18-.22,.36-.3,.56-.04,.09-.08,.19-.11,.29h8.71c-.52,0-1.02-.26-1.3-.73Zm83.76-2.27h-3.02l.4,3h3.03l-.41-3Zm12.34,0v3h3v-3h-3Zm14.19,2.42c-.58-.59-1.53-.6-2.12-.02l-.61,.6h3.07c-.06-.21-.17-.41-.34-.58Zm20.15-1.18c-.21-.13-.42-.26-.64-.38h-7.39c-.83,0-1.5,.67-1.5,1.5,0,.23,.05,.45,.15,.64h5.33c.92,0,1.76,.29,2.45,.8,.03,.01,.06,.03,.09,.06h3.83c-.55-1.05-1.35-1.95-2.32-2.62Zm.15,34.26v3h3v-3h-3Zm0-7.65v3h3v-3h-3Zm0,26.99v3h3v-3h-3Zm0,26.98v3h3v-3h-3Zm0,7.66v3h3v-3h-3Zm0-26.99v3h3v-3h-3Zm0-53.98v3h3v-3h-3Zm-18.93-8.51v3h3v-3h-3Zm-25.93,0v3h3v-3h-3Zm-35.15,100.49l-1.71,2.25-2.99-2.25H60.16c-.14,0-.29-.01-.43-.02-.11-.01-.23-.03-.34-.06-.62-.11-1.19-.35-1.68-.71-1.06-.76-1.75-2.01-1.75-3.41V84.01c0-1.4,.69-2.65,1.75-3.4,.69-.51,1.53-.8,2.45-.8h97.48l-.84-3H60.16c-.86,0-1.68,.15-2.45,.44-.63,.22-1.22,.53-1.75,.93-1.82,1.3-3,3.43-3,5.83v89.09c0,3.38,2.34,6.22,5.48,6.98,0,0,.01,0,.02,0,.16,.03,.33,.07,.49,.1,.15,.03,.31,.06,.48,.07,.24,.03,.48,.04,.73,.04h59.12l1.15-1.52c.2-.27,.51-.41,.83-.41,.22,0,.44,.07,.62,.21l.36,.27,1.92,1.45h43.85v-3h-38.15Zm-50.58-98.22c-.74-1.25-2.09-2.02-3.54-2.02-.12,0-.25,.01-.37,.02-.13,0-.25,.03-.37,.05-.08,.01-.15,.03-.23,.05-.08,.01-.15,.04-.23,.06-.08,.02-.16,.05-.23,.08-.04,.01-.07,.02-.11,.04-.04,.01-.08,.03-.11,.05-.13,.06-.27,.13-.4,.21-.11,.06-.22,.13-.32,.2-.06,.04-.12,.08-.17,.13-.1,.07-.19,.15-.27,.23-.1,.09-.19,.18-.27,.28-.07,.08-.14,.16-.2,.24-.06,.09-.12,.17-.18,.26-.12,.18-.22,.36-.3,.56-.04,.09-.08,.19-.11,.29h8.71c-.52,0-1.02-.26-1.3-.73Zm0,0c-.74-1.25-2.09-2.02-3.54-2.02-.12,0-.25,.01-.37,.02-.13,0-.25,.03-.37,.05-.08,.01-.15,.03-.23,.05-.08,.01-.15,.04-.23,.06-.08,.02-.16,.05-.23,.08-.04,.01-.07,.02-.11,.04-.04,.01-.08,.03-.11,.05-.13,.06-.27,.13-.4,.21-.11,.06-.22,.13-.32,.2-.06,.04-.12,.08-.17,.13-.1,.07-.19,.15-.27,.23-.1,.09-.19,.18-.27,.28-.07,.08-.14,.16-.2,.24-.06,.09-.12,.17-.18,.26-.12,.18-.22,.36-.3,.56-.04,.09-.08,.19-.11,.29h8.71c-.52,0-1.02-.26-1.3-.73Zm0,0c-.74-1.25-2.09-2.02-3.54-2.02-.12,0-.25,.01-.37,.02-.13,0-.25,.03-.37,.05-.08,.01-.15,.03-.23,.05-.08,.01-.15,.04-.23,.06-.08,.02-.16,.05-.23,.08-.04,.01-.07,.02-.11,.04-.04,.01-.08,.03-.11,.05-.13,.06-.27,.13-.4,.21-.11,.06-.22,.13-.32,.2-.06,.04-.12,.08-.17,.13-.1,.07-.19,.15-.27,.23-.1,.09-.19,.18-.27,.28-.07,.08-.14,.16-.2,.24-.06,.09-.12,.17-.18,.26-.12,.18-.22,.36-.3,.56-.04,.09-.08,.19-.11,.29h8.71c-.52,0-1.02-.26-1.3-.73Zm0,0c-.74-1.25-2.09-2.02-3.54-2.02-.12,0-.25,.01-.37,.02-.13,0-.25,.03-.37,.05-.08,.01-.15,.03-.23,.05-.08,.01-.15,.04-.23,.06-.08,.02-.16,.05-.23,.08-.04,.01-.07,.02-.11,.04-.04,.01-.08,.03-.11,.05-.13,.06-.27,.13-.4,.21-.11,.06-.22,.13-.32,.2-.06,.04-.12,.08-.17,.13-.1,.07-.19,.15-.27,.23-.1,.09-.19,.18-.27,.28-.07,.08-.14,.16-.2,.24-.06,.09-.12,.17-.18,.26-.12,.18-.22,.36-.3,.56-.04,.09-.08,.19-.11,.29h8.71c-.52,0-1.02-.26-1.3-.73Zm0,0c-.74-1.25-2.09-2.02-3.54-2.02-.12,0-.25,.01-.37,.02-.13,0-.25,.03-.37,.05-.08,.01-.15,.03-.23,.05-.08,.01-.15,.04-.23,.06-.08,.02-.16,.05-.23,.08-.04,.01-.07,.02-.11,.04-.04,.01-.08,.03-.11,.05-.13,.06-.27,.13-.4,.21-.11,.06-.22,.13-.32,.2-.06,.04-.12,.08-.17,.13-.1,.07-.19,.15-.27,.23-.1,.09-.19,.18-.27,.28-.07,.08-.14,.16-.2,.24-.06,.09-.12,.17-.18,.26-.12,.18-.22,.36-.3,.56-.04,.09-.08,.19-.11,.29h8.71c-.52,0-1.02-.26-1.3-.73Zm0,0c-.74-1.25-2.09-2.02-3.54-2.02-.12,0-.25,.01-.37,.02-.13,0-.25,.03-.37,.05-.08,.01-.15,.03-.23,.05-.08,.01-.15,.04-.23,.06-.08,.02-.16,.05-.23,.08-.04,.01-.07,.02-.11,.04-.04,.01-.08,.03-.11,.05-.13,.06-.27,.13-.4,.21-.11,.06-.22,.13-.32,.2-.06,.04-.12,.08-.17,.13-.1,.07-.19,.15-.27,.23-.1,.09-.19,.18-.27,.28-.07,.08-.14,.16-.2,.24-.06,.09-.12,.17-.18,.26-.12,.18-.22,.36-.3,.56-.04,.09-.08,.19-.11,.29h8.71c-.52,0-1.02-.26-1.3-.73Zm0,0c-.74-1.25-2.09-2.02-3.54-2.02-.12,0-.25,.01-.37,.02-.13,0-.25,.03-.37,.05-.08,.01-.15,.03-.23,.05-.08,.01-.15,.04-.23,.06-.08,.02-.16,.05-.23,.08-.04,.01-.07,.02-.11,.04-.04,.01-.08,.03-.11,.05-.13,.06-.27,.13-.4,.21-.11,.06-.22,.13-.32,.2-.06,.04-.12,.08-.17,.13-.1,.07-.19,.15-.27,.23-.1,.09-.19,.18-.27,.28-.07,.08-.14,.16-.2,.24-.06,.09-.12,.17-.18,.26-.12,.18-.22,.36-.3,.56-.04,.09-.08,.19-.11,.29h8.71c-.52,0-1.02-.26-1.3-.73Zm0,0c-.74-1.25-2.09-2.02-3.54-2.02-.12,0-.25,.01-.37,.02-.13,0-.25,.03-.37,.05-.08,.01-.15,.03-.23,.05-.08,.01-.15,.04-.23,.06-.08,.02-.16,.05-.23,.08-.04,.01-.07,.02-.11,.04-.04,.01-.08,.03-.11,.05-.13,.06-.27,.13-.4,.21-.11,.06-.22,.13-.32,.2-.06,.04-.12,.08-.17,.13-.1,.07-.19,.15-.27,.23-.1,.09-.19,.18-.27,.28-.07,.08-.14,.16-.2,.24-.06,.09-.12,.17-.18,.26-.12,.18-.22,.36-.3,.56-.04,.09-.08,.19-.11,.29h8.71c-.52,0-1.02-.26-1.3-.73Z"/><path class="e" d="M175.63,155.36l-.92-3.27c-.07,.29-.14,.59-.22,.88-.22,.81-.48,1.61-.77,2.39h0c-.63,1.68-1.43,3.26-2.38,4.73l.58,4.28c.95-1.13,1.79-2.34,2.54-3.62,.33-.55,.63-1.12,.92-1.7,.29-.57,.55-1.15,.79-1.74l-.54-1.95Zm0,0l-.92-3.27c-.07,.29-.14,.59-.22,.88-.22,.81-.48,1.61-.77,2.39h0c-.63,1.68-1.43,3.26-2.38,4.73l.58,4.28c.95-1.13,1.79-2.34,2.54-3.62,.33-.55,.63-1.12,.92-1.7,.29-.57,.55-1.15,.79-1.74l-.54-1.95Zm0,0l-.92-3.27c-.07,.29-.14,.59-.22,.88-.22,.81-.48,1.61-.77,2.39h0c-.63,1.68-1.43,3.26-2.38,4.73-.95,1.5-2.07,2.88-3.33,4.14-.93,.93-1.93,1.79-3,2.57-.75,.55-1.54,1.07-2.36,1.54-5.87,3.38-12.71,4.27-19.25,2.5-1.33-.36-2.62-.82-3.86-1.38-.93-.41-1.83-.89-2.69-1.41-1.47-.89-2.84-1.92-4.1-3.1l-1.82,2.4c1.26,1.17,2.63,2.2,4.09,3.11,.86,.53,1.75,1.02,2.67,1.45,1.57,.76,3.22,1.37,4.93,1.83,2.46,.66,4.95,.99,7.43,.99,4.9,0,9.73-1.28,14.1-3.78,.29-.17,.58-.34,.86-.53,1.05-.64,2.05-1.36,3-2.14,1.44-1.17,2.75-2.48,3.91-3.91,.95-1.13,1.79-2.34,2.54-3.62,.33-.55,.63-1.12,.92-1.7,.29-.57,.55-1.15,.79-1.74l-.54-1.95Zm0,0l-.92-3.27c-.07,.29-.14,.59-.22,.88-.22,.81-.48,1.61-.77,2.39h0c-.63,1.68-1.43,3.26-2.38,4.73-.95,1.5-2.07,2.88-3.33,4.14-.93,.93-1.93,1.79-3,2.57-.75,.55-1.54,1.07-2.36,1.54-5.87,3.38-12.71,4.27-19.25,2.5-1.33-.36-2.62-.82-3.86-1.38-.93-.41-1.83-.89-2.69-1.41-1.47-.89-2.84-1.92-4.1-3.1l-1.82,2.4c1.26,1.17,2.63,2.2,4.09,3.11,.86,.53,1.75,1.02,2.67,1.45,1.57,.76,3.22,1.37,4.93,1.83,2.46,.66,4.95,.99,7.43,.99,4.9,0,9.73-1.28,14.1-3.78,.29-.17,.58-.34,.86-.53,1.05-.64,2.05-1.36,3-2.14,1.44-1.17,2.75-2.48,3.91-3.91,.95-1.13,1.79-2.34,2.54-3.62,.33-.55,.63-1.12,.92-1.7,.29-.57,.55-1.15,.79-1.74l-.54-1.95Zm-.25-21.64c-1.19-2.38-2.7-4.6-4.51-6.56-.37-.41-.75-.8-1.14-1.18l.73,5.39c1.36,1.86,2.47,3.9,3.28,6.07,.52,1.39,.93,2.83,1.2,4.3,.63,3.34,.59,6.85-.23,10.35-.07,.29-.14,.59-.22,.88-.22,.81-.48,1.61-.77,2.39h0c-.63,1.68-1.43,3.26-2.38,4.73-.95,1.5-2.07,2.88-3.33,4.14-.93,.93-1.93,1.79-3,2.57-.75,.55-1.54,1.07-2.36,1.54-5.87,3.38-12.71,4.27-19.25,2.5-1.33-.36-2.62-.82-3.86-1.38-.93-.41-1.83-.89-2.69-1.41-1.47-.89-2.84-1.92-4.1-3.1l-1.82,2.4c1.26,1.17,2.63,2.2,4.09,3.11,.86,.53,1.75,1.02,2.67,1.45,1.57,.76,3.22,1.37,4.93,1.83,2.46,.66,4.95,.99,7.43,.99,4.9,0,9.73-1.28,14.1-3.78,.29-.17,.58-.34,.86-.53,1.05-.64,2.05-1.36,3-2.14,1.44-1.17,2.75-2.48,3.91-3.91,.95-1.13,1.79-2.34,2.54-3.62,.33-.55,.63-1.12,.92-1.7,.29-.57,.55-1.15,.79-1.74,.36-.85,.68-1.73,.95-2.63,.1-.31,.19-.62,.27-.93,.16-.58,.3-1.17,.42-1.75,.39-1.92,.57-3.84,.56-5.74-.02-4.41-1.07-8.7-2.99-12.54Zm0,0c-1.19-2.38-2.7-4.6-4.51-6.56-.37-.41-.75-.8-1.14-1.18l.73,5.39c1.36,1.86,2.47,3.9,3.28,6.07,.52,1.39,.93,2.83,1.2,4.3,.63,3.34,.59,6.85-.23,10.35-.07,.29-.14,.59-.22,.88-.22,.81-.48,1.61-.77,2.39h0c-.63,1.68-1.43,3.26-2.38,4.73-.95,1.5-2.07,2.88-3.33,4.14-.93,.93-1.93,1.79-3,2.57-.75,.55-1.54,1.07-2.36,1.54-5.87,3.38-12.71,4.27-19.25,2.5-1.33-.36-2.62-.82-3.86-1.38-.93-.41-1.83-.89-2.69-1.41-1.47-.89-2.84-1.92-4.1-3.1l-1.82,2.4c1.26,1.17,2.63,2.2,4.09,3.11,.86,.53,1.75,1.02,2.67,1.45,1.57,.76,3.22,1.37,4.93,1.83,2.46,.66,4.95,.99,7.43,.99,4.9,0,9.73-1.28,14.1-3.78,.29-.17,.58-.34,.86-.53,1.05-.64,2.05-1.36,3-2.14,1.44-1.17,2.75-2.48,3.91-3.91,.95-1.13,1.79-2.34,2.54-3.62,.33-.55,.63-1.12,.92-1.7,.29-.57,.55-1.15,.79-1.74,.36-.85,.68-1.73,.95-2.63,.1-.31,.19-.62,.27-.93,.16-.58,.3-1.17,.42-1.75,.39-1.92,.57-3.84,.56-5.74-.02-4.41-1.07-8.7-2.99-12.54Zm0,0c-1.19-2.38-2.7-4.6-4.51-6.56-.37-.41-.75-.8-1.14-1.18l.73,5.39c1.36,1.86,2.47,3.9,3.28,6.07,.52,1.39,.93,2.83,1.2,4.3,.63,3.34,.59,6.85-.23,10.35-.07,.29-.14,.59-.22,.88-.22,.81-.48,1.61-.77,2.39h0c-.63,1.68-1.43,3.26-2.38,4.73-.95,1.5-2.07,2.88-3.33,4.14-.93,.93-1.93,1.79-3,2.57-.75,.55-1.54,1.07-2.36,1.54-5.87,3.38-12.71,4.27-19.25,2.5-1.33-.36-2.62-.82-3.86-1.38-.93-.41-1.83-.89-2.69-1.41-1.47-.89-2.84-1.92-4.1-3.1l-1.82,2.4c1.26,1.17,2.63,2.2,4.09,3.11,.86,.53,1.75,1.02,2.67,1.45,1.57,.76,3.22,1.37,4.93,1.83,2.46,.66,4.95,.99,7.43,.99,4.9,0,9.73-1.28,14.1-3.78,.29-.17,.58-.34,.86-.53,1.05-.64,2.05-1.36,3-2.14,1.44-1.17,2.75-2.48,3.91-3.91,.95-1.13,1.79-2.34,2.54-3.62,.33-.55,.63-1.12,.92-1.7,.29-.57,.55-1.15,.79-1.74,.36-.85,.68-1.73,.95-2.63,.1-.31,.19-.62,.27-.93,.16-.58,.3-1.17,.42-1.75,.39-1.92,.57-3.84,.56-5.74-.02-4.41-1.07-8.7-2.99-12.54Zm0,0c-1.19-2.38-2.7-4.6-4.51-6.56-.37-.41-.75-.8-1.14-1.18l.73,5.39c1.36,1.86,2.47,3.9,3.28,6.07,.52,1.39,.93,2.83,1.2,4.3,.63,3.34,.59,6.85-.23,10.35-.07,.29-.14,.59-.22,.88-.22,.81-.48,1.61-.77,2.39h0c-.63,1.68-1.43,3.26-2.38,4.73-.95,1.5-2.07,2.88-3.33,4.14-.93,.93-1.93,1.79-3,2.57-.75,.55-1.54,1.07-2.36,1.54-5.87,3.38-12.71,4.27-19.25,2.5-1.33-.36-2.62-.82-3.86-1.38-.93-.41-1.83-.89-2.69-1.41-1.47-.89-2.84-1.92-4.1-3.1l-1.82,2.4c1.26,1.17,2.63,2.2,4.09,3.11,.86,.53,1.75,1.02,2.67,1.45,1.57,.76,3.22,1.37,4.93,1.83,2.46,.66,4.95,.99,7.43,.99,4.9,0,9.73-1.28,14.1-3.78,.29-.17,.58-.34,.86-.53,1.05-.64,2.05-1.36,3-2.14,1.44-1.17,2.75-2.48,3.91-3.91,.95-1.13,1.79-2.34,2.54-3.62,.33-.55,.63-1.12,.92-1.7,.29-.57,.55-1.15,.79-1.74,.36-.85,.68-1.73,.95-2.63,.1-.31,.19-.62,.27-.93,.16-.58,.3-1.17,.42-1.75,.39-1.92,.57-3.84,.56-5.74-.02-4.41-1.07-8.7-2.99-12.54Zm-42.63,31.23l-1.82,2.4c1.26,1.17,2.63,2.2,4.09,3.11l1.83-2.41c-1.47-.89-2.84-1.92-4.1-3.1Zm0,0l-1.82,2.4c1.26,1.17,2.63,2.2,4.09,3.11l1.83-2.41c-1.47-.89-2.84-1.92-4.1-3.1Zm0,0l-1.82,2.4c1.26,1.17,2.63,2.2,4.09,3.11l1.83-2.41c-1.47-.89-2.84-1.92-4.1-3.1Zm0,0l-1.82,2.4c1.26,1.17,2.63,2.2,4.09,3.11l1.83-2.41c-1.47-.89-2.84-1.92-4.1-3.1Zm0,0l-1.82,2.4c1.26,1.17,2.63,2.2,4.09,3.11l1.83-2.41c-1.47-.89-2.84-1.92-4.1-3.1Zm0,0l-1.82,2.4c1.26,1.17,2.63,2.2,4.09,3.11l1.83-2.41c-1.47-.89-2.84-1.92-4.1-3.1Zm0,0l-1.82,2.4c1.26,1.17,2.63,2.2,4.09,3.11l1.83-2.41c-1.47-.89-2.84-1.92-4.1-3.1Zm0,0l-1.82,2.4c1.26,1.17,2.63,2.2,4.09,3.11l1.83-2.41c-1.47-.89-2.84-1.92-4.1-3.1Zm0,0l-1.82,2.4c1.26,1.17,2.63,2.2,4.09,3.11l1.83-2.41c-1.47-.89-2.84-1.92-4.1-3.1Zm0,0l-1.82,2.4c1.26,1.17,2.63,2.2,4.09,3.11l1.83-2.41c-1.47-.89-2.84-1.92-4.1-3.1Zm0,0l-1.82,2.4c1.26,1.17,2.63,2.2,4.09,3.11l1.83-2.41c-1.47-.89-2.84-1.92-4.1-3.1Zm0,0l-1.82,2.4c1.26,1.17,2.63,2.2,4.09,3.11l1.83-2.41c-1.47-.89-2.84-1.92-4.1-3.1Zm0,0l-1.82,2.4c1.26,1.17,2.63,2.2,4.09,3.11l1.83-2.41c-1.47-.89-2.84-1.92-4.1-3.1Zm0,0l-1.82,2.4c1.26,1.17,2.63,2.2,4.09,3.11l1.83-2.41c-1.47-.89-2.84-1.92-4.1-3.1Zm42.63-31.23c-1.19-2.38-2.7-4.6-4.51-6.56-.37-.41-.75-.8-1.14-1.18-.55-.54-1.12-1.05-1.72-1.53-.42-.36-.85-.69-1.3-1.02-.13-.09-.26-.19-.39-.27-.43-.31-.86-.6-1.31-.88-2.3-1.44-4.86-2.57-7.61-3.31-2.46-.66-4.94-.98-7.38-.98-12.5,0-23.99,8.34-27.4,20.98-1.97,7.31-.98,14.96,2.8,21.52,.97,1.7,2.1,3.27,3.38,4.7,.67,.77,1.38,1.49,2.13,2.16,1.26,1.17,2.63,2.2,4.09,3.11,.86,.53,1.75,1.02,2.67,1.45,1.57,.76,3.22,1.37,4.93,1.83,2.46,.66,4.95,.99,7.43,.99,4.9,0,9.73-1.28,14.1-3.78,.29-.17,.58-.34,.86-.53,1.05-.64,2.05-1.36,3-2.14,1.44-1.17,2.75-2.48,3.91-3.91,.95-1.13,1.79-2.34,2.54-3.62,.33-.55,.63-1.12,.92-1.7,.29-.57,.55-1.15,.79-1.74,.36-.85,.68-1.73,.95-2.63,.1-.31,.19-.62,.27-.93,.16-.58,.3-1.17,.42-1.75,.39-1.92,.57-3.84,.56-5.74-.02-4.41-1.07-8.7-2.99-12.54Zm-.89,19.25c-.22,.81-.48,1.61-.77,2.39h0c-.63,1.68-1.43,3.26-2.38,4.73-.95,1.5-2.07,2.88-3.33,4.14-.93,.93-1.93,1.79-3,2.57-.75,.55-1.54,1.07-2.36,1.54-5.87,3.38-12.71,4.27-19.25,2.5-1.33-.36-2.62-.82-3.86-1.38-.93-.41-1.83-.89-2.69-1.41-1.47-.89-2.84-1.92-4.1-3.1-.74-.69-1.45-1.43-2.1-2.21-.98-1.16-1.86-2.41-2.63-3.74-3.38-5.87-4.26-12.71-2.5-19.25,3.64-13.5,17.59-21.53,31.1-17.88,2.41,.65,4.65,1.63,6.67,2.88,.59,.36,1.17,.74,1.72,1.15,.66,.48,1.29,1,1.89,1.54l.27,.25c.29,.26,.57,.53,.84,.81l.15,.15c.83,.85,1.6,1.76,2.3,2.72,1.36,1.86,2.47,3.9,3.28,6.07,.52,1.39,.93,2.83,1.2,4.3,.63,3.34,.59,6.85-.23,10.35-.07,.29-.14,.59-.22,.88Zm-41.74,11.98l-1.82,2.4c1.26,1.17,2.63,2.2,4.09,3.11l1.83-2.41c-1.47-.89-2.84-1.92-4.1-3.1Zm0,0l-1.82,2.4c1.26,1.17,2.63,2.2,4.09,3.11l1.83-2.41c-1.47-.89-2.84-1.92-4.1-3.1Zm0,0l-1.82,2.4c1.26,1.17,2.63,2.2,4.09,3.11l1.83-2.41c-1.47-.89-2.84-1.92-4.1-3.1Zm0,0l-1.82,2.4c1.26,1.17,2.63,2.2,4.09,3.11l1.83-2.41c-1.47-.89-2.84-1.92-4.1-3.1Zm0,0l-1.82,2.4c1.26,1.17,2.63,2.2,4.09,3.11l1.83-2.41c-1.47-.89-2.84-1.92-4.1-3.1Zm0,0l-1.82,2.4c1.26,1.17,2.63,2.2,4.09,3.11l1.83-2.41c-1.47-.89-2.84-1.92-4.1-3.1Zm0,0l-1.82,2.4c1.26,1.17,2.63,2.2,4.09,3.11l1.83-2.41c-1.47-.89-2.84-1.92-4.1-3.1Zm0,0l-1.82,2.4c1.26,1.17,2.63,2.2,4.09,3.11l1.83-2.41c-1.47-.89-2.84-1.92-4.1-3.1Zm0,0l-1.82,2.4c1.26,1.17,2.63,2.2,4.09,3.11l1.83-2.41c-1.47-.89-2.84-1.92-4.1-3.1Zm0,0l-1.82,2.4c1.26,1.17,2.63,2.2,4.09,3.11l1.83-2.41c-1.47-.89-2.84-1.92-4.1-3.1Zm0,0l-1.82,2.4c1.26,1.17,2.63,2.2,4.09,3.11l1.83-2.41c-1.47-.89-2.84-1.92-4.1-3.1Zm0,0l-1.82,2.4c1.26,1.17,2.63,2.2,4.09,3.11l1.83-2.41c-1.47-.89-2.84-1.92-4.1-3.1Zm0,0l-1.82,2.4c1.26,1.17,2.63,2.2,4.09,3.11l1.83-2.41c-1.47-.89-2.84-1.92-4.1-3.1Zm0,0l-1.82,2.4c1.26,1.17,2.63,2.2,4.09,3.11l1.83-2.41c-1.47-.89-2.84-1.92-4.1-3.1Zm42.63-31.23c-1.19-2.38-2.7-4.6-4.51-6.56-.37-.41-.75-.8-1.14-1.18l.73,5.39c1.36,1.86,2.47,3.9,3.28,6.07,.52,1.39,.93,2.83,1.2,4.3,.63,3.34,.59,6.85-.23,10.35-.07,.29-.14,.59-.22,.88-.22,.81-.48,1.61-.77,2.39h0c-.63,1.68-1.43,3.26-2.38,4.73-.95,1.5-2.07,2.88-3.33,4.14-.93,.93-1.93,1.79-3,2.57-.75,.55-1.54,1.07-2.36,1.54-5.87,3.38-12.71,4.27-19.25,2.5-1.33-.36-2.62-.82-3.86-1.38-.93-.41-1.83-.89-2.69-1.41-1.47-.89-2.84-1.92-4.1-3.1l-1.82,2.4c1.26,1.17,2.63,2.2,4.09,3.11,.86,.53,1.75,1.02,2.67,1.45,1.57,.76,3.22,1.37,4.93,1.83,2.46,.66,4.95,.99,7.43,.99,4.9,0,9.73-1.28,14.1-3.78,.29-.17,.58-.34,.86-.53,1.05-.64,2.05-1.36,3-2.14,1.44-1.17,2.75-2.48,3.91-3.91,.95-1.13,1.79-2.34,2.54-3.62,.33-.55,.63-1.12,.92-1.7,.29-.57,.55-1.15,.79-1.74,.36-.85,.68-1.73,.95-2.63,.1-.31,.19-.62,.27-.93,.16-.58,.3-1.17,.42-1.75,.39-1.92,.57-3.84,.56-5.74-.02-4.41-1.07-8.7-2.99-12.54Zm0,0c-1.19-2.38-2.7-4.6-4.51-6.56-.37-.41-.75-.8-1.14-1.18l.73,5.39c1.36,1.86,2.47,3.9,3.28,6.07,.52,1.39,.93,2.83,1.2,4.3,.63,3.34,.59,6.85-.23,10.35-.07,.29-.14,.59-.22,.88-.22,.81-.48,1.61-.77,2.39h0c-.63,1.68-1.43,3.26-2.38,4.73-.95,1.5-2.07,2.88-3.33,4.14-.93,.93-1.93,1.79-3,2.57-.75,.55-1.54,1.07-2.36,1.54-5.87,3.38-12.71,4.27-19.25,2.5-1.33-.36-2.62-.82-3.86-1.38-.93-.41-1.83-.89-2.69-1.41-1.47-.89-2.84-1.92-4.1-3.1l-1.82,2.4c1.26,1.17,2.63,2.2,4.09,3.11,.86,.53,1.75,1.02,2.67,1.45,1.57,.76,3.22,1.37,4.93,1.83,2.46,.66,4.95,.99,7.43,.99,4.9,0,9.73-1.28,14.1-3.78,.29-.17,.58-.34,.86-.53,1.05-.64,2.05-1.36,3-2.14,1.44-1.17,2.75-2.48,3.91-3.91,.95-1.13,1.79-2.34,2.54-3.62,.33-.55,.63-1.12,.92-1.7,.29-.57,.55-1.15,.79-1.74,.36-.85,.68-1.73,.95-2.63,.1-.31,.19-.62,.27-.93,.16-.58,.3-1.17,.42-1.75,.39-1.92,.57-3.84,.56-5.74-.02-4.41-1.07-8.7-2.99-12.54Zm0,0c-1.19-2.38-2.7-4.6-4.51-6.56-.37-.41-.75-.8-1.14-1.18l.73,5.39c1.36,1.86,2.47,3.9,3.28,6.07,.52,1.39,.93,2.83,1.2,4.3,.63,3.34,.59,6.85-.23,10.35-.07,.29-.14,.59-.22,.88-.22,.81-.48,1.61-.77,2.39h0c-.63,1.68-1.43,3.26-2.38,4.73-.95,1.5-2.07,2.88-3.33,4.14-.93,.93-1.93,1.79-3,2.57-.75,.55-1.54,1.07-2.36,1.54-5.87,3.38-12.71,4.27-19.25,2.5-1.33-.36-2.62-.82-3.86-1.38-.93-.41-1.83-.89-2.69-1.41-1.47-.89-2.84-1.92-4.1-3.1l-1.82,2.4c1.26,1.17,2.63,2.2,4.09,3.11,.86,.53,1.75,1.02,2.67,1.45,1.57,.76,3.22,1.37,4.93,1.83,2.46,.66,4.95,.99,7.43,.99,4.9,0,9.73-1.28,14.1-3.78,.29-.17,.58-.34,.86-.53,1.05-.64,2.05-1.36,3-2.14,1.44-1.17,2.75-2.48,3.91-3.91,.95-1.13,1.79-2.34,2.54-3.62,.33-.55,.63-1.12,.92-1.7,.29-.57,.55-1.15,.79-1.74,.36-.85,.68-1.73,.95-2.63,.1-.31,.19-.62,.27-.93,.16-.58,.3-1.17,.42-1.75,.39-1.92,.57-3.84,.56-5.74-.02-4.41-1.07-8.7-2.99-12.54Zm0,0c-1.19-2.38-2.7-4.6-4.51-6.56-.37-.41-.75-.8-1.14-1.18l.73,5.39c1.36,1.86,2.47,3.9,3.28,6.07,.52,1.39,.93,2.83,1.2,4.3,.63,3.34,.59,6.85-.23,10.35-.07,.29-.14,.59-.22,.88-.22,.81-.48,1.61-.77,2.39h0c-.63,1.68-1.43,3.26-2.38,4.73-.95,1.5-2.07,2.88-3.33,4.14-.93,.93-1.93,1.79-3,2.57-.75,.55-1.54,1.07-2.36,1.54-5.87,3.38-12.71,4.27-19.25,2.5-1.33-.36-2.62-.82-3.86-1.38-.93-.41-1.83-.89-2.69-1.41-1.47-.89-2.84-1.92-4.1-3.1l-1.82,2.4c1.26,1.17,2.63,2.2,4.09,3.11,.86,.53,1.75,1.02,2.67,1.45,1.57,.76,3.22,1.37,4.93,1.83,2.46,.66,4.95,.99,7.43,.99,4.9,0,9.73-1.28,14.1-3.78,.29-.17,.58-.34,.86-.53,1.05-.64,2.05-1.36,3-2.14,1.44-1.17,2.75-2.48,3.91-3.91,.95-1.13,1.79-2.34,2.54-3.62,.33-.55,.63-1.12,.92-1.7,.29-.57,.55-1.15,.79-1.74,.36-.85,.68-1.73,.95-2.63,.1-.31,.19-.62,.27-.93,.16-.58,.3-1.17,.42-1.75,.39-1.92,.57-3.84,.56-5.74-.02-4.41-1.07-8.7-2.99-12.54Zm.25,21.64l-.92-3.27c-.07,.29-.14,.59-.22,.88-.22,.81-.48,1.61-.77,2.39h0c-.63,1.68-1.43,3.26-2.38,4.73-.95,1.5-2.07,2.88-3.33,4.14-.93,.93-1.93,1.79-3,2.57-.75,.55-1.54,1.07-2.36,1.54-5.87,3.38-12.71,4.27-19.25,2.5-1.33-.36-2.62-.82-3.86-1.38-.93-.41-1.83-.89-2.69-1.41-1.47-.89-2.84-1.92-4.1-3.1l-1.82,2.4c1.26,1.17,2.63,2.2,4.09,3.11,.86,.53,1.75,1.02,2.67,1.45,1.57,.76,3.22,1.37,4.93,1.83,2.46,.66,4.95,.99,7.43,.99,4.9,0,9.73-1.28,14.1-3.78,.29-.17,.58-.34,.86-.53,1.05-.64,2.05-1.36,3-2.14,1.44-1.17,2.75-2.48,3.91-3.91,.95-1.13,1.79-2.34,2.54-3.62,.33-.55,.63-1.12,.92-1.7,.29-.57,.55-1.15,.79-1.74l-.54-1.95Zm0,0l-.92-3.27c-.07,.29-.14,.59-.22,.88-.22,.81-.48,1.61-.77,2.39h0c-.63,1.68-1.43,3.26-2.38,4.73l.58,4.28c.95-1.13,1.79-2.34,2.54-3.62,.33-.55,.63-1.12,.92-1.7,.29-.57,.55-1.15,.79-1.74l-.54-1.95Zm0,0l-.92-3.27c-.07,.29-.14,.59-.22,.88-.22,.81-.48,1.61-.77,2.39h0c-.63,1.68-1.43,3.26-2.38,4.73l.58,4.28c.95-1.13,1.79-2.34,2.54-3.62,.33-.55,.63-1.12,.92-1.7,.29-.57,.55-1.15,.79-1.74l-.54-1.95Z"/><path class="e" d="M141.22,162.25l-1.82,2.41c.87,.51,1.79,.96,2.75,1.34l1.89-2.5c-.99-.34-1.93-.76-2.82-1.25Zm0,0l-1.82,2.41c.87,.51,1.79,.96,2.75,1.34l1.89-2.5c-.99-.34-1.93-.76-2.82-1.25Zm26.79-26.97s-.03-.07-.06-.1c-.37-.6-.77-1.18-1.21-1.74-.53-.7-1.11-1.37-1.73-1.99-.12-.13-.25-.26-.38-.38-1.18-1.13-2.48-2.12-3.91-2.96-.9-.53-1.86-1-2.85-1.39-.76-.31-1.54-.57-2.35-.79-5.45-1.47-11.16-.73-16.06,2.08-4.9,2.82-8.41,7.38-9.88,12.83-1.79,6.63-.21,13.38,3.69,18.43,.61,.81,1.29,1.58,2.03,2.29,1.22,1.19,2.59,2.23,4.1,3.1,.87,.51,1.79,.96,2.75,1.34,.75,.3,1.53,.56,2.34,.78,1.84,.5,3.69,.74,5.51,.74,5.68,0,11.08-2.31,15.01-6.25,1.13-1.13,2.14-2.41,3-3.8,.97-1.56,1.74-3.26,2.28-5.1,.06-.16,.1-.33,.15-.5,1.57-5.85,.53-11.8-2.43-16.59Zm0,13.44c-.1,.79-.26,1.59-.47,2.37-.54,2.02-1.41,3.87-2.53,5.51-4.24,6.19-12.08,9.35-19.73,7.29-.42-.11-.84-.24-1.24-.39-.99-.34-1.93-.76-2.82-1.25-1.53-.84-2.9-1.89-4.09-3.1-.73-.73-1.39-1.53-1.98-2.37-2.11-3.01-3.3-6.64-3.3-10.42,0-1.57,.2-3.15,.63-4.73,1.26-4.69,4.27-8.6,8.48-11.01,2.79-1.61,5.88-2.43,9.02-2.43,1.59,0,3.18,.21,4.76,.64,.42,.11,.83,.24,1.23,.38,.99,.34,1.93,.76,2.83,1.25,1.51,.83,2.89,1.88,4.1,3.1,.72,.73,1.38,1.52,1.97,2.37,.05,.07,.1,.14,.14,.21,.26,.38,.51,.77,.74,1.17,1.2,2.07,1.95,4.31,2.26,6.62,.22,1.58,.22,3.18,0,4.79Zm-3.14-12.79c.05,.07,.1,.14,.14,.21v-.4l-.14,.19Zm-23.65,26.32l-1.82,2.41c.87,.51,1.79,.96,2.75,1.34l1.89-2.5c-.99-.34-1.93-.76-2.82-1.25Zm0,0l-1.82,2.41c.87,.51,1.79,.96,2.75,1.34l1.89-2.5c-.99-.34-1.93-.76-2.82-1.25Z"/><path class="e" d="M166.86,127.15c-.34-.53-.78-1-1.29-1.39-.18-.13-.36-.26-.56-.36-.53-.32-1.12-.53-1.72-.65,.59,.36,1.17,.74,1.72,1.15,.66,.48,1.29,1,1.89,1.54l.27,.25c-.09-.19-.19-.37-.31-.54Zm-30.01,40.9l-1.83,2.41-5.16,6.84h3.75l4.08-5.39,1.85-2.45c-.93-.41-1.83-.89-2.69-1.41Zm0,0l-1.83,2.41-5.16,6.84h3.75l4.08-5.39,1.85-2.45c-.93-.41-1.83-.89-2.69-1.41Zm0,0l-1.83,2.41-5.16,6.84-1.71,2.25-.56,.75-1.25,1.65,.36,.27c.22,.17,.36,.41,.4,.68,.04,.28-.03,.55-.2,.77l-9.28,12.29c-.34,.45-1,.55-1.45,.2l-2.41-1.82-2.41-1.82c-.22-.17-.36-.41-.4-.68-.04-.28,.03-.55,.2-.77l8.13-10.77,1.15-1.52c.2-.27,.51-.41,.83-.41,.22,0,.44,.07,.62,.21l.36,.27,1.17-1.55,.64-.84,6.88-9.11,1.82-2.4c-.74-.69-1.45-1.43-2.1-2.21l-1.85,2.45-7.7,10.19-1.45,1.92-2.27,3-6.52,8.63c-1.85,2.45-1.36,5.95,1.09,7.8,.98,.74,2.14,1.13,3.35,1.13,.26,0,.52-.02,.78-.05,1.47-.21,2.78-.98,3.67-2.16l10.25-13.56h0l1.35-1.79,2.26-3,4.08-5.39,1.85-2.45c-.93-.41-1.83-.89-2.69-1.41Zm28.16-36.6c-.12-.13-.25-.26-.38-.38-.08,.24-.21,.48-.37,.69l-1.36,1.8c.72,.73,1.38,1.52,1.97,2.37l.14-.19,1.64-2.17s.06-.08,.09-.13c-.53-.7-1.11-1.37-1.73-1.99Zm-7.14-4.73s-.08,.09-.11,.13l-1.79,2.36c.99,.34,1.93,.76,2.83,1.25l1.36-1.8c.16-.21,.35-.4,.56-.55-.9-.53-1.86-1-2.85-1.39Zm-16.65,35.53l-1.82,2.41c.87,.51,1.79,.96,2.75,1.34l1.89-2.5c-.99-.34-1.93-.76-2.82-1.25Zm-6.07-5.47l-1.88,2.49c.61,.81,1.29,1.58,2.03,2.29l1.83-2.41c-.73-.73-1.39-1.53-1.98-2.37Zm1.7,11.27l-1.83,2.41-5.16,6.84h3.75l4.08-5.39,1.85-2.45c-.93-.41-1.83-.89-2.69-1.41Zm0,0l-1.83,2.41-5.16,6.84h3.75l4.08-5.39,1.85-2.45c-.93-.41-1.83-.89-2.69-1.41Z"/><path class="e" d="M130.07,182.49c-.02-.13-.04-.27-.07-.4h0c-.17-.68-.5-1.29-.96-1.79-.16-.17-.34-.33-.53-.48l-.36-.27-2.99-2.25-1.11-.84-.36-.27c-.77-.59-1.69-.85-2.59-.81-1.16,.04-2.3,.59-3.07,1.59l-.25,.33-2.26,3-6.77,8.96c-.65,.86-.92,1.92-.77,2.99s.7,2.01,1.56,2.67l2.41,1.81,2.41,1.82c.73,.55,1.58,.82,2.43,.82,1.22,0,2.43-.55,3.22-1.6l9.29-12.29c.64-.86,.92-1.92,.77-2.99Zm-18.72,10.03c-.22-.17-.36-.41-.4-.68-.04-.28,.03-.55,.2-.77l8.13-10.77,1.15-1.52c.2-.27,.51-.41,.83-.41,.22,0,.44,.07,.62,.21l.36,.27,1.92,1.45,2.18,1.65,.36,.27c.22,.17,.36,.41,.4,.68,.04,.28-.03,.55-.2,.77l-9.28,12.29c-.34,.45-1,.55-1.45,.2l-2.41-1.82-2.41-1.82Z"/><circle class="e" cx="82.42" cy="93.95" r="5.54"/><path class="e" d="M92.15,112.79h-19.45c-.83,0-1.5-.71-1.42-1.53h0c.23-2.99,1.84-5.58,4.18-7.13,1.46-.98,3.21-1.54,5.09-1.54h3.75c1.88,0,3.63,.56,5.08,1.54,2.34,1.55,3.95,4.14,4.18,7.12h0c.08,.83-.59,1.54-1.42,1.54Z"/><path class="e" d="M273.59,34.6h-107.08c-.83,0-1.5,.67-1.5,1.5V125.9c.66,.48,1.29,1,1.89,1.54l.27,.25c.29,.26,.57,.53,.84,.81V37.6h104.08V182.01h-104.08v-17.78c-.93,.93-1.93,1.79-3,2.57v16.71c0,.83,.67,1.5,1.5,1.5h107.08c.83,0,1.5-.67,1.5-1.5V36.1c0-.83-.67-1.5-1.5-1.5Zm-106.05,116.49c-.54,2.02-1.41,3.87-2.53,5.51v4.67c1.13-1.13,2.14-2.41,3-3.8v-8.75c-.1,.79-.26,1.59-.47,2.37Zm.41-15.91c-.37-.6-.77-1.18-1.21-1.74-.53-.7-1.11-1.37-1.73-1.99v4.69c.26,.38,.51,.77,.74,1.17,1.2,2.07,1.95,4.31,2.26,6.62v-8.65s-.03-.07-.06-.1Z"/><path class="e" d="M129.86,177.3l-1.71,2.25-2.99-2.25H60.16c-.14,0-.29-.01-.43-.02-.11-.01-.23-.03-.34-.06-.62-.13-1.19-.41-1.68-.82v2.4c0,.55,.29,1.02,.73,1.28,0,0,.01,0,.02,0,.22,.14,.47,.21,.75,.21h60.07l1.15-1.52c.2-.27,.51-.41,.83-.41,.22,0,.44,.07,.62,.21l.36,.27,1.92,1.45h43.85v-3h-38.15Zm32.46-105.78l-.11-.83h-3.03l.12,.83,.29,2.17h3.03l-.3-2.17Zm42.8,6.15v3h3v-3h-3Zm0,34.64v3h3v-3h-3Zm0-7.65v3h3v-3h-3Zm0,26.99v3h3v-3h-3Zm0,26.98v3h3v-3h-3Zm0,7.66v3h3v-3h-3Zm0-26.99v3h3v-3h-3Zm0-53.98v3h3v-3h-3Zm-40.11-14.63v3h3v-3h-3Zm-9.69,.83l-.23-.83H59.21c-.83,0-1.5,.67-1.5,1.5v8.42c.69-.51,1.53-.8,2.45-.8h.55v-6.12h95.22l-.61-2.17Z"/><path class="e" d="M99.6,81.93h-34.33c-.83,0-1.5,.67-1.5,1.5v34.34c0,.82,.67,1.5,1.5,1.5h34.33c.83,0,1.5-.68,1.5-1.5v-34.34c0-.83-.67-1.5-1.5-1.5Zm-1.5,34.34h-31.33v-31.34h31.33v31.34Z"/><path class="e" d="M265.25,79.17c0,.83-.67,1.5-1.5,1.5h-62.06c-.6,0-1.12-.35-1.35-.86-.1-.19-.15-.41-.15-.64,0-.83,.67-1.5,1.5-1.5h62.06c.83,0,1.5,.67,1.5,1.5Z"/><path class="e" d="M265.25,86.82c0,.83-.67,1.5-1.5,1.5h-62.06c-.83,0-1.5-.67-1.5-1.5s.67-1.5,1.5-1.5h62.06c.83,0,1.5,.68,1.5,1.5Z"/><path class="e" d="M265.25,106.16c0,.82-.67,1.5-1.5,1.5h-62.06c-.83,0-1.5-.68-1.5-1.5s.67-1.5,1.5-1.5h62.06c.83,0,1.5,.67,1.5,1.5Z"/><path class="e" d="M265.25,113.81c0,.83-.67,1.5-1.5,1.5h-62.06c-.83,0-1.5-.67-1.5-1.5s.67-1.5,1.5-1.5h62.06c.83,0,1.5,.67,1.5,1.5Z"/><path class="e" d="M265.25,133.15c0,.82-.67,1.5-1.5,1.5h-62.06c-.83,0-1.5-.68-1.5-1.5s.67-1.5,1.5-1.5h62.06c.83,0,1.5,.67,1.5,1.5Z"/><path class="e" d="M265.25,140.8c0,.83-.67,1.5-1.5,1.5h-62.06c-.83,0-1.5-.67-1.5-1.5s.67-1.5,1.5-1.5h62.06c.83,0,1.5,.67,1.5,1.5Z"/><path class="e" d="M265.25,160.13c0,.83-.67,1.5-1.5,1.5h-62.06c-.83,0-1.5-.67-1.5-1.5s.67-1.5,1.5-1.5h62.06c.83,0,1.5,.68,1.5,1.5Z"/><path class="e" d="M265.25,167.79c0,.83-.67,1.5-1.5,1.5h-62.06c-.83,0-1.5-.67-1.5-1.5s.67-1.5,1.5-1.5h62.06c.83,0,1.5,.67,1.5,1.5Z"/><path class="e" d="M193.76,74.52c-.24-.48-.74-.81-1.32-.81h-15.56c-.58,0-1.08,.33-1.32,.81-.12,.21-.18,.44-.18,.69v15.57c0,.82,.67,1.5,1.5,1.5h15.56c.83,0,1.5-.68,1.5-1.5v-15.57c0-.25-.06-.48-.18-.69Zm-2.82,14.76h-12.56v-12.57h12.56v12.57Z"/><path class="e" d="M192.44,100.7h-15.56c-.83,0-1.5,.68-1.5,1.5v15.57c0,.82,.67,1.5,1.5,1.5h15.56c.83,0,1.5-.68,1.5-1.5v-15.57c0-.82-.67-1.5-1.5-1.5Zm-1.5,15.57h-12.56v-12.57h12.56v12.57Z"/><path class="e" d="M192.44,127.69h-15.56c-.83,0-1.5,.67-1.5,1.5v15.57c0,.56,.31,1.05,.77,1.3,.22,.13,.46,.2,.73,.2h15.56c.83,0,1.5-.68,1.5-1.5v-15.57c0-.83-.67-1.5-1.5-1.5Zm-1.5,15.57h-12.56v-12.57h12.56v12.57Z"/><path class="e" d="M192.44,154.68h-15.56c-.53,0-.99,.27-1.25,.68-.16,.23-.25,.52-.25,.82v15.56c0,.55,.29,1.03,.74,1.29,.22,.13,.48,.21,.76,.21h15.56c.83,0,1.5-.67,1.5-1.5v-15.56c0-.83-.67-1.5-1.5-1.5Zm-1.5,15.56h-12.56v-12.56h12.56v12.56Z"/><g><path class="e" d="M177.72,53.52l-2.73,8.94c-.09,.31,.14,.62,.46,.62h1.65c.22,0,.42-.15,.47-.37l.32-1.36c.05-.22,.24-.37,.47-.37h2.01c.22,0,.42,.15,.47,.37l.32,1.36c.05,.22,.24,.37,.47,.37h1.74c.32,0,.55-.31,.46-.62l-2.73-8.94c-.06-.2-.25-.34-.46-.34h-2.45c-.21,0-.4,.14-.46,.34Zm.73,5.43l.16-.68c.24-.95,.49-2.13,.7-3.14h.06c.24,.99,.49,2.19,.73,3.14l.16,.68h-1.81Z"/><path class="e" d="M188.42,53.18h-3.27c-.19,0-.35,.16-.35,.35v9.2c0,.19,.16,.35,.35,.35h1.92c.19,0,.35-.16,.35-.35v-2.79h1.06c2.07,0,3.96-1.05,3.96-3.47s-1.86-3.29-4.02-3.29Zm-.06,4.69h-.94v-2.62h.88c1,0,1.58,.34,1.58,1.22s-.49,1.4-1.52,1.4Z"/><path class="e" d="M197.67,53.18h-3.27c-.19,0-.35,.16-.35,.35v9.2c0,.19,.16,.35,.35,.35h1.92c.19,0,.35-.16,.35-.35v-2.79h1.06c2.08,0,3.96-1.05,3.96-3.47s-1.85-3.29-4.02-3.29Zm-.06,4.69h-.94v-2.62h.88c1.01,0,1.59,.34,1.59,1.22s-.49,1.4-1.53,1.4Z"/><path class="e" d="M205.57,53.18h-1.92c-.19,0-.35,.16-.35,.35v9.2c0,.19,.16,.35,.35,.35h5.67c.19,0,.35-.16,.35-.35v-1.49c0-.19-.16-.35-.35-.35h-3.05c-.19,0-.35-.16-.35-.35v-7.01c0-.19-.16-.35-.35-.35Z"/><rect class="e" x="211.37" y="53.18" width="2.62" height="9.9" rx=".35" ry=".35"/><path class="e" d="M220.56,61.01c-1.27,0-2.13-1.04-2.13-2.89s1.01-2.87,2.16-2.87c.56,0,.99,.21,1.4,.53,.14,.11,.36,.08,.47-.06l.94-1.16c.12-.14,.11-.36-.03-.48-.69-.6-1.67-1.09-2.84-1.09-2.49,0-4.78,1.89-4.78,5.21s2.2,5.05,4.72,5.05c1.17,0,2.23-.4,3.05-1.23,.13-.13,.13-.34,.01-.47l-.93-1.12c-.12-.14-.34-.17-.48-.05-.41,.35-.93,.62-1.56,.62Z"/><path class="e" d="M226.78,53.43l-2.8,9.2c-.07,.22,.1,.45,.33,.45h1.94c.16,0,.3-.11,.34-.27l.36-1.56c.04-.16,.18-.27,.34-.27h2.21c.16,0,.3,.11,.34,.27l.36,1.56c.04,.16,.18,.27,.34,.27h2.03c.23,0,.4-.23,.33-.45l-2.81-9.2c-.04-.15-.18-.25-.33-.25h-2.65c-.15,0-.29,.1-.33,.25Zm.71,5.52l.16-.68c.24-.95,.48-2.13,.7-3.14h.06c.24,.99,.48,2.19,.73,3.14l.16,.68h-1.81Z"/><path class="e" d="M232.38,55.38h1.92c.19,0,.35,.16,.35,.35v7c0,.19,.16,.35,.35,.35h1.91c.19,0,.35-.16,.35-.35v-7c0-.19,.16-.35,.35-.35h1.92c.19,0,.35-.16,.35-.35v-1.5c0-.19-.16-.35-.35-.35h-7.15c-.19,0-.35,.16-.35,.35v1.5c0,.19,.16,.35,.35,.35Z"/><rect class="e" x="241.35" y="53.18" width="2.62" height="9.9" rx=".35" ry=".35"/><path class="e" d="M250.33,53c-2.74,0-4.59,1.83-4.59,5.09s1.85,5.17,4.59,5.17,4.6-1.92,4.6-5.17-1.86-5.09-4.6-5.09Zm0,8.01c-1.18,0-1.91-1.13-1.91-2.92s.73-2.84,1.91-2.84,1.92,1.04,1.92,2.84-.73,2.92-1.92,2.92Z"/><path class="e" d="M262.58,53.18c-.19,0-.35,.16-.35,.35v2.75c.03,1.16,.22,2.54,.33,3.54h-.06l-.94-2.21v-.02l-2.11-4.22c-.06-.12-.18-.19-.31-.19h-2.12c-.19,0-.35,.16-.35,.35v9.2c0,.19,.16,.35,.35,.35h1.8c.19,0,.35-.16,.35-.35v-2.51c0-1.22-.21-2.65-.33-3.78h.06l.74,1.73,.2,.48,2.09,4.24c.06,.12,.18,.19,.31,.19h2.12c.19,0,.35-.16,.35-.35v-9.2c0-.19-.16-.35-.35-.35h-1.79Z"/></g><path class="e" d="M189.55,81.35l-5.52,5.43c-.28,.27-.66,.43-1.05,.43-.04,0-.07-.01-.1-.01-.42-.02-.82-.23-1.08-.56l-2.22-2.81c-.51-.65-.4-1.59,.25-2.11,.65-.51,1.59-.4,2.1,.25l1.19,1.5,3.72-3.66,.61-.6c.59-.58,1.54-.57,2.12,.02,.17,.17,.28,.37,.34,.58,.19,.52,.06,1.12-.36,1.54Z"/><path class="e" d="M182.97,114.2s-.06,0-.09,0c-.42-.03-.82-.23-1.08-.57l-2.22-2.81c-.51-.65-.4-1.59,.25-2.11,.65-.51,1.59-.4,2.11,.25l1.18,1.5,4.33-4.25c.59-.58,1.54-.57,2.12,.02,.58,.59,.57,1.54-.02,2.12l-5.52,5.42c-.28,.28-.66,.43-1.05,.43Z"/><path class="e" d="M182.97,141.19s-.06,0-.09,0c-.42-.03-.82-.23-1.08-.57l-2.22-2.81c-.51-.65-.4-1.59,.25-2.11,.65-.51,1.59-.4,2.11,.25l1.18,1.5,4.33-4.25c.59-.58,1.54-.57,2.12,.02,.58,.59,.57,1.54-.02,2.12l-5.52,5.42c-.28,.28-.66,.43-1.05,.43Z"/><path class="e" d="M168.01,135.28s-.03-.07-.06-.1l.06,.43,2.28,16.76c.06-.16,.1-.33,.15-.5,1.57-5.85,.53-11.8-2.43-16.59Zm5.71,20.09c-.63,1.67-1.43,3.25-2.38,4.72l.58,4.28c.95-1.13,1.79-2.34,2.54-3.62l-.74-5.38Zm1.66,12.18v4.19c0,.55,.29,1.03,.74,1.29l-.74-5.48Zm49.54,14.46l-22.07,3-15.24,2.07-3.01,.41-6.39,.87-.46-3.35-.4-3h-3.03l.41,3,.71,5.24c.05,.4,.26,.76,.58,1,.26,.2,.58,.3,.9,.3,.07,0,.14,0,.21-.01l8.29-1.13,3.01-.41,25.15-3.42,11.56-1.57,10.15-1.38,11.91-1.62h-22.28Zm-55.19-56.03c-.55-.54-1.12-1.05-1.72-1.53v-11.09l-3-22.06-1.56-11.49-.41-3-.31-2.29-.11-.83-.3-2.17-.11-.83-2.58-18.97-.41-3.01-.47-3.44,6.26-.85,3-.41v-3.03l-3,.41-8.15,1.11c-.39,.05-.75,.26-.99,.58-.24,.31-.34,.71-.29,1.11l.73,5.34,.4,3,2.47,18.16,.12,.83,.29,2.17,.11,.83,.32,2.29,.4,3,2.65,19.43,1.94,14.3,1.01,7.45,.3,2.17,.54,3.99,.04,.29,.27,.25c.29,.26,.57,.53,.84,.81l.15,.15c.83,.85,1.6,1.76,2.3,2.72l-.73-5.39Zm95.64-91.38l-.71-5.24c-.11-.83-.87-1.41-1.69-1.29l-8.29,1.13-3.01,.41-25.14,3.42-11.58,1.57-10.15,1.38-11.91,1.62h22.29l22.07-3,15.24-2.07,3.01-.41,6.39-.87,.46,3.35,.4,3h3.03l-.41-3Zm6.72,68.07v-18.67l1.99,14.65,1.01,7.42,1.94,14.3,6.36,46.71,.4,3,.73,5.34c.11,.82-.47,1.58-1.29,1.69l-8.14,1.11-3,.41v-3.03l3-.41,6.25-.85-.47-3.44-.41-3.01-5.37-39.53-3-22.07v-3.62Z"/><path class="e" d="M178.56,154.68h-1.44c.1-.31,.19-.62,.27-.93,.16-.58,.3-1.17,.42-1.75l-1.66-5.94-.77-2.74-.44-1.58c.63,3.34,.59,6.85-.23,10.35l.92,3.27,.54,1.95,2.21,7.91v-7.54h1.01l-.83-3Zm4.34,15.56h-3.12l.84,3h3.12l-.84-3Zm-4.34-15.56h-1.44c.1-.31,.19-.62,.27-.93,.16-.58,.3-1.17,.42-1.75l-1.66-5.94-.77-2.74-.44-1.58c.63,3.34,.59,6.85-.23,10.35l.92,3.27,.54,1.95,2.21,7.91v-7.54h1.01l-.83-3Zm4.34,15.56h-3.12l.84,3h3.12l-.84-3Zm-4.34-15.56h-1.44c.1-.31,.19-.62,.27-.93,.16-.58,.3-1.17,.42-1.75l-1.66-5.94-.77-2.74-.44-1.58c.63,3.34,.59,6.85-.23,10.35l.92,3.27,.54,1.95,2.21,7.91v-7.54h1.01l-.83-3Zm4.34,15.56h-3.12l.84,3h3.12l-.84-3Zm-4.34-15.56h-1.44c.1-.31,.19-.62,.27-.93,.16-.58,.3-1.17,.42-1.75l-1.66-5.94-.77-2.74-.44-1.58c.63,3.34,.59,6.85-.23,10.35l.92,3.27,.54,1.95,2.21,7.91v-7.54h1.01l-.83-3Zm4.34,15.56h-3.12l.84,3h3.12l-.84-3Zm-4.34-15.56h-1.44c.1-.31,.19-.62,.27-.93,.16-.58,.3-1.17,.42-1.75l-1.66-5.94-.77-2.74-.44-1.58c.63,3.34,.59,6.85-.23,10.35l.92,3.27,.54,1.95,2.21,7.91v-7.54h1.01l-.83-3Zm0,0h-1.44c-.27,.9-.59,1.78-.95,2.63l2.21,7.91v-7.54h1.01l-.83-3Zm51.38,27.33l-10.73,3-5.63,1.57-24.22,6.77-.93-3.35-.82-2.92-3.01,.41,.82,2.92,1.45,5.19c.19,.67,.79,1.1,1.44,1.1,.14,0,.27-.02,.41-.06l41.63-11.63,4.94-1.38,5.8-1.62h-11.15Zm-43.75,0h-3.12l.84,3h3.12l-.84-3Zm85.9-11.78v3.12l3-.84v-3.12l-3,.84Zm20.8-4.25l-17.8-63.72-1.01-3.61-1.99-7.13v11.15l3,10.74,1.94,6.96,12.57,44.97-6.21,1.74-2.93,.81,.41,3.01,2.92-.82,8.06-2.25c.8-.22,1.27-1.05,1.04-1.85Zm-30.65-109.7c.03,1.16,.22,2.54,.33,3.54h-.06l-.94-2.22-2.2-4.42h-1.11l1.4,4.99,.2,.48,2.19,4.43h2.09l-1.9-6.8Zm-97.23-9.18v3.12l3-.84v-3.12l-3,.84Zm5.86,80.06c-.37-.41-.75-.8-1.14-1.18-.55-.54-1.12-1.05-1.72-1.53v-7.51l-3-10.74-1.94-6.96-5.43-19.43-.84-3-.64-2.29-.23-.83-.61-2.17-.23-.83-4.59-16.42,6.21-1.74,2.92-.81-.41-3.01-2.91,.82-8.07,2.25c-.38,.11-.7,.36-.9,.71-.19,.35-.24,.76-.14,1.14l4.77,17.06,.23,.83,.61,2.17,.23,.83,.64,2.29,.84,3,10.49,37.56,1.01,3.62,.69,2.44,1.3,4.67,.15,.55c.83,.85,1.6,1.76,2.3,2.72,1.36,1.86,2.47,3.9,3.28,6.07l-2.87-10.28Zm85.32-92.56h-3.12l.84,3h3.12l-.84-3Zm-1.51-5.4l-1.45-5.19c-.11-.39-.37-.71-.71-.91-.35-.19-.76-.24-1.14-.13l-41.64,11.63-4.94,1.38-5.8,1.62h11.16l10.73-3,5.64-1.57,24.21-6.77,.93,3.35,.82,2.92,3.01-.41-.82-2.92Zm-71.78,141.04h-3.12l.84,3h3.12l-.84-3Zm-4.34-15.56h-1.44c-.27,.9-.59,1.78-.95,2.63l2.21,7.91v-7.54h1.01l-.83-3Zm0,0h-1.44c.1-.31,.19-.62,.27-.93,.16-.58,.3-1.17,.42-1.75l-1.66-5.94-.77-2.74-.44-1.58c.63,3.34,.59,6.85-.23,10.35l.92,3.27,.54,1.95,2.21,7.91v-7.54h1.01l-.83-3Zm4.34,15.56h-3.12l.84,3h3.12l-.84-3Zm-4.34-15.56h-1.44c.1-.31,.19-.62,.27-.93,.16-.58,.3-1.17,.42-1.75l-1.66-5.94-.77-2.74-.44-1.58c.63,3.34,.59,6.85-.23,10.35l.92,3.27,.54,1.95,2.21,7.91v-7.54h1.01l-.83-3Zm4.34,15.56h-3.12l.84,3h3.12l-.84-3Zm-4.34-15.56h-1.44c.1-.31,.19-.62,.27-.93,.16-.58,.3-1.17,.42-1.75l-1.66-5.94-.77-2.74-.44-1.58c.63,3.34,.59,6.85-.23,10.35l.92,3.27,.54,1.95,2.21,7.91v-7.54h1.01l-.83-3Zm4.34,15.56h-3.12l.84,3h3.12l-.84-3Z"/><path class="e" d="M70.13,97.23c-.83,0-1.5-.67-1.5-1.5v-14.56c0-3.92,3.19-7.11,7.11-7.11,2.5,0,4.84,1.34,6.12,3.49,.42,.71,.19,1.63-.52,2.06-.71,.42-1.63,.19-2.06-.52-.74-1.24-2.09-2.02-3.54-2.02-2.27,0-4.11,1.84-4.11,4.11v14.56c0,.83-.67,1.5-1.5,1.5Z"/><g><path class="e" d="M149.22,155.52c-.68,0-1.25,.23-1.72,.68-.46,.46-.69,1.02-.69,1.69s.23,1.23,.69,1.69c.46,.46,1.03,.68,1.72,.68s1.25-.23,1.72-.68,.69-1.02,.69-1.69-.23-1.23-.69-1.69-1.03-.68-1.72-.68Z"/><path class="e" d="M156.94,136.79c-.68-1.01-1.62-1.81-2.83-2.4-1.21-.59-2.63-.89-4.25-.89-1.75,0-3.23,.32-4.44,.95-1.21,.63-2.13,1.48-2.77,2.56-.58,.97-.93,2.05-1.04,3.22-.03,.42,.28,.57,.45,.56h2.69c.4,0,.63-.22,.69-.57,.09-.58,.29-1.09,.58-1.55,.36-.56,.85-1,1.47-1.32,.62-.32,1.35-.48,2.19-.48s1.53,.15,2.15,.46c.61,.3,1.09,.73,1.43,1.27s.51,1.16,.51,1.85v.04c0,.61-.09,1.15-.28,1.62s-.5,.92-.94,1.32c-.44,.41-1.02,.84-1.75,1.29-.83,.5-1.51,1.02-2.04,1.57-.53,.55-.92,1.15-1.16,1.82s-.35,1.41-.33,2.24v.86c.01,.32,.28,.59,.6,.59h2.45c.56,0,.77-.25,.76-.73v-.29c0-.62,.09-1.16,.26-1.62,.18-.46,.48-.89,.92-1.3s1.05-.84,1.83-1.31c1.22-.72,2.16-1.59,2.84-2.6,.68-1.02,1.01-2.22,1.01-3.62v-.04c0-1.31-.34-2.48-1.01-3.49Z"/></g></g><g id="d"/></svg>