<?xml version="1.0" encoding="UTF-8"?><svg xmlns="http://www.w3.org/2000/svg" viewBox="0 0 340 220"><defs><style>.e{fill:#003f5e;}.f{fill:#006068;}.g{fill:#007d85;}.h{fill:#fdce6d;}.i{fill:#ff570e;}.j{fill:#ecfbfc;}.k{fill:#fcb92f;}.l{fill:#ff7734;}.m{fill:#b3d8da;}.n{fill:#add8c3;}.o{fill:#bce0cf;}.p{fill:#e0eff0;}.q{fill:#80bec2;}.r{fill:#4da4aa;}</style></defs><g id="a"><path class="p" d="M24.89,75.76c4.93-26.08,24.17-48.5,51.34-54.26,14.14-3,27.06-.46,40.75,3.38,22.6,6.34,45.8,8,69.11,6.75,3.98-.21,7.97-.5,11.98-.85,26.01-2.26,52.75-7.38,78.86,.7,28.64,8.86,47.71,34.14,48.59,63.24,.54,17.83-7.67,34.09-16.24,49.24-10.16,17.98-19.36,38.05-37.62,49.69-21.75,13.87-51.28,14.55-76.5,12.65-39.91-3-83.05-14.25-117.63-34.39-31.31-18.24-55.19-47.03-53.99-83.8,.14-4.25,.6-8.38,1.35-12.35Z"/></g><g id="b"><ellipse class="m" cx="172.15" cy="152.5" rx="138.31" ry="42.29"/><polygon class="m" points="185.96 173.11 162.2 182.05 162.2 153.23 185.96 144.29 185.96 173.11"/><polygon class="q" points="162.2 153.23 138.44 144.29 138.44 173.11 162.2 182.05 162.2 153.23"/><polygon class="j" points="185.96 144.29 162.2 135.35 138.44 144.29 162.2 153.23 185.96 144.29"/><polygon class="m" points="127.21 149.76 103.45 158.7 103.45 129.88 127.21 120.94 127.21 149.76"/><polygon class="q" points="103.45 129.88 79.68 120.94 79.68 149.76 103.45 158.7 103.45 129.88"/><polygon class="j" points="127.21 120.94 103.45 112 79.68 120.94 103.45 129.88 127.21 120.94"/><polygon class="m" points="94.21 163.51 70.45 172.45 70.45 143.63 94.21 134.69 94.21 163.51"/><polygon class="q" points="70.45 143.63 46.69 134.69 46.69 163.51 70.45 172.45 70.45 143.63"/><polygon class="j" points="94.21 134.69 70.45 125.75 46.69 134.69 70.45 143.63 94.21 134.69"/><polygon class="m" points="109.26 129.79 85.5 138.73 85.5 109.91 109.26 100.97 109.26 129.79"/><polygon class="q" points="85.5 109.91 61.74 100.97 61.74 129.79 85.5 138.73 85.5 109.91"/><polygon class="j" points="109.26 100.97 85.5 92.03 61.74 100.97 85.5 109.91 109.26 100.97"/><rect class="i" x="79.89" y="172.13" width="38.14" height="9.19" transform="translate(21.53 -10.43) rotate(6.77)"/><path class="l" d="M74.07,169.46h5.98v9.19h-5.98c-.59,0-1.07-.48-1.07-1.07v-7.06c0-.59,.48-1.07,1.07-1.07Z" transform="translate(21.06 -7.81) rotate(6.77)"/><path class="l" d="M117.88,174.68h4.12c.52,0,.95,.42,.95,.95v7.29c0,.52-.42,.95-.95,.95h-4.12v-9.19h0Z" transform="translate(21.98 -12.95) rotate(6.77)"/><path class="l" d="M123.31,176.43l-.34,2.84-.07,.59-.34,2.84,8.78-1.09c.17-.02,.3-.16,.32-.33l.16-1.35c.02-.17-.08-.33-.24-.39l-8.28-3.12Z"/><rect class="k" x="225.39" y="166.92" width="38.14" height="9.19" transform="translate(485.88 347.29) rotate(-179)"/><path class="h" d="M264.6,167.32h5.98v9.19h-5.98c-.59,0-1.07-.48-1.07-1.07v-7.06c0-.59,.48-1.07,1.07-1.07Z" transform="translate(531.05 348.47) rotate(-179)"/><path class="h" d="M220.33,166.54h4.12c.52,0,.95,.42,.95,.95v7.29c0,.52-.42,.95-.95,.95h-4.12v-9.19h0Z" transform="translate(442.69 346.15) rotate(-179)"/><path class="h" d="M220.27,174.25l.05-2.86v-.6l.06-2.86-8.62,1.97c-.17,.04-.29,.19-.29,.36l-.02,1.36c0,.17,.11,.32,.28,.37l8.55,2.27Z"/><circle class="f" cx="209.7" cy="106.85" r="23.36"/><rect class="j" x="253.6" y="26.61" width="13.37" height="108.56" rx="5.75" ry="5.75"/><path class="q" d="M194.72,125.03c-1.63-1.23-3.03-2.63-4.19-4.19-.19-.41-.01-.91,.4-1.1,14.58-7.01,24.3-16.84,29.68-30.01,.17-.42,.65-.63,1.07-.47,0,0,5.78,4.83,5.46,5.52-6.31,14.09-17.07,24.64-32.8,32.19-.42,.2,.57-1.52,.37-1.94Z"/><rect class="g" x="240.82" y="39.92" width="40.72" height="20.07" rx="10.03" ry="10.03"/><rect class="r" x="235.1" y="59.99" width="52.14" height="20.07" rx="10.03" ry="10.03"/><rect class="n" x="229.22" y="80.06" width="63.91" height="20.07" rx="10.03" ry="10.03"/><rect class="k" x="220.71" y="100.12" width="80.94" height="20.07" rx="10.03" ry="10.03"/><rect class="l" x="214.54" y="120.19" width="93.27" height="20.07" rx="10.03" ry="10.03"/><rect class="n" x="256.3" y="141.52" width="38.14" height="9.19" transform="translate(577.56 222.61) rotate(166.26)"/><path class="o" d="M294.86,136.15h5.98v9.19h-5.98c-.59,0-1.07-.48-1.07-1.07v-7.06c0-.59,.48-1.07,1.07-1.07Z" transform="translate(619.55 206.82) rotate(166.26)"/><path class="o" d="M251.85,146.65h4.12c.52,0,.95,.42,.95,.95v7.29c0,.52-.42,.95-.95,.95h-4.12v-9.19h0Z" transform="translate(537.41 237.72) rotate(166.26)"/><path class="o" d="M252.67,154.91l-.68-2.78-.14-.58-.68-2.78-7.84,4.1c-.15,.08-.23,.25-.19,.42l.32,1.32c.04,.17,.19,.28,.36,.28l8.85,.02Z"/></g><g id="c"><path class="e" d="M93.3,134.66s-.01-.1-.02-.15c-.01-.01-.01-.03-.02-.04-.01-.05-.03-.11-.05-.16-.02-.05-.04-.11-.07-.16-.03-.07-.07-.13-.11-.19l-3.91,1.48-4.56,1.71v2.03l5.75-2.17v15.64l3,1.13v-18.93c0-.06,0-.12-.01-.19Zm-14.77,4.56v2.23l2.96-1.12-2.96-1.11Zm14.77-4.56s-.01-.1-.02-.15c-.01-.01-.01-.03-.02-.04-.01-.05-.03-.11-.05-.16-.02-.05-.04-.11-.07-.16-.03-.07-.07-.13-.11-.19l-3.91,1.48-4.56,1.71v2.03l5.75-2.17v15.64l3,1.13v-18.93c0-.06,0-.12-.01-.19Zm-14.77,4.56v2.23l2.96-1.12-2.96-1.11Zm14.77-4.56s-.01-.1-.02-.15c-.01-.01-.01-.03-.02-.04-.01-.05-.03-.11-.05-.16-.02-.05-.04-.11-.07-.16-.03-.07-.07-.13-.11-.19l-3.91,1.48-4.56,1.71v2.03l5.75-2.17v15.64l3,1.13v-18.93c0-.06,0-.12-.01-.19Zm-14.77,4.56v2.23l2.96-1.12-2.96-1.11Zm11.78-1.03v14.46l3,1.13v-16.72l-3,1.13Zm-11.78,1.03v2.23l2.96-1.12-2.96-1.11Zm11.78-1.03v14.46l3,1.13v-16.72l-3,1.13Zm-11.78,1.03v2.23l2.96-1.12-2.96-1.11Zm11.78-1.03v14.46l3,1.13v-16.72l-3,1.13Zm-11.78,1.03v2.23l2.96-1.12-2.96-1.11Zm11.78-1.03v14.46l3,1.13v-16.72l-3,1.13Zm-11.78,1.03v2.23l2.96-1.12-2.96-1.11Zm11.78-1.03v14.46l3,1.13v-16.72l-3,1.13Zm-11.78,1.03v2.23l2.96-1.12-2.96-1.11Zm11.78-1.03v14.46l3,1.13v-16.72l-3,1.13Zm-11.78,1.03v2.23l2.96-1.12-2.96-1.11Zm11.78-1.03v14.46l3,1.13v-16.72l-3,1.13Zm-11.78,3.26l2.96-1.12-2.96-1.11v2.23Zm14.77-6.79s-.01-.1-.02-.15c-.01-.01-.01-.03-.02-.04-.01-.05-.03-.11-.05-.16-.02-.05-.04-.11-.07-.16-.03-.07-.07-.13-.11-.19l-3.91,1.48-4.56,1.71v-1.18l-3,1.13-.07,.02-2.96,1.12-1.3,.49-1.7,.64-7.48,2.81-.53,.2c-.59,.23-.97,.78-.97,1.41v28.82c0,.5,.24,.96,.64,1.24,.13,.08,.27,.15,.41,.19,.08,.03,.15,.04,.23,.05,.07,.02,.15,.02,.22,.02s.15-.01,.22-.02c.08-.01,.15-.02,.22-.05,.03,0,.05-.01,.08-.02l.8-.3,3.17-1.19,.23-1.93,3.71,.44,.32-.11,3.15-1.19,2.62-.99,9.77-3.67c.59-.22,.97-.78,.97-1.41v-28.82c0-.06,0-.12-.01-.19Zm-2.99,27.97l-14.19,5.35-6.34,2.39-.23,.08v-25.62l5.98-2.25,3-1.13,2.96-1.12,.35-.13,2.72-1.02,5.75-2.17v25.62Zm-11.78-23.41v2.23l2.96-1.12-2.96-1.11Zm11.78-1.03v14.46l3,1.13v-16.72l-3,1.13Zm-11.78,1.03v2.23l2.96-1.12-2.96-1.11Zm11.78-1.03v14.46l3,1.13v-16.72l-3,1.13Zm-11.78,1.03v2.23l2.96-1.12-2.96-1.11Zm11.78-1.03v14.46l3,1.13v-16.72l-3,1.13Zm-11.78,1.03v2.23l2.96-1.12-2.96-1.11Zm11.78-1.03v14.46l3,1.13v-16.72l-3,1.13Zm-11.78,1.03v2.23l2.96-1.12-2.96-1.11Zm11.78-1.03v14.46l3,1.13v-16.72l-3,1.13Zm-11.78,1.03v2.23l2.96-1.12-2.96-1.11Zm11.78-1.03v14.46l3,1.13v-16.72l-3,1.13Zm-11.78,1.03v2.23l2.96-1.12-2.96-1.11Zm14.77-4.56s-.01-.1-.02-.15c-.01-.01-.01-.03-.02-.04-.01-.05-.03-.11-.05-.16-.02-.05-.04-.11-.07-.16-.03-.07-.07-.13-.11-.19l-3.91,1.48-4.56,1.71v2.03l5.75-2.17v15.64l3,1.13v-18.93c0-.06,0-.12-.01-.19Zm-14.77,4.56v2.23l2.96-1.12-2.96-1.11Zm14.77-4.56s-.01-.1-.02-.15c-.01-.01-.01-.03-.02-.04-.01-.05-.03-.11-.05-.16-.02-.05-.04-.11-.07-.16-.03-.07-.07-.13-.11-.19l-3.91,1.48-4.56,1.71v2.03l5.75-2.17v15.64l3,1.13v-18.93c0-.06,0-.12-.01-.19Zm0,0s-.01-.1-.02-.15c-.01-.01-.01-.03-.02-.04-.01-.05-.03-.11-.05-.16-.02-.05-.04-.11-.07-.16-.03-.07-.07-.13-.11-.19l-3.91,1.48-4.56,1.71v-1.18l-3,1.13v.05l-.07-.03-2.96,1.12v3.21l2.96-1.12,.35-.13,2.72-1.02,5.75-2.17v15.64l3,1.13v-18.93c0-.06,0-.12-.01-.19Zm-14.77,4.56v2.23l2.96-1.12-2.96-1.11Zm14.77-4.56s-.01-.1-.02-.15c-.01-.01-.01-.03-.02-.04-.01-.05-.03-.11-.05-.16-.02-.05-.04-.11-.07-.16-.03-.07-.07-.13-.11-.19l-3.91,1.48-4.56,1.71v2.03l5.75-2.17v15.64l3,1.13v-18.93c0-.06,0-.12-.01-.19Z"/><path class="e" d="M68.57,142.38l-.52-.2-19.5-7.33-.93-.35-2.81-1.06c-.32-.12-.66-.13-.97-.03l-.09,.03c-.15,.06-.28,.13-.4,.23-.05,.03-.09,.07-.13,.11-.17,.18-.3,.39-.37,.62-.02,.07-.04,.14-.05,.22-.01,.07-.02,.14-.02,.21v28.84c0,.63,.39,1.19,.97,1.41l23.77,8.94s.05,.02,.08,.02c.08,.03,.15,.04,.23,.05,.07,.02,.15,.02,.22,.02s.15-.01,.22-.02c.08-.01,.15-.02,.22-.05,.15-.04,.29-.11,.41-.19,.25-.17,.43-.4,.54-.67,.07-.18,.11-.37,.11-.57v-28.82c0-.63-.39-1.18-.98-1.41Zm-22.79-5.37l20.77,7.82v25.62l-20.77-7.82v-25.62Z"/><g><path class="e" d="M61.99,129.79l-3.91,1.47-9.53,3.59-3.65,1.36-.09,.04c-.78,.29-1.64-.1-1.93-.88-.07-.17-.1-.34-.1-.52v-.02c0-.07,.01-.14,.02-.21,.01-.08,.03-.15,.05-.22,.07-.23,.2-.44,.37-.62,.04-.04,.08-.08,.13-.11,.12-.1,.25-.17,.4-.23l.09-.03,13.95-5.25,3-1.13v2.31l1.2,.45Z"/><polygon class="e" points="84.56 130.51 84.56 133.72 81.56 132.59 81.56 129.39 84.56 130.51"/><path class="e" d="M89.83,132.49c-.2,.07-.42,.11-.64,.11s-.44-.03-.66-.11c-.46-.16-.83-.48-1.05-.88l2.35,.88Z"/><path class="e" d="M93.31,134.85v.09c0,.14-.04,.29-.09,.43-.23,.61-.8,.98-1.41,.98-.17,0-.35-.03-.53-.1l-2.16-.81,3.91-1.48c.04,.06,.08,.12,.11,.19,.03,.05,.05,.11,.07,.16,.02,.05,.04,.11,.05,.16,0,.01,0,.03,.02,.04,.01,.05,.02,.1,.02,.15,.01,.07,.01,.13,.01,.19Z"/></g><path class="e" d="M100.8,127.77l-.1,.04c.13,.04,.25,.07,.39,.08,.01,.01,.02,.01,.04,.01,.3,.03,.62-.02,.93-.14,.41-.17,.74-.46,.95-.82l-2.21,.83Zm25.24-7.56c-.01-.07-.03-.14-.05-.22-.06-.21-.17-.41-.33-.57-.05-.06-.11-.11-.17-.16-.11-.1-.25-.17-.4-.23l-.09-.03c-.31-.1-.65-.09-.97,.03l-3.73,1.4-11.98,4.51-3,1.13v3.2l3-1.13,14.74-5.54v25.62l-20.77,7.81v-25.55l-3,1.13v26.59c0,.49,.25,.95,.65,1.24,.12,.09,.26,.15,.41,.19,.07,.03,.14,.04,.22,.05,.07,.01,.15,.02,.22,.02,.08,0,.15,0,.23-.02,.07,0,.15-.02,.22-.05,.03,0,.05-.01,.08-.02l23.77-8.95c.58-.22,.97-.78,.97-1.4v-28.83c0-.07-.01-.15-.02-.22Z"/><path class="e" d="M93.29,124.95l-3.58-1.35-.17-.06-.99,2.83,3.75,1.41,.54-1.56,1.91-.72-1.46-.55Zm6.84,2.57c.17,.13,.37,.23,.57,.29l.1-.04-.67-.25Zm-6.84-2.57l-3.58-1.35-.17-.06-.99,2.83,3.75,1.41,.54-1.56,1.91-.72-1.46-.55Zm-11.73-4.41v3.2l3,1.13v-3.21l-3-1.12Zm19.24,7.23l-.67-.25c.17,.13,.37,.23,.57,.29,.13,.04,.25,.07,.39,.08l-.29-.12Zm-7.51-2.82l-3.58-1.35-.17-.06-.99,2.83,3.75,1.41,.54-1.56,1.91-.72-1.46-.55Zm7.51,2.82l-.67-.25c.17,.13,.37,.23,.57,.29,.13,.04,.25,.07,.39,.08l-.29-.12Zm-1.51,3.84v24.42l-5.98-2.25-3-1.13v3.21l3,1.13,6.96,2.62s.05,.02,.08,.02c.07,.03,.14,.04,.22,.05,.07,.01,.15,.02,.22,.02,.08,0,.15,0,.23-.02,.07,0,.15-.02,.22-.05,.14-.04,.28-.1,.41-.19,.4-.29,.64-.75,.64-1.24v-27.72l-3,1.13Zm1.51-3.84l-.67-.25c.17,.13,.37,.23,.57,.29,.13,.04,.25,.07,.39,.08l-.29-.12Zm-7.51-2.82l-3.58-1.35-.17-.06-.99,2.83,3.75,1.41,.54-1.56,1.91-.72-1.46-.55Zm-17.76,9.93v3.21l1.7,.64-1.7,.64v3.21l3-1.13v-5.44l-3-1.13Z"/><g><polygon class="e" points="81.56 117.13 84.56 116 84.56 119.2 81.56 120.33 81.56 117.13"/><path class="e" d="M97.51,111.38l1.05,2.55-3.73,1.4-2.78,1.05,.19-.53,1.1-3.16h.01l4.06-1.52c.04,.07,.07,.14,.1,.21Z"/><path class="e" d="M126.06,120.43h0c0,.18-.03,.36-.09,.53-.23,.6-.8,.97-1.41,.97-.17,0-.35-.03-.53-.09l-3.73-1.41-11.66-4.38-.32-.12-3-1.13v-3.21l3,1.13,.53,.2,5.95,2.24,10.2,3.84,.09,.03c.15,.06,.29,.13,.4,.23,.06,.05,.12,.1,.17,.16,.16,.16,.27,.36,.33,.57,.02,.08,.04,.15,.05,.22,.01,.07,.02,.15,.02,.22Z"/></g><path class="e" d="M105.32,129.27v.07l-3.03,1.14v3.2l5.06-1.9c.59-.22,.97-.78,.97-1.4v-2.24l-3,1.13Zm0-12.7v9.5l3-1.13v-8.85c-1.01,.16-2.01,.31-3,.48Zm-12.29,17.39l-3.91,1.48-4.56,1.71v-17.95l-3,1.13v18.99c0,.32,.1,.63,.28,.88l2.72-1.02,5.75-2.17v1.18l3-1.13,5.98-2.25v-3.2l-6.26,2.35Zm12.29-4.69v.07l-3.03,1.14v3.2l5.06-1.9c.59-.22,.97-.78,.97-1.4v-2.24l-3,1.13Zm0-12.7v9.5l3-1.13v-8.85c-1.01,.16-2.01,.31-3,.48Zm-12.29,17.39l-3.91,1.48-4.56,1.71v-17.95l-3,1.13v18.99c0,.32,.1,.63,.28,.88l2.72-1.02,5.75-2.17v1.18l3-1.13,5.98-2.25v-3.2l-6.26,2.35Zm12.29-4.69v.07l-3.03,1.14v3.2l5.06-1.9c.59-.22,.97-.78,.97-1.4v-2.24l-3,1.13Zm0-12.7v9.5l3-1.13v-8.85c-1.01,.16-2.01,.31-3,.48Zm-12.29,17.39l-3.91,1.48-4.56,1.71v-17.95l-3,1.13v18.99c0,.32,.1,.63,.28,.88l2.72-1.02,5.75-2.17v1.18l3-1.13,5.98-2.25v-3.2l-6.26,2.35Zm12.29-4.69v.07l-3.03,1.14v3.2l5.06-1.9c.59-.22,.97-.78,.97-1.4v-2.24l-3,1.13Zm0-12.7v9.5l3-1.13v-8.85c-1.01,.16-2.01,.31-3,.48Zm-12.29,17.39l-3.91,1.48-4.56,1.71v-17.95l-3,1.13v18.99c0,.32,.1,.63,.28,.88l2.72-1.02,5.75-2.17v1.18l3-1.13,5.98-2.25v-3.2l-6.26,2.35Zm12.29-4.69v.07l-3.03,1.14v3.2l5.06-1.9c.59-.22,.97-.78,.97-1.4v-2.24l-3,1.13Zm0-12.7v9.5l3-1.13v-8.85c-1.01,.16-2.01,.31-3,.48Zm-12.29,17.39l-3.91,1.48-4.56,1.71v-17.95l-3,1.13v18.99c0,.32,.1,.63,.28,.88l2.72-1.02,5.75-2.17v1.18l3-1.13,5.98-2.25v-3.2l-6.26,2.35Zm12.29-4.69v.07l-3.03,1.14v3.2l5.06-1.9c.59-.22,.97-.78,.97-1.4v-2.24l-3,1.13Zm0-12.7v9.5l3-1.13v-8.85c-1.01,.16-2.01,.31-3,.48Zm-12.29,17.39l-3.91,1.48-4.56,1.71v-17.95l-3,1.13v18.99c0,.32,.1,.63,.28,.88l2.72-1.02,5.75-2.17v1.18l3-1.13,5.98-2.25v-3.2l-6.26,2.35Zm12.29-4.62l-3.03,1.14v3.2l5.06-1.9c.59-.22,.97-.78,.97-1.4v-2.24l-3,1.13v.07Zm0-12.77v9.5l3-1.13v-8.85c-1.01,.16-2.01,.31-3,.48Zm-16.2,18.87l-4.56,1.71v-17.95l-3,1.13v18.99c0,.32,.1,.63,.28,.88l2.72-1.02,5.75-2.17v1.18l3-1.13,5.98-2.25v-3.2l-6.26,2.35-3.91,1.48Zm19.19-34.07c-.01-.06-.02-.11-.03-.17-.01-.06-.03-.12-.06-.18-.02-.06-.04-.11-.07-.16-.05-.11-.12-.21-.2-.3-.03-.03-.06-.07-.1-.1-.05-.05-.1-.09-.15-.12-.05-.04-.1-.07-.16-.1-.06-.04-.12-.07-.19-.09l-.09-.03c-.31-.1-.64-.09-.96,.03l-3.72,1.4-19.52,7.34-.53,.2c-.59,.22-.97,.78-.97,1.4v28.83c0,.32,.1,.63,.28,.88,.1,.13,.22,.25,.36,.35,.06,.04,.13,.08,.2,.12l.13,.05s.08,.03,.12,.04c.06,.02,.12,.03,.19,.04,.07,.02,.15,.02,.22,.02,.08,0,.15-.01,.22-.02,.07-.01,.13-.02,.19-.04,.09-.02,.17-.05,.24-.09l6.6-2.48,3-1.13,5.98-2.25,3-1.13,5.06-1.9c.59-.22,.97-.78,.97-1.4v-28.83c0-.06,0-.12-.01-.18Zm-2.99,27.97l-3.03,1.14-3,1.13-6.26,2.35-3.91,1.48-4.56,1.71v-25.62l20.76-7.81v25.62Zm-12.29,4.62l-3.91,1.48-4.56,1.71v-17.95l-3,1.13v18.99c0,.32,.1,.63,.28,.88l2.72-1.02,5.75-2.17v1.18l3-1.13,5.98-2.25v-3.2l-6.26,2.35Zm12.29-17.39v9.5l3-1.13v-8.85c-1.01,.16-2.01,.31-3,.48Zm0,12.7v.07l-3.03,1.14v3.2l5.06-1.9c.59-.22,.97-.78,.97-1.4v-2.24l-3,1.13Zm-12.29,4.69l-3.91,1.48-4.56,1.71v-17.95l-3,1.13v18.99c0,.32,.1,.63,.28,.88l2.72-1.02,5.75-2.17v1.18l3-1.13,5.98-2.25v-3.2l-6.26,2.35Zm12.29-17.39v9.5l3-1.13v-8.85c-1.01,.16-2.01,.31-3,.48Zm0,12.7v.07l-3.03,1.14v3.2l5.06-1.9c.59-.22,.97-.78,.97-1.4v-2.24l-3,1.13Zm-12.29,4.69l-3.91,1.48-4.56,1.71v-17.95l-3,1.13v18.99c0,.32,.1,.63,.28,.88l2.72-1.02,5.75-2.17v1.18l3-1.13,5.98-2.25v-3.2l-6.26,2.35Zm12.29-17.39v9.5l3-1.13v-8.85c-1.01,.16-2.01,.31-3,.48Zm0,12.7v.07l-3.03,1.14v3.2l5.06-1.9c.59-.22,.97-.78,.97-1.4v-2.24l-3,1.13Zm-12.29,4.69l-3.91,1.48-4.56,1.71v-17.95l-3,1.13v18.99c0,.32,.1,.63,.28,.88l2.72-1.02,5.75-2.17v1.18l3-1.13,5.98-2.25v-3.2l-6.26,2.35Zm12.29-17.39v9.5l3-1.13v-8.85c-1.01,.16-2.01,.31-3,.48Zm0,12.7v.07l-3.03,1.14v3.2l5.06-1.9c.59-.22,.97-.78,.97-1.4v-2.24l-3,1.13Zm-12.29,4.69l-3.91,1.48-4.56,1.71v-17.95l-3,1.13v18.99c0,.32,.1,.63,.28,.88l2.72-1.02,5.75-2.17v1.18l3-1.13,5.98-2.25v-3.2l-6.26,2.35Zm12.29-17.39v9.5l3-1.13v-8.85c-1.01,.16-2.01,.31-3,.48Zm0,12.7v.07l-3.03,1.14v3.2l5.06-1.9c.59-.22,.97-.78,.97-1.4v-2.24l-3,1.13Zm-12.29,4.69l-3.91,1.48-4.56,1.71v-17.95l-3,1.13v18.99c0,.32,.1,.63,.28,.88l2.72-1.02,5.75-2.17v1.18l3-1.13,5.98-2.25v-3.2l-6.26,2.35Zm12.29-17.39v9.5l3-1.13v-8.85c-1.01,.16-2.01,.31-3,.48Zm0,12.7v.07l-3.03,1.14v3.2l5.06-1.9c.59-.22,.97-.78,.97-1.4v-2.24l-3,1.13Z"/><path class="e" d="M83.06,121.1c-.5,.13-1.01,.25-1.5,.38v15.67l-.07-.03-2.96-1.11-3-1.13-13.54-5.09-3.91,1.47c.17,.23,.4,.41,.68,.52l16.77,6.31,1.7,.64,1.3,.49,2.96,1.11,.91,.34,.13,.05s.08,.03,.12,.04c.06,.02,.12,.03,.19,.04,.07,.02,.15,.02,.22,.02,.08,0,.15-.01,.22-.02,.07-.01,.13-.02,.19-.04,.09-.02,.17-.05,.24-.09s.14-.08,.2-.12c.41-.28,.65-.74,.65-1.23v-17.66l-1.5-.56Zm0,0c-.5,.13-1.01,.25-1.5,.38v15.67l-.07-.03-2.96-1.11-3-1.13-13.54-5.09-3.91,1.47c.17,.23,.4,.41,.68,.52l16.77,6.31,1.7,.64,1.3,.49,2.96,1.11,.35-.13,2.72-1.02v-17.52l-1.5-.56Zm0,0c-.5,.13-1.01,.25-1.5,.38v15.67l-.07-.03-2.96-1.11-3-1.13-13.54-5.09-3.91,1.47c.17,.23,.4,.41,.68,.52l16.77,6.31,1.7,.64,1.3,.49,2.96,1.11,.35-.13,2.72-1.02v-17.52l-1.5-.56Zm0,0c-.5,.13-1.01,.25-1.5,.38v15.67l-.07-.03-2.96-1.11-3-1.13-13.54-5.09-3.91,1.47c.17,.23,.4,.41,.68,.52l16.77,6.31,1.7,.64,1.3,.49,2.96,1.11,.35-.13,2.72-1.02v-17.52l-1.5-.56Zm-1.5,18.22v-2.17l-.07-.03-2.96-1.11-3-1.13-13.54-5.09-3.91,1.47c.17,.23,.4,.41,.68,.52l16.77,6.31,1.7,.64,1.3,.49,2.96,1.11,.35-.13c-.18-.25-.28-.56-.28-.88Zm0,0v-2.17l-.07-.03-2.96-1.11-3-1.13-13.54-5.09-3.91,1.47c.17,.23,.4,.41,.68,.52l16.77,6.31,1.7,.64,1.3,.49,2.96,1.11,.35-.13c-.18-.25-.28-.56-.28-.88Zm0,0v-2.17l-.07-.03-2.96-1.11-3-1.13-13.54-5.09-3.91,1.47c.17,.23,.4,.41,.68,.52l16.77,6.31,1.7,.64,1.3,.49,2.96,1.11,.35-.13c-.18-.25-.28-.56-.28-.88Zm0,0v-2.17l-.07-.03-2.96-1.11-3-1.13-13.54-5.09-3.91,1.47c.17,.23,.4,.41,.68,.52l16.77,6.31,1.7,.64,1.3,.49,2.96,1.11,.35-.13c-.18-.25-.28-.56-.28-.88Zm0,0v-2.17l-.07-.03-2.96-1.11-3-1.13-13.54-5.09-3.91,1.47c.17,.23,.4,.41,.68,.52l16.77,6.31,1.7,.64,1.3,.49,2.96,1.11,.35-.13c-.18-.25-.28-.56-.28-.88Zm0,0v-2.17l-.07-.03-2.96-1.11-3-1.13-13.54-5.09-3.91,1.47c.17,.23,.4,.41,.68,.52l16.77,6.31,1.7,.64,1.3,.49,2.96,1.11,.35-.13c-.18-.25-.28-.56-.28-.88Zm0,0v-2.17l-.07-.03-2.96-1.11-3-1.13-13.54-5.09-3.91,1.47c.17,.23,.4,.41,.68,.52l16.77,6.31,1.7,.64,1.3,.49,2.96,1.11,.35-.13c-.18-.25-.28-.56-.28-.88Zm2.03-30.23l-.53-.2-19.52-7.34-3.72-1.4c-.32-.12-.66-.13-.97-.03l-.09,.03c-.08,.03-.16,.07-.24,.12-.06,.03-.11,.06-.16,.11-.1,.07-.18,.16-.25,.25-.04,.05-.07,.1-.1,.15-.04,.06-.07,.12-.09,.18-.03,.06-.05,.13-.07,.19s-.03,.12-.04,.17c-.01,.08-.02,.15-.02,.23v28.83c0,.32,.11,.63,.29,.88,.17,.23,.4,.41,.68,.52l16.77,6.31,1.7,.64,1.3,.49,2.96,1.11,.91,.34,.13,.05s.08,.03,.12,.04c.06,.02,.12,.03,.19,.04,.07,.02,.15,.02,.22,.02,.08,0,.15-.01,.22-.02,.07-.01,.13-.02,.19-.04,.09-.02,.17-.05,.24-.09s.14-.08,.2-.12c.41-.28,.65-.74,.65-1.23v-28.83c0-.62-.39-1.18-.97-1.4Zm-2.03,28.06l-.07-.03-2.96-1.11-3-1.13-13.54-5.09-1.2-.45v-25.62l20.77,7.81v25.62Zm0,2.17v-2.17l-.07-.03-2.96-1.11-3-1.13-13.54-5.09-3.91,1.47c.17,.23,.4,.41,.68,.52l16.77,6.31,1.7,.64,1.3,.49,2.96,1.11,.35-.13c-.18-.25-.28-.56-.28-.88Zm0,0v-2.17l-.07-.03-2.96-1.11-3-1.13-13.54-5.09-3.91,1.47c.17,.23,.4,.41,.68,.52l16.77,6.31,1.7,.64,1.3,.49,2.96,1.11,.35-.13c-.18-.25-.28-.56-.28-.88Zm0,0v-2.17l-.07-.03-2.96-1.11-3-1.13-13.54-5.09-3.91,1.47c.17,.23,.4,.41,.68,.52l16.77,6.31,1.7,.64,1.3,.49,2.96,1.11,.35-.13c-.18-.25-.28-.56-.28-.88Zm0,0v-2.17l-.07-.03-2.96-1.11-3-1.13-13.54-5.09-3.91,1.47c.17,.23,.4,.41,.68,.52l16.77,6.31,1.7,.64,1.3,.49,2.96,1.11,.35-.13c-.18-.25-.28-.56-.28-.88Zm0,0v-2.17l-.07-.03-2.96-1.11-3-1.13-13.54-5.09-3.91,1.47c.17,.23,.4,.41,.68,.52l16.77,6.31,1.7,.64,1.3,.49,2.96,1.11,.35-.13c-.18-.25-.28-.56-.28-.88Zm0,0v-2.17l-.07-.03-2.96-1.11-3-1.13-13.54-5.09-3.91,1.47c.17,.23,.4,.41,.68,.52l16.77,6.31,1.7,.64,1.3,.49,2.96,1.11,.35-.13c-.18-.25-.28-.56-.28-.88Zm1.5-18.22c-.5,.13-1.01,.25-1.5,.38v15.67l-.07-.03-2.96-1.11-3-1.13-13.54-5.09-3.91,1.47c.17,.23,.4,.41,.68,.52l16.77,6.31,1.7,.64,1.3,.49,2.96,1.11,.35-.13,2.72-1.02v-17.52l-1.5-.56Zm0,0c-.5,.13-1.01,.25-1.5,.38v15.67l-.07-.03-2.96-1.11-3-1.13-13.54-5.09-3.91,1.47c.17,.23,.4,.41,.68,.52l16.77,6.31,1.7,.64,1.3,.49,2.96,1.11,.35-.13,2.72-1.02v-17.52l-1.5-.56Zm-4.53,14.91v2.23l2.96-1.12-2.96-1.11Zm3.03-12.27v13.36l3-1.13v-11.1l-3-1.13Zm1.5-2.64c-.5,.13-1.01,.25-1.5,.38v15.67l-.07-.03-2.96-1.11-3-1.13-13.54-5.09-3.91,1.47c.17,.23,.4,.41,.68,.52l16.77,6.31,1.7,.64,1.3,.49,2.96,1.11,.35-.13,2.72-1.02v-17.52l-1.5-.56Zm0,0c-.5,.13-1.01,.25-1.5,.38v15.67l-.07-.03-2.96-1.11-3-1.13-13.54-5.09-3.91,1.47c.17,.23,.4,.41,.68,.52l16.77,6.31,1.7,.64,1.3,.49,2.96,1.11,.91,.34,.13,.05s.08,.03,.12,.04c.06,.02,.12,.03,.19,.04,.07,.02,.15,.02,.22,.02,.08,0,.15-.01,.22-.02,.07-.01,.13-.02,.19-.04,.09-.02,.17-.05,.24-.09s.14-.08,.2-.12c.41-.28,.65-.74,.65-1.23v-17.66l-1.5-.56Z"/><path class="e" d="M106.82,103.05c-.18,0-.35-.03-.53-.1l-23.24-8.74-23.24,8.74c-.77,.29-1.64-.1-1.93-.88-.29-.78,.1-1.64,.88-1.93l23.77-8.94c.34-.13,.72-.13,1.06,0l23.77,8.94c.78,.29,1.17,1.16,.88,1.93-.23,.6-.8,.97-1.4,.97Z"/><path class="e" d="M185.48,143.86c-.01-.06-.03-.11-.05-.16-.02-.06-.05-.11-.08-.17-.05-.11-.12-.21-.21-.3-.05-.06-.11-.11-.17-.16-.11-.1-.25-.18-.4-.23l-.09-.03c-.31-.1-.65-.09-.97,.03l-3.73,1.41h-.01l-19.49,7.33-.53,.2c-.59,.22-.98,.78-.98,1.41v28.82c0,.5,.25,.96,.65,1.24,.12,.08,.26,.15,.41,.19,.07,.03,.14,.04,.22,.05,.07,.01,.15,.02,.22,.02s.15-.01,.22-.02c.08-.01,.15-.02,.23-.05,.03,0,.05-.01,.08-.02l23.77-8.94c.58-.22,.97-.78,.97-1.41v-28.82c0-.13-.02-.26-.06-.39Zm-2.94,28.17l-20.77,7.82v-25.62l20.77-7.82v25.62Z"/><path class="e" d="M160.8,151.78l-.52-.2-19.51-7.33-3.73-1.41c-.32-.12-.66-.13-.98-.03l-.08,.03c-.07,.02-.13,.05-.19,.09-.07,.04-.13,.08-.19,.12-.12,.09-.23,.2-.32,.33-.04,.05-.07,.11-.1,.17-.03,.05-.05,.11-.07,.16-.02,.05-.04,.11-.05,.16-.02,.02-.02,.03-.01,.04l-.03,.15c0,.07,0,.13,0,.19v28.82c0,.63,.38,1.19,.97,1.41l23.77,8.94s.05,.02,.08,.02c.07,.03,.14,.04,.22,.05,.07,.01,.15,.02,.22,.02s.15-.01,.22-.02c.08-.01,.15-.02,.23-.05,.14-.04,.28-.11,.41-.19,.4-.28,.64-.74,.64-1.24v-28.82c0-.63-.38-1.19-.97-1.41Zm-22.79-5.37l20.76,7.82v25.62l-20.76-7.82v-25.62Z"/><path class="e" d="M184.04,145.75c-.18,0-.35-.03-.53-.1l-23.24-8.74-23.24,8.74c-.77,.29-1.64-.1-1.93-.88-.29-.78,.1-1.64,.88-1.93l23.77-8.94c.34-.13,.72-.13,1.06,0l23.77,8.94c.78,.29,1.17,1.16,.88,1.93-.23,.6-.8,.97-1.4,.97Z"/><path class="e" d="M294.39,145.56l-.34-1.46-.56-2.34-.73-3-.16-.68-.17-.72-.18-.73c-.18-.76-.91-1.25-1.67-1.14l-.14,.03-7.69,1.84-5.85,1.4-12.55,3-11,2.63c-.38,.1-.72,.34-.93,.69-.21,.33-.27,.73-.18,1.12l.34,1.46,1.45,6.02,.35,1.46c.18,.76,.92,1.25,1.66,1.14l.14-.03,37.1-8.88c.39-.09,.72-.34,.93-.68,.21-.33,.27-.75,.18-1.13Zm-37.45,7.42l-1.44-6.01,21.77-5.21,12.41-2.97h.01l.71,2.97,.73,3.04-34.19,8.18Z"/><path class="e" d="M301.24,143.92l-.85-3.53v-.04l-.73-3.01-.22-.92-.34-1.44c-.01-.06-.03-.11-.05-.16-.19-.53-.66-.9-1.2-.97h-.03c-.12-.02-.26-.02-.39,0l-.14,.03-1.95,.47h-.01l-4.75,1.14-.14,.03c-.38,.09-.72,.33-.92,.67-.22,.34-.28,.75-.19,1.13v.04l.34,1.4v.03l.73,2.97,.73,3.04,.34,1.45c.19,.82,1,1.3,1.81,1.12l6.85-1.64c.39-.1,.72-.34,.93-.67,.2-.35,.27-.75,.18-1.14Zm-7.19,.18h-.01l-.56-2.34-.72-3-.16-.68,3.14-.75,.79-.19,.02,.1,.31,1.3,.7,2.92,.41,1.7-3.92,.94Z"/><path class="e" d="M257.29,154.44l-.35-1.46-1.44-6.01-.34-1.47c-.1-.38-.34-.72-.67-.92-.31-.19-.66-.26-1.01-.21l-.13,.02-4.93,1.18c-.8,.2-1.3,1.01-1.11,1.81l.05,.25,.73,3.01,.58,2.43,.72,2.99,.06,.26c.09,.39,.33,.72,.67,.93,.34,.2,.75,.27,1.13,.18l4.79-1.15,.14-.03c.81-.19,1.31-1,1.11-1.81Zm-5.28-.28l-1.44-6.01h.01l2-.49,1.45,6.02-2.02,.48Z"/><path class="e" d="M252.03,154.23l-.02-.07-1.43-6.01-.02-.07c-.1-.45-.41-.82-.83-1.02-.27-.11-.56-.16-.85-.12-.16,.02-.32,.08-.46,.15l-1.06,.54-7.07,3.66c-.61,.32-.92,1.01-.76,1.68l.45,1.89c.16,.68,.75,1.15,1.44,1.15l7.97,.05h1.17c.46,.02,.9-.19,1.19-.55,.29-.36,.39-.83,.28-1.28Zm-8.56-1.21l4.62-2.38,.58,2.43-5.2-.05Z"/><path class="e" d="M262.07,165.86h-.21l-38.06-.84c-.4,0-.79,.15-1.08,.43-.28,.27-.44,.64-.46,1.04l-.03,1.5-.16,7.69c-.02,.78,.57,1.44,1.32,1.52h.18l38.09,.84c.4,0,.79-.14,1.07-.42,.29-.27,.46-.66,.47-1.05l.04-1.5,.12-6.19,.04-1.49c.01-.79-.57-1.44-1.33-1.53Zm-36.84,2.2l35.13,.76h.01l-.13,6.18-35.14-.76,.13-6.18Z"/><path class="e" d="M269.11,166.02l-.14-.02-6.9-.14h-.21c-.37,0-.73,.15-1,.41-.29,.27-.45,.65-.46,1.05l-.04,1.5-.12,6.18-.04,1.5c-.02,.83,.64,1.51,1.46,1.54l7.05,.15c.4,0,.78-.15,1.07-.42,.28-.28,.45-.65,.46-1.05l.2-9.19c.02-.78-.57-1.43-1.33-1.51Zm-1.84,9.13l-4.03-.08h-.01l.13-6.19,4.05,.09-.14,6.18Z"/><path class="e" d="M224.85,165.49c-.24-.26-.57-.41-.92-.45l-.13-.02-5.07-.11c-.83,0-1.51,.65-1.54,1.47v.25l-.06,3.1-.06,2.49-.06,3.09v.26c-.02,.4,.13,.78,.4,1.07,.27,.28,.66,.45,1.05,.46l4.93,.1h.18c.81,.01,1.48-.64,1.49-1.46l.04-1.5,.13-6.18,.04-1.51c0-.39-.15-.78-.42-1.06Zm-4.69,2.46h.01l2.06,.04-.14,6.19-2.06-.05,.13-6.18Z"/><path class="e" d="M219.62,166.68c-.24-.17-.5-.3-.79-.33-.16-.01-.33,0-.49,.03l-1.15,.25-7.77,1.75c-.67,.15-1.15,.74-1.17,1.43l-.04,1.94c-.02,.7,.44,1.31,1.1,1.48l7.7,2.08,1.12,.3c.45,.12,.92,.03,1.3-.25,.37-.27,.59-.69,.6-1.16v-.07l.14-6.18v-.07c.01-.46-.19-.9-.55-1.2Zm-2.55,5.54l-5.02-1.36,5.08-1.13-.06,2.49Z"/><path class="e" d="M116.65,172.86l-.14-.02-33.94-4.09-3.93-.47c-.4-.05-.8,.06-1.11,.31-.32,.24-.52,.61-.57,1l-.16,1.34-.02,.15-.73,6.14-.18,1.49c-.09,.78,.42,1.49,1.17,1.65l.14,.02,37.87,4.56c.39,.04,.79-.07,1.11-.31,.3-.25,.5-.6,.56-1l.18-1.48,.91-7.64c.09-.78-.43-1.49-1.16-1.65Zm-37.63,4.72l.74-6.14,34.9,4.2-.74,6.14-34.89-4.2h-.01Z"/><path class="e" d="M78.64,168.28l-2.52-.3-4.48-.54c-.4-.05-.79,.06-1.11,.3-.3,.26-.51,.61-.56,1.01l-.19,1.62-.23,1.86-.11,.95-.07,.54-.5,4.15c-.09,.78,.43,1.48,1.18,1.64l.13,.03,6.86,.82,.14,.02c.39,.05,.79-.06,1.1-.31,.32-.24,.52-.61,.57-1l.18-1.49,.73-6.14,.18-1.49c.01-.07,.01-.14,.01-.21-.01-.74-.56-1.36-1.31-1.46Zm-6.1,4.25l.23-1.93,3.71,.44,.3,.04h.01l-.74,6.14-4.02-.48,.51-4.21Z"/><path class="e" d="M122.54,174.01c-.25-.31-.61-.52-1-.56l-4.89-.59-.14-.02c-.83-.1-1.58,.49-1.67,1.31l-.18,1.49-.74,6.14-.19,1.49c-.04,.39,.07,.8,.31,1.1,.22,.28,.53,.47,.87,.54l.14,.03,5.03,.61c.82,.09,1.57-.5,1.67-1.31l.03-.25,.37-3.07,.3-2.49,.36-3.06,.03-.26c.06-.39-.05-.78-.3-1.1Zm-4.9,1.98l2.05,.26-.74,6.14h-.01l-2.04-.24,.74-6.16Z"/><path class="e" d="M130.27,178.19l-7.46-2.82-1.09-.41c-.43-.17-.91-.12-1.31,.12-.4,.23-.66,.64-.71,1.1v.07l-.76,6.13v.07c-.06,.46,.1,.92,.43,1.25,.21,.2,.47,.35,.75,.41,.16,.03,.33,.03,.49,.02l1.17-.14,7.9-.98c.69-.09,1.22-.63,1.3-1.31l.24-1.93c.08-.69-.31-1.34-.95-1.58Zm-8.12,2.73l.3-2.49,4.86,1.85-5.16,.64Z"/><path class="e" d="M51.11,160.67c-.83,0-1.5-.67-1.5-1.5v-14.68c0-.83,.67-1.5,1.5-1.5s1.5,.67,1.5,1.5v14.68c0,.83-.67,1.5-1.5,1.5Z"/><path class="e" d="M58.88,145.06l-7.12-2.46c-.61-.21-1.28-.11-1.81,.26-.53,.38-.84,.99-.84,1.63v7.34c0,.5,.18,.97,.5,1.32,.22,.26,.51,.45,.85,.57l2.15,.74,2.7,.94c.58,.2,1.18,.3,1.78,.3,1.13,0,2.24-.35,3.18-1.01,.38-.27,.73-.59,1.02-.95,.81-.97,1.27-2.21,1.27-3.51,0-2.33-1.48-4.41-3.68-5.17Zm-5.77,2.24l4.46,1.54c.6,.21,.99,.77,.99,1.39,0,.48-.22,.92-.61,1.2-.25,.18-.55,.27-.84,.27-.17,0-.33-.02-.49-.08l-3.51-1.21v-3.11Z"/><path class="e" d="M61.29,153.74c-.54-.47-1.17-.85-1.87-1.1l-6.31-2.23-.5-.17-.83-.29c-.61-.22-1.3-.13-1.82,.25-.13,.09-.24,.19-.35,.31-.32,.36-.5,.83-.5,1.32v7.61c0,.85,.54,1.6,1.34,1.89l5.25,1.85c.61,.21,1.23,.31,1.86,.31,1.14,0,2.27-.34,3.23-1.02,1.48-1.05,2.36-2.75,2.36-4.56,0-1.62-.7-3.13-1.86-4.17Zm-2.81,5.46c-.43,.31-.95,.38-1.45,.2l-3.92-1.38v-3.36l4.98,1.75c.63,.22,1.06,.83,1.06,1.5,0,.52-.25,.99-.67,1.29Z"/><path class="e" d="M103.01,126.94c-.21,.36-.54,.65-.95,.82-.31,.12-.63,.17-.93,.14-.02,0-.03,0-.04-.01-.14-.01-.26-.04-.39-.08-.2-.06-.4-.16-.57-.29h-.01c-.29-.21-.52-.5-.67-.86l-1.04-2.54-1.52-3.7-.9-2.18-.19-.47-.19,.54-1.04,2.98-1.28,3.66-.45,1.27-.54,1.56-1.22,3.48c-.21,.61-.68,1.04-1.25,1.23-.2,.07-.42,.11-.64,.11s-.44-.03-.66-.11c-.46-.16-.83-.48-1.05-.88h-.01c-.29-.49-.37-1.09-.17-1.67l1.25-3.57,.99-2.83,1.51-4.29,1-2.87,.19-.53,1.1-3.16h.01l.42-1.21c.27-.79,1-1.32,1.83-1.34,.78-.05,1.45,.38,1.81,1.03,.04,.07,.07,.14,.1,.21l1.05,2.55,.26,.65,1.19,2.9,3.14,7.67c.25,.61,.18,1.27-.14,1.79Z"/><path class="e" d="M99.82,123.59l-1.41,.53-3.66,1.38-1.91,.72-.72,.27c-.23,.09-.47,.13-.7,.13-.81,0-1.57-.5-1.87-1.3-.22-.59-.15-1.22,.16-1.72,.21-.38,.56-.69,1.01-.86l3.85-1.45,2.32-.87,1.52-.57c1.03-.39,2.19,.13,2.57,1.17,.39,1.03-.13,2.18-1.16,2.57Z"/><path class="e" d="M112.18,150.44c-.36,0-.71-.03-1.07-.08-4.7-.71-7.82-5.95-6.96-11.7,.4-2.69,1.61-5.12,3.41-6.83,1.93-1.85,4.31-2.67,6.68-2.31,2.63,.39,4.86,2.2,6.1,4.95,.46,1.01,0,2.19-1,2.65-1.01,.46-2.19,0-2.65-1-.67-1.49-1.79-2.45-3.05-2.64-1.13-.17-2.3,.27-3.32,1.25-1.16,1.1-1.94,2.71-2.22,4.53-.53,3.5,1.12,6.78,3.6,7.15,1.76,.26,3.62-.98,4.72-3.17,.5-.99,1.7-1.39,2.68-.89s1.39,1.7,.89,2.68c-1.7,3.38-4.68,5.41-7.81,5.41Z"/><path class="e" d="M149.71,153.63c-1.14-.68-2.4-1.26-3.62-1.68-1.06-.37-3.64-1.13-4.8-.31-.53,.38-.85,1-.85,1.65v15.7c0,.64,.31,1.25,.83,1.62,1.84,1.34,4.8,2.55,7.59,2.55,.58,0,1.16-.06,1.72-.17,1.86-.39,3.33-1.43,4.25-3,2.74-4.66,1.31-12.52-5.12-16.36Zm1.68,14.33c-.36,.6-.87,.95-1.63,1.11-1.55,.33-3.73-.29-5.32-1.18v-12.24c.16,.03,.28,.06,.34,.08,.98,.34,1.97,.8,2.88,1.34,3.47,2.07,5.85,7.28,3.73,10.89Z"/><path class="e" d="M250.17,118.69v.83c1.01,.21,2.01,.44,3,.67v-1.5h-3Zm0-20.07v3h3v-3h-3Zm0,20.07v.83c1.01,.21,2.01,.44,3,.67v-1.5h-3Zm0-20.07v3h3v-3h-3Zm0,20.07v.83c1.01,.21,2.01,.44,3,.67v-1.5h-3Zm0-20.07v3h3v-3h-3Zm0,20.07v.83c1.01,.21,2.01,.44,3,.67v-1.5h-3Zm0-20.07v3h3v-3h-3Zm0,20.07v.83c1.01,.21,2.01,.44,3,.67v-1.5h-3Zm0-20.07v3h3v-3h-3Zm0,20.07v.83c1.01,.21,2.01,.44,3,.67v-1.5h-3Zm0-20.07v3h3v-3h-3Zm0,20.07v.83c1.01,.21,2.01,.44,3,.67v-1.5h-3Zm0-20.07v3h3v-3h-3Zm13.37,20.07v3h3v-3h-3Zm-13.37-20.07v3h3v-3h-3Zm13.37-20.06v3h3v-3h-3Zm-13.37-20.07v3h3v-3h-3Zm9.12-33.46h-1.87c-4,0-7.25,3.25-7.25,7.25v9.14h3v-9.14c0-2.34,1.91-4.25,4.25-4.25h1.87c2.34,0,4.25,1.91,4.25,4.25v9.14h3v-9.14c0-4-3.25-7.25-7.25-7.25Zm4.25,33.46v3h3v-3h-3Zm-13.37,20.07v3h3v-3h-3Zm13.37,20.06v3h3v-3h-3Zm-13.37,20.07v3h3v-3h-3Zm0,0v.83c1.01,.21,2.01,.44,3,.67v-1.5h-3Zm0-20.07v3h3v-3h-3Zm0,20.07v.83c1.01,.21,2.01,.44,3,.67v-1.5h-3Zm0-20.07v3h3v-3h-3Zm0,20.07v.83c1.01,.21,2.01,.44,3,.67v-1.5h-3Zm0-20.07v3h3v-3h-3Zm0,20.07v.83c1.01,.21,2.01,.44,3,.67v-1.5h-3Zm0-20.07v3h3v-3h-3Zm0,20.07v.83c1.01,.21,2.01,.44,3,.67v-1.5h-3Zm0-20.07v3h3v-3h-3Zm0,20.07v.83c1.01,.21,2.01,.44,3,.67v-1.5h-3Zm0-20.07v3h3v-3h-3Zm0,20.07v.83c1.01,.21,2.01,.44,3,.67v-1.5h-3Zm0-20.07v3h3v-3h-3Zm0,20.07v.83c1.01,.21,2.01,.44,3,.67v-1.5h-3Zm0-20.07v3h3v-3h-3Z"/><path class="e" d="M253.17,38.42v3h10.37v-3h-10.37Zm0,0v3h10.37v-3h-10.37Zm15.51,0h-20.65c-6.36,0-11.53,5.18-11.53,11.54,0,3.46,1.53,6.57,3.95,8.68,2.03,1.78,4.68,2.85,7.58,2.85h20.65c2.9,0,5.55-1.07,7.58-2.85,2.42-2.11,3.95-5.22,3.95-8.68,0-6.36-5.17-11.54-11.53-11.54Zm0,20.07h-20.65c-4.71,0-8.53-3.83-8.53-8.53s3.82-8.54,8.53-8.54h20.65c4.71,0,8.53,3.83,8.53,8.54s-3.82,8.53-8.53,8.53Zm-15.51-20.07v3h10.37v-3h-10.37Z"/><path class="e" d="M253.17,58.49v3h10.37v-3h-10.37Zm0,0v3h10.37v-3h-10.37Zm23.09,.15c-.61-.1-1.23-.15-1.87-.15h-32.07c-.64,0-1.26,.05-1.87,.15-5.48,.9-9.67,5.66-9.67,11.39,0,3.44,1.52,6.54,3.92,8.66,2.04,1.79,4.7,2.87,7.62,2.87h32.07c2.91,0,5.59-1.08,7.61-2.87,2.41-2.12,3.93-5.22,3.93-8.66,0-5.73-4.2-10.49-9.67-11.39Zm-1.87,19.92h-32.07c-4.71,0-8.54-3.83-8.54-8.53s3.83-8.54,8.54-8.54h32.07c4.71,0,8.54,3.83,8.54,8.54s-3.83,8.53-8.54,8.53Zm-21.22-20.07v3h10.37v-3h-10.37Zm0,0v3h10.37v-3h-10.37Z"/><path class="e" d="M236.43,98.62c-3.07,0-5.77-1.63-7.27-4.08,.73,1.29,1.33,2.66,1.8,4.08,.22,.62,.4,1.25,.56,1.9,1.49,.71,3.15,1.1,4.91,1.1h13.74v-3h-13.74Zm0,0c-3.07,0-5.77-1.63-7.27-4.08,.73,1.29,1.33,2.66,1.8,4.08,.22,.62,.4,1.25,.56,1.9,1.49,.71,3.15,1.1,4.91,1.1h13.74v-3h-13.74Zm0,0c-3.07,0-5.77-1.63-7.27-4.08,.73,1.29,1.33,2.66,1.8,4.08,.22,.62,.4,1.25,.56,1.9,1.49,.71,3.15,1.1,4.91,1.1h13.74v-3h-13.74Zm0,0c-3.07,0-5.77-1.63-7.27-4.08,.73,1.29,1.33,2.66,1.8,4.08,.22,.62,.4,1.25,.56,1.9,1.49,.71,3.15,1.1,4.91,1.1h13.74v-3h-13.74Zm0,0c-3.07,0-5.77-1.63-7.27-4.08,.73,1.29,1.33,2.66,1.8,4.08,.22,.62,.4,1.25,.56,1.9,1.49,.71,3.15,1.1,4.91,1.1h13.74v-3h-13.74Zm0,0c-3.07,0-5.77-1.63-7.27-4.08,.73,1.29,1.33,2.66,1.8,4.08,.22,.62,.4,1.25,.56,1.9,1.49,.71,3.15,1.1,4.91,1.1h13.74v-3h-13.74Zm0,0c-3.07,0-5.77-1.63-7.27-4.08,.73,1.29,1.33,2.66,1.8,4.08,.22,.62,.4,1.25,.56,1.9,1.49,.71,3.15,1.1,4.91,1.1h13.74v-3h-13.74Zm0,0c-3.07,0-5.77-1.63-7.27-4.08,.73,1.29,1.33,2.66,1.8,4.08,.22,.62,.4,1.25,.56,1.9,1.49,.71,3.15,1.1,4.91,1.1h13.74v-3h-13.74Zm0,0c-3.07,0-5.77-1.63-7.27-4.08,.73,1.29,1.33,2.66,1.8,4.08,.22,.62,.4,1.25,.56,1.9,1.49,.71,3.15,1.1,4.91,1.1h13.74v-3h-13.74Zm16.74-20.06v3h10.37v-3h-10.37Zm-24.01,15.98c.73,1.29,1.33,2.66,1.8,4.08h5.47c-3.07,0-5.77-1.63-7.27-4.08Zm24.01-15.98v3h10.37v-3h-10.37Zm-24.01,15.98c.73,1.29,1.33,2.66,1.8,4.08h5.47c-3.07,0-5.77-1.63-7.27-4.08Zm24.01-15.98v3h10.37v-3h-10.37Zm-24.01,15.98c.73,1.29,1.33,2.66,1.8,4.08h5.47c-3.07,0-5.77-1.63-7.27-4.08Zm52.84-15.85c-.56-.09-1.13-.13-1.72-.13h-43.85c-.59,0-1.17,.04-1.73,.13-5.18,.78-9.23,5.01-9.74,10.26-.04,.38-.06,.76-.06,1.14,0,1.49,.28,2.92,.81,4.23,.14,.37,.3,.73,.49,1.07,.16,.27,.32,.54,.47,.82,.12,.2,.25,.4,.39,.59,.47,.66,1.02,1.27,1.62,1.82,.84,.77,1.8,1.41,2.84,1.9,1.49,.71,3.15,1.1,4.91,1.1h43.85c2.98,0,5.7-1.13,7.75-3,2.32-2.11,3.78-5.15,3.78-8.53,0-5.77-4.26-10.57-9.81-11.4Zm-1.72,19.93h-43.85c-3.07,0-5.77-1.63-7.27-4.08,0-.01,0-.02-.02-.03-.11-.18-.22-.36-.31-.55-.59-1.16-.93-2.47-.93-3.87,0-4.7,3.83-8.53,8.53-8.53h43.85c4.7,0,8.53,3.83,8.53,8.53s-3.83,8.53-8.53,8.53Zm-51.12-4.08c.73,1.29,1.33,2.66,1.8,4.08h5.47c-3.07,0-5.77-1.63-7.27-4.08Zm24.01-15.98v3h10.37v-3h-10.37Zm-24.01,15.98c.73,1.29,1.33,2.66,1.8,4.08h5.47c-3.07,0-5.77-1.63-7.27-4.08Zm24.01-15.98v3h10.37v-3h-10.37Zm-24.01,15.98c.73,1.29,1.33,2.66,1.8,4.08h5.47c-3.07,0-5.77-1.63-7.27-4.08Zm7.27,4.08c-3.07,0-5.77-1.63-7.27-4.08,.73,1.29,1.33,2.66,1.8,4.08,.22,.62,.4,1.25,.56,1.9,1.49,.71,3.15,1.1,4.91,1.1h13.74v-3h-13.74Zm0,0c-3.07,0-5.77-1.63-7.27-4.08,.73,1.29,1.33,2.66,1.8,4.08,.22,.62,.4,1.25,.56,1.9,1.49,.71,3.15,1.1,4.91,1.1h13.74v-3h-13.74Zm0,0c-3.07,0-5.77-1.63-7.27-4.08,.73,1.29,1.33,2.66,1.8,4.08,.22,.62,.4,1.25,.56,1.9,1.49,.71,3.15,1.1,4.91,1.1h13.74v-3h-13.74Zm0,0c-3.07,0-5.77-1.63-7.27-4.08,.73,1.29,1.33,2.66,1.8,4.08,.22,.62,.4,1.25,.56,1.9,1.49,.71,3.15,1.1,4.91,1.1h13.74v-3h-13.74Zm0,0c-3.07,0-5.77-1.63-7.27-4.08,.73,1.29,1.33,2.66,1.8,4.08,.22,.62,.4,1.25,.56,1.9,1.49,.71,3.15,1.1,4.91,1.1h13.74v-3h-13.74Zm0,0c-3.07,0-5.77-1.63-7.27-4.08,.73,1.29,1.33,2.66,1.8,4.08,.22,.62,.4,1.25,.56,1.9,1.49,.71,3.15,1.1,4.91,1.1h13.74v-3h-13.74Zm0,0c-3.07,0-5.77-1.63-7.27-4.08,.73,1.29,1.33,2.66,1.8,4.08,.22,.62,.4,1.25,.56,1.9,1.49,.71,3.15,1.1,4.91,1.1h13.74v-3h-13.74Zm0,0c-3.07,0-5.77-1.63-7.27-4.08,.73,1.29,1.33,2.66,1.8,4.08,.22,.62,.4,1.25,.56,1.9,1.49,.71,3.15,1.1,4.91,1.1h13.74v-3h-13.74Zm0,0c-3.07,0-5.77-1.63-7.27-4.08,.73,1.29,1.33,2.66,1.8,4.08,.22,.62,.4,1.25,.56,1.9,1.49,.71,3.15,1.1,4.91,1.1h13.74v-3h-13.74Z"/><path class="e" d="M230.96,98.62c.22,.62,.4,1.25,.56,1.9-1.04-.49-2-1.13-2.84-1.9h-.91c-.63,.01-1.25,.07-1.85,.17-1.81,.32-3.48,1.06-4.89,2.13h-.01c-1.23,1.84-2.54,3.61-3.94,5.3h0c-.45,1.24-.69,2.56-.69,3.94,0,.3,.01,.6,.04,.89,.01,.16,.02,.31,.04,.47h0c.11,.93,.33,1.81,.64,2.65,.67,1.79,1.76,3.37,3.17,4.62,.48-.07,.97-.1,1.47-.1h6.17c-.75,0-1.48-.1-2.18-.28-2.15-.57-3.98-1.97-5.11-3.83-.58-.96-.98-2.04-1.15-3.19-.06-.4-.09-.81-.09-1.23,0-.85,.13-1.67,.36-2.45h0c.57-1.93,1.81-3.56,3.45-4.66h0c1.35-.9,2.96-1.43,4.71-1.43h35.62v-3h-32.58Zm0,0c.22,.62,.4,1.25,.56,1.9-1.04-.49-2-1.13-2.84-1.9h-.91c-.63,.01-1.25,.07-1.85,.17-1.81,.32-3.48,1.06-4.89,2.13h-.01c-1.23,1.84-2.54,3.61-3.94,5.3h0c-.45,1.24-.69,2.56-.69,3.94,0,.3,.01,.6,.04,.89,.01,.16,.02,.31,.04,.47h0c.11,.93,.33,1.81,.64,2.65,.67,1.79,1.76,3.37,3.17,4.62,.48-.07,.97-.1,1.47-.1h6.17c-.75,0-1.48-.1-2.18-.28-2.15-.57-3.98-1.97-5.11-3.83-.58-.96-.98-2.04-1.15-3.19-.06-.4-.09-.81-.09-1.23,0-.85,.13-1.67,.36-2.45h0c.57-1.93,1.81-3.56,3.45-4.66h0c1.35-.9,2.96-1.43,4.71-1.43h35.62v-3h-32.58Zm0,0c.22,.62,.4,1.25,.56,1.9-1.04-.49-2-1.13-2.84-1.9h-.91c-.63,.01-1.25,.07-1.85,.17-1.81,.32-3.48,1.06-4.89,2.13h-.01c-1.23,1.84-2.54,3.61-3.94,5.3h0c-.45,1.24-.69,2.56-.69,3.94,0,.3,.01,.6,.04,.89,.01,.16,.02,.31,.04,.47h0c.11,.93,.33,1.81,.64,2.65,.67,1.79,1.76,3.37,3.17,4.62,.48-.07,.97-.1,1.47-.1h6.17c-.75,0-1.48-.1-2.18-.28-2.15-.57-3.98-1.97-5.11-3.83-.58-.96-.98-2.04-1.15-3.19-.06-.4-.09-.81-.09-1.23,0-.85,.13-1.67,.36-2.45h0c.57-1.93,1.81-3.56,3.45-4.66h0c1.35-.9,2.96-1.43,4.71-1.43h35.62v-3h-32.58Zm57.83,0h-61.02c-.63,.01-1.25,.07-1.85,.17-1.81,.32-3.48,1.06-4.89,2.13h-.01c-1.79,1.34-3.16,3.17-3.94,5.3h0c-.45,1.24-.69,2.56-.69,3.94,0,.3,.01,.6,.04,.89,.01,.16,.02,.31,.04,.47h0c.11,.93,.33,1.81,.64,2.65,.67,1.79,1.76,3.37,3.17,4.62,1.03,.92,2.23,1.65,3.55,2.15,1.03,.39,2.13,.64,3.28,.72,.27,.02,.54,.03,.81,.03h60.87c2.93,0,5.6-1.09,7.64-2.9,2.39-2.11,3.89-5.2,3.89-8.63,0-6.36-5.17-11.54-11.53-11.54Zm0,20.07h-60.87c-.75,0-1.48-.1-2.18-.28-2.15-.57-3.98-1.97-5.11-3.83-.58-.96-.98-2.04-1.15-3.19-.06-.4-.09-.81-.09-1.23,0-.85,.13-1.67,.36-2.45h0c.57-1.93,1.81-3.56,3.45-4.66h0c1.35-.9,2.96-1.43,4.71-1.43h60.87c4.7,0,8.53,3.83,8.53,8.54s-3.83,8.53-8.53,8.53Zm-57.83-20.07c.22,.62,.4,1.25,.56,1.9-1.04-.49-2-1.13-2.84-1.9h-.91c-.63,.01-1.25,.07-1.85,.17-1.81,.32-3.48,1.06-4.89,2.13h-.01c-1.23,1.84-2.54,3.61-3.94,5.3h0c-.45,1.24-.69,2.56-.69,3.94,0,.3,.01,.6,.04,.89,.01,.16,.02,.31,.04,.47h0c.11,.93,.33,1.81,.64,2.65,.67,1.79,1.76,3.37,3.17,4.62,.48-.07,.97-.1,1.47-.1h6.17c-.75,0-1.48-.1-2.18-.28-2.15-.57-3.98-1.97-5.11-3.83-.58-.96-.98-2.04-1.15-3.19-.06-.4-.09-.81-.09-1.23,0-.85,.13-1.67,.36-2.45h0c.57-1.93,1.81-3.56,3.45-4.66h0c1.35-.9,2.96-1.43,4.71-1.43h35.62v-3h-32.58Zm0,0c.22,.62,.4,1.25,.56,1.9-1.04-.49-2-1.13-2.84-1.9h-.91c-.63,.01-1.25,.07-1.85,.17-1.81,.32-3.48,1.06-4.89,2.13h-.01c-1.23,1.84-2.54,3.61-3.94,5.3h0c-.45,1.24-.69,2.56-.69,3.94,0,.3,.01,.6,.04,.89,.01,.16,.02,.31,.04,.47h0c.11,.93,.33,1.81,.64,2.65,.67,1.79,1.76,3.37,3.17,4.62,.48-.07,.97-.1,1.47-.1h6.17c-.75,0-1.48-.1-2.18-.28-2.15-.57-3.98-1.97-5.11-3.83-.58-.96-.98-2.04-1.15-3.19-.06-.4-.09-.81-.09-1.23,0-.85,.13-1.67,.36-2.45h0c.57-1.93,1.81-3.56,3.45-4.66h0c1.35-.9,2.96-1.43,4.71-1.43h35.62v-3h-32.58Zm0,0c.22,.62,.4,1.25,.56,1.9-1.04-.49-2-1.13-2.84-1.9h-.91c-.63,.01-1.25,.07-1.85,.17-1.81,.32-3.48,1.06-4.89,2.13h-.01c-1.23,1.84-2.54,3.61-3.94,5.3h0c-.45,1.24-.69,2.56-.69,3.94,0,.3,.01,.6,.04,.89,.01,.16,.02,.31,.04,.47h0c.11,.93,.33,1.81,.64,2.65,.67,1.79,1.76,3.37,3.17,4.62,.48-.07,.97-.1,1.47-.1h6.17c-.75,0-1.48-.1-2.18-.28-2.15-.57-3.98-1.97-5.11-3.83-.58-.96-.98-2.04-1.15-3.19-.06-.4-.09-.81-.09-1.23,0-.85,.13-1.67,.36-2.45h0c.57-1.93,1.81-3.56,3.45-4.66h0c1.35-.9,2.96-1.43,4.71-1.43h35.62v-3h-32.58Z"/><path class="e" d="M250.17,119.52v-.83h-24.61c-.53,.79-1.1,1.54-1.73,2.25-.22,.26-.45,.51-.7,.75h30.04v-1.5c-.99-.23-1.99-.46-3-.67Zm0,0v-.83h-24.61c-.53,.79-1.1,1.54-1.73,2.25-.22,.26-.45,.51-.7,.75h30.04v-1.5c-.99-.23-1.99-.46-3-.67Zm0,0v-.83h-24.61c-.53,.79-1.1,1.54-1.73,2.25-.22,.26-.45,.51-.7,.75h30.04v-1.5c-.99-.23-1.99-.46-3-.67Zm0,0v-.83h-24.61c-.53,.79-1.1,1.54-1.73,2.25-.22,.26-.45,.51-.7,.75h30.04v-1.5c-.99-.23-1.99-.46-3-.67Zm0,0v-.83h-24.61c-.53,.79-1.1,1.54-1.73,2.25-.22,.26-.45,.51-.7,.75h30.04v-1.5c-.99-.23-1.99-.46-3-.67Zm0,0v-.83h-24.61c-.53,.79-1.1,1.54-1.73,2.25-.22,.26-.45,.51-.7,.75h30.04v-1.5c-.99-.23-1.99-.46-3-.67Zm0,0v-.83h-24.61c-.53,.79-1.1,1.54-1.73,2.25-.22,.26-.45,.51-.7,.75h30.04v-1.5c-.99-.23-1.99-.46-3-.67Zm3,.67c-.99-.23-1.99-.46-3-.67v-.83h-21.1c-.58,1.04-1.23,2.03-1.96,2.97,0,.01-.01,.02-.03,.03h32.17c-1.98-.52-4.01-1.02-6.08-1.5Zm6.81-1.5h-38.23c-.5,0-.99,.03-1.47,.1-4.99,.63-9,4.47-9.88,9.4,1.12-.15,2.21-.39,3.27-.71,1.15-3.36,4.34-5.79,8.08-5.79h41.79v-2.04c-1.17-.33-2.36-.65-3.56-.96Zm0,0h-38.23c-.5,0-.99,.03-1.47,.1-4.99,.63-9,4.47-9.88,9.4,1.12-.15,2.21-.39,3.27-.71,1.15-3.36,4.34-5.79,8.08-5.79h41.79v-2.04c-1.17-.33-2.36-.65-3.56-.96Zm0,0h-38.23c-.5,0-.99,.03-1.47,.1-4.99,.63-9,4.47-9.88,9.4,1.12-.15,2.21-.39,3.27-.71,1.15-3.36,4.34-5.79,8.08-5.79h41.79v-2.04c-1.17-.33-2.36-.65-3.56-.96Zm36.45,.1c-.48-.07-.97-.1-1.47-.1h-73.21c-.5,0-.99,.03-1.47,.1-4.99,.63-9,4.47-9.88,9.4-.12,.66-.18,1.34-.18,2.04,0,.34,.01,.67,.04,1,.51,5.88,5.47,10.53,11.49,10.53h55.52l12.41-2.97,.72,2.97h3.09l-.73-3h-71.01c-4.54,0-8.27-3.58-8.52-8.06-.01-.16-.01-.31-.01-.47,0-.96,.16-1.89,.45-2.75,1.15-3.36,4.34-5.79,8.08-5.79h73.21c4.7,0,8.53,3.83,8.53,8.54,0,2.51-1.09,4.77-2.83,6.34-.31,.28-.65,.54-1,.77-.54,.37-1.13,.67-1.76,.9h-.02c-.33,.12-.67,.22-1.02,.3l.7,2.92c.67-.15,1.32-.37,1.94-.64,.31-.13,.6-.27,.89-.43,.01,0,.02,0,.03-.01,.91-.49,1.75-1.1,2.49-1.81,2.21-2.1,3.58-5.07,3.58-8.34,0-5.87-4.39-10.72-10.06-11.44Zm-36.45-.1h-38.23c-.5,0-.99,.03-1.47,.1-4.99,.63-9,4.47-9.88,9.4,1.12-.15,2.21-.39,3.27-.71,1.15-3.36,4.34-5.79,8.08-5.79h41.79v-2.04c-1.17-.33-2.36-.65-3.56-.96Zm0,0h-38.23c-.5,0-.99,.03-1.47,.1-4.99,.63-9,4.47-9.88,9.4,1.12-.15,2.21-.39,3.27-.71,1.15-3.36,4.34-5.79,8.08-5.79h41.79v-2.04c-1.17-.33-2.36-.65-3.56-.96Zm0,0h-38.23c-.5,0-.99,.03-1.47,.1-4.99,.63-9,4.47-9.88,9.4,1.12-.15,2.21-.39,3.27-.71,1.15-3.36,4.34-5.79,8.08-5.79h41.79v-2.04c-1.17-.33-2.36-.65-3.56-.96Zm0,0h-38.23c-.5,0-.99,.03-1.47,.1-4.99,.63-9,4.47-9.88,9.4,1.12-.15,2.21-.39,3.27-.71,1.15-3.36,4.34-5.79,8.08-5.79h41.79v-2.04c-1.17-.33-2.36-.65-3.56-.96Zm-9.81,.83v-.83h-21.1c-.58,1.04-1.23,2.03-1.96,2.97,0,.01-.01,.02-.03,.03h26.09v-1.5c-.99-.23-1.99-.46-3-.67Zm0,0v-.83h-24.61c-.53,.79-1.1,1.54-1.73,2.25-.22,.26-.45,.51-.7,.75h30.04v-1.5c-.99-.23-1.99-.46-3-.67Zm0,0v-.83h-24.61c-.53,.79-1.1,1.54-1.73,2.25-.22,.26-.45,.51-.7,.75h30.04v-1.5c-.99-.23-1.99-.46-3-.67Zm0,0v-.83h-24.61c-.53,.79-1.1,1.54-1.73,2.25-.22,.26-.45,.51-.7,.75h30.04v-1.5c-.99-.23-1.99-.46-3-.67Zm0,0v-.83h-24.61c-.53,.79-1.1,1.54-1.73,2.25-.22,.26-.45,.51-.7,.75h30.04v-1.5c-.99-.23-1.99-.46-3-.67Zm0,0v-.83h-24.61c-.53,.79-1.1,1.54-1.73,2.25-.22,.26-.45,.51-.7,.75h30.04v-1.5c-.99-.23-1.99-.46-3-.67Zm0,0v-.83h-24.61c-.53,.79-1.1,1.54-1.73,2.25-.22,.26-.45,.51-.7,.75h30.04v-1.5c-.99-.23-1.99-.46-3-.67Zm0,0v-.83h-24.61c-.53,.79-1.1,1.54-1.73,2.25-.22,.26-.45,.51-.7,.75h30.04v-1.5c-.99-.23-1.99-.46-3-.67Z"/><path class="e" d="M225.74,118.41c-.05,.09-.12,.19-.18,.28h2.36c-.75,0-1.48-.1-2.18-.28Zm0,0c-.05,.09-.12,.19-.18,.28h2.36c-.75,0-1.48-.1-2.18-.28Zm0,0c-.05,.09-.12,.19-.18,.28h2.36c-.75,0-1.48-.1-2.18-.28Zm0,0c-.05,.09-.12,.19-.18,.28h2.36c-.75,0-1.48-.1-2.18-.28Zm0,0c-.05,.09-.12,.19-.18,.28h2.36c-.75,0-1.48-.1-2.18-.28Zm0,0c-.05,.09-.12,.19-.18,.28h2.36c-.75,0-1.48-.1-2.18-.28Zm0,0c-.05,.09-.12,.19-.18,.28h2.36c-.75,0-1.48-.1-2.18-.28Zm2.18,.28c-.75,0-1.48-.1-2.18-.28-.05,.09-.12,.19-.18,.28-.53,.79-1.1,1.54-1.73,2.25-.22,.26-.45,.51-.7,.75h3.95s.03-.02,.03-.03c.73-.94,1.38-1.93,1.96-2.97h-1.15Zm3.6-18.17c-.16-.65-.34-1.28-.56-1.9-.47-1.42-1.07-2.79-1.8-4.08,0-.01,0-.02-.02-.03-.09-.19-.2-.37-.31-.55-1.07-1.83-2.37-3.51-3.87-5.01-4.5-4.49-10.7-7.28-17.56-7.28-13.71,0-24.86,11.16-24.86,24.86,0,.78,.04,1.54,.11,2.3,.09,1.03,.25,2.03,.47,3.02,2.43,11.16,12.39,19.55,24.28,19.55,.97,0,1.92-.06,2.86-.17,1.01-.11,2-.29,2.97-.53-.01-.16-.01-.31-.01-.47,0-.96,.16-1.89,.45-2.75-1.06,.32-2.15,.56-3.27,.71-.98,.14-1.98,.21-3,.21-3.46,0-6.74-.81-9.65-2.25-.91-.45-1.77-.96-2.6-1.52h-.01c-2.14-1.46-4-3.27-5.5-5.37-.59-.81-1.12-1.67-1.59-2.56-.79-1.49-1.4-3.08-1.83-4.75-.25-.98-.44-1.99-.55-3.03-.09-.78-.13-1.58-.13-2.39,0-12.05,9.81-21.86,21.86-21.86,3.67,0,7.13,.91,10.18,2.53h.01c.9,.47,1.76,1,2.57,1.6,2.04,1.47,3.82,3.28,5.24,5.35,.28,.4,.55,.82,.8,1.24,.16,.27,.32,.54,.47,.82,.12,.23,.23,.45,.34,.68,.29,.57,.54,1.14,.76,1.73,.39,.97,.7,1.97,.93,3h3.07c-.07-.37-.16-.74-.25-1.1Zm-5.78,17.89c-.05,.09-.12,.19-.18,.28h2.36c-.75,0-1.48-.1-2.18-.28Zm0,0c-.05,.09-.12,.19-.18,.28h2.36c-.75,0-1.48-.1-2.18-.28Zm0,0c-.05,.09-.12,.19-.18,.28h2.36c-.75,0-1.48-.1-2.18-.28Zm0,0c-.05,.09-.12,.19-.18,.28h2.36c-.75,0-1.48-.1-2.18-.28Zm0,0c-.05,.09-.12,.19-.18,.28h2.36c-.75,0-1.48-.1-2.18-.28Zm0,0c-.05,.09-.12,.19-.18,.28h2.36c-.75,0-1.48-.1-2.18-.28Zm0,0c-.05,.09-.12,.19-.18,.28h2.36c-.75,0-1.48-.1-2.18-.28Z"/><path class="e" d="M246.26,118.69c1.32,.26,2.62,.54,3.91,.83v-.83h-3.91Zm-164.7-.39v2.03l-.27,.1,.27,.11v.94c.49-.13,1-.25,1.5-.38,.5-.12,1-.25,1.5-.37v-3.17c-1.01,.24-2.01,.48-3,.74Zm17.26-3.72c-1.35,.24-2.68,.49-3.99,.75-.87,.17-1.73,.34-2.59,.52l-.19,.53-1,2.87c1.5-.32,3.02-.64,4.56-.94l.19-.54,.19,.47c1.32-.26,2.66-.51,4.02-.76l-1.19-2.9Zm86.85-5.66c-1-.03-2.01-.06-3.02-.09-4.16-.11-8.38-.17-12.65-.17-22.06,0-42.77,1.52-61.15,4.26-.18,.03-.35,.05-.53,.08-1.01,.15-2.01,.31-3,.46v3.11c.99-.17,1.99-.32,3-.48,.11-.01,.21-.03,.32-.04,2.03-.32,4.08-.61,6.16-.89,17.18-2.3,35.88-3.5,55.2-3.5,4.41,0,8.79,.06,13.12,.19,1.04,.03,2.07,.06,3.1,.1-.25-.98-.44-1.99-.55-3.03Zm33.81,2.47c-.87-.11-1.74-.2-2.62-.3-.12,.14-.25,.29-.39,.43h0c.11,.93,.33,1.81,.64,2.65,1.18,.13,2.36,.27,3.52,.41-.58-.96-.98-2.04-1.15-3.19Zm83.43,27.18c-.7-.67-1.45-1.34-2.25-2-.31,.28-.65,.54-1,.77-.54,.37-1.13,.67-1.76,.9h.01c.41,.33,.81,.65,1.2,.98,.45,.38,.86,.75,1.27,1.13,.01,.01,.03,.02,.04,.03,4.19,3.91,6.39,7.98,6.39,12.07,0,10.42-14.38,20.8-39.45,28.46-25.98,7.95-60.56,12.32-97.36,12.32s-71.37-4.37-97.35-12.32c-25.07-7.66-39.45-18.04-39.45-28.46,0-5.02,3.34-10.03,9.58-14.72,.67-.51,1.38-1.01,2.12-1.52,.86-.57,1.77-1.15,2.72-1.71,2.97-1.78,6.37-3.5,10.17-5.14,.97-.42,1.97-.83,3-1.24v-3.31c-1.02,.4-2.02,.8-3,1.21-17.39,7.29-27.59,16.42-27.59,26.43,0,24.55,61.41,43.78,139.8,43.78s139.81-19.23,139.81-43.78c0-4.87-2.41-9.53-6.9-13.88Zm-83.43-27.18c-.87-.11-1.74-.2-2.62-.3-.12,.14-.25,.29-.39,.43h0c.11,.93,.33,1.81,.64,2.65,1.18,.13,2.36,.27,3.52,.41-.58-.96-.98-2.04-1.15-3.19Zm47.06,9.12c-.99-.29-1.99-.58-3-.86-1.17-.33-2.36-.65-3.56-.96h-13.72c1.32,.26,2.62,.54,3.91,.83,1.01,.21,2.01,.44,3,.67,2.07,.48,4.1,.98,6.08,1.5h11.13c-1.25-.4-2.53-.8-3.84-1.18Zm-47.06-9.12c-.87-.11-1.74-.2-2.62-.3-.14-.02-.29-.03-.43-.04-1.11-.12-2.22-.24-3.34-.34-.9,.95-1.84,1.87-2.81,2.76,1.32,.13,2.62,.26,3.93,.39h.01c.77-.76,1.52-1.54,2.25-2.33,.11,.92,.33,1.8,.64,2.64,1.18,.13,2.36,.27,3.52,.41-.58-.96-.98-2.04-1.15-3.19Zm-19.45-1.76c-1.28,.98-2.61,1.91-3.99,2.78,1.63,.09,3.26,.19,4.87,.31,1.21-.88,2.38-1.8,3.51-2.77-1.45-.12-2.91-.22-4.39-.32Z"/><path class="e" d="M220.52,87.98c-.12,.28-.24,.55-.36,.82-3.78,8.39-9.05,15.47-15.74,21.15-1.13,.97-2.3,1.89-3.51,2.77-3.44,2.5-7.2,4.69-11.27,6.54-.25,.12-.49,.23-.74,.34l-1.21-2.74c.12-.05,.24-.11,.36-.16,2.82-1.27,5.49-2.7,7.99-4.29,1.38-.87,2.71-1.8,3.99-2.78,7.63-5.78,13.51-13.29,17.55-22.43h.01l.18-.42,2.75,1.2Z"/><path class="e" d="M227.82,95.44c-.24,.46-.49,.91-.76,1.36,0,.03-.01,.06-.05,.09-.34,.64-.7,1.27-1.09,1.9-.85,1.46-1.76,2.88-2.71,4.26h0c-1.08,1.6-2.24,3.16-3.45,4.65h0c-.93,1.17-1.89,2.3-2.89,3.39-.12,.14-.25,.29-.39,.43h0c-.73,.8-1.48,1.58-2.25,2.34h-.01c-4.84,4.81-10.33,8.91-16.46,12.29-.46,.26-.93,.51-1.41,.76l-2.28-2.28,.33-.12,.57-.25c5.65-2.98,10.77-6.58,15.32-10.79h.01c.97-.89,1.91-1.81,2.81-2.76,1.4-1.43,2.73-2.93,3.99-4.48h0c1.4-1.7,2.71-3.47,3.94-5.31h.01c1.49-2.2,2.87-4.49,4.14-6.89l.25-.47,.29,.76,2.11,1.12Z"/></g><g id="d"/></svg>