<?xml version="1.0" encoding="UTF-8"?><svg xmlns="http://www.w3.org/2000/svg" viewBox="0 0 340 220"><defs><style>.e{fill:#003f5e;}.f{fill:#006068;}.g{fill:#007d85;}.h{fill:#fff;}.i{fill:#ecfbfc;}.j{fill:#fcb92f;}.k{fill:#ff7734;}.l{fill:#b3d8da;}.m{fill:#e0eff0;}.n{fill:#4da4aa;}</style></defs><g id="a"><path class="m" d="M266.21,50.71c-22.46-31.33-63.82-40.2-100.06-30.17-29.77,8.24-61.26-4.09-90.32,5.58C34.33,39.94,9.59,85.39,23.94,125.94c9.28,26.2,31.15,42.85,58.58,49.19,13.37,3.09,27.23,3.96,40.95,3.79,22.08-.29,40.87-5.34,60.88,6.47,25.66,15.14,54.9,25.47,84.69,16.23,30.55-9.48,55.74-45.77,44.38-76.73-4.6-12.54-14.96-21.94-22.23-32.96-7.33-11.12-12.9-23.31-20.3-34.39-1.63-2.44-3.2-4.71-4.69-6.82Z"/></g><g id="b"><path class="l" d="M107.32,44.43c-1.88,0-3.61,.65-4.99,1.72-1.39-2.48-4.05-4.17-7.1-4.17-4.02,0-7.34,2.91-8.01,6.74-1.42-1.19-3.24-1.91-5.23-1.91-4.49,0-8.14,3.64-8.14,8.14s3.64,8.14,8.14,8.14c4.02,0,5.7,10.72,6.37,6.9,1.42,1.19,3.08,2.18,5.07,2.18,1.88,0,3.15,3.25,4.53,2.18,1.39,2.48,4.67,0,7.72,0,4.49,0,9.78-17.28,9.78-21.77s-3.64-8.14-8.14-8.14Z"/><path class="f" d="M107.8,86.88h-21.56c-.74,0-2.22-20.33-2.22-21.16s.6-1.5,1.34-1.5h21.56c.74,0,1.34,.67,1.34,1.5s.27,21.16-.47,21.16Z"/><rect class="n" x="220.7" y="100.11" width="77.59" height="91.16"/><path class="h" d="M185.27,84.13h-.17v-4.68h-14.74v4.68h-.19s-11.71,12.2-11.71,26.73v71.63c0,4.24,3.44,7.68,7.68,7.68h23.62c4.24,0,7.68-3.44,7.68-7.68V111.15c0-14.14-12.17-27.02-12.17-27.02Z"/><path class="m" d="M179.43,106.79c-6.09-2.42-12.28-7.05-19.17-6.13-1.08,3.16-1.79,6.61-1.79,10.2v71.63c0,4.24,3.44,7.68,7.68,7.68h23.62c4.24,0,7.68-3.44,7.68-7.68V111.15c0-1.38-.12-2.75-.33-4.09-4.95,3.38-12.56,1.77-17.69-.26Z"/><rect class="f" x="168.85" y="71.71" width="18.21" height="7.74"/><rect class="g" x="158.46" y="119.82" width="38.98" height="34.65"/><polygon class="l" points="275.67 133.73 220.7 144.7 220.7 123.17 275.65 112.2 275.67 133.73"/><rect class="h" x="275.55" y="113.11" width="21.64" height="38.73"/><ellipse class="i" cx="259.56" cy="162.99" rx="13.4" ry="9.85" transform="translate(-46.52 178.82) rotate(-35.09)"/><path class="m" d="M185.57,139.53c0,4.09-2.99,7.41-6.68,7.41s-6.68-3.32-6.68-7.41,3.38-7.93,6.68-12.18c3.08,3.91,6.68,8.08,6.68,12.18Z"/><rect class="j" x="50.08" y="25.47" width="38.92" height="108.14" rx="16.46" ry="16.46" transform="translate(-21.37 25.71) rotate(-18.21)"/><polyline class="h" points="147.49 54.95 147.49 47.08 114.21 47.08 114.21 54.95 102.28 70.44 102.28 130.13 159.42 130.13 159.42 70.44 147.49 54.95 147.49 47.08"/><path class="k" d="M215.56,153.9c-5.23-2.32-11.86-.96-16.47,2.05h-.21c-4.6-3.01-11.24-4.38-16.47-2.05-12.91,5.74-13.58,21.47-8.52,32.38,2.9,6.25,10.05,15.2,18.23,14.86,3.81-.16,5.91-1.9,6.86-2.8,.96,.89,3.05,2.64,6.86,2.8,8.18,.34,15.33-8.61,18.23-14.86,5.06-10.9,4.4-26.64-8.52-32.38Z"/><circle class="k" cx="107.83" cy="97.06" r="20.73"/><path class="l" d="M160.92,97.06l-8.85-8.46-8.85,8.46-8.85-8.46-8.85,8.46-8.85-8.46-8.85,8.46-8.85-8.46-8.85,8.46-8.85-8.46-8.85,8.46-8.85-8.46-8.85,8.46h0v91.41c0,3.11,2.52,5.64,5.64,5.64h94.93c3.11,0,5.64-2.52,5.64-5.64V97.06h0Z"/></g><g id="c"><path class="e" d="M182.07,161.32c-.51,0-1-.26-1.28-.72-.43-.71-.2-1.63,.51-2.06,1.82-1.1,3.84-1.74,6.01-1.89,.81-.05,1.54,.56,1.6,1.39s-.56,1.54-1.39,1.6c-1.69,.12-3.26,.61-4.67,1.47-.24,.15-.51,.22-.78,.22Z"/><g><path class="e" d="M275.99,120.31s0,.03,0,.05l.04,.26s0,.08,.03,.12c.1,.3,.28,.56,.53,.74s.55,.29,.89,.29h15.16c.83,0,1.5-.67,1.5-1.5s-.67-1.5-1.5-1.5h-15.16c-.83,0-1.5,.67-1.5,1.5h0s0,.03,0,.05Z"/><path class="e" d="M277.49,129.43h15.16c.83,0,1.5-.67,1.5-1.5s-.67-1.5-1.5-1.5h-15.16s-.09,0-.14,.01c-.05,0-.1,0-.14,.01h0c-.7,.13-1.22,.74-1.22,1.47,0,.83,.67,1.5,1.5,1.5Z"/><path class="e" d="M292.65,134.08h-15.16c-.83,0-1.5,.67-1.5,1.5s.67,1.5,1.5,1.5h15.16c.83,0,1.5-.67,1.5-1.5s-.67-1.5-1.5-1.5Z"/><path class="e" d="M292.65,141.74h-15.16c-.83,0-1.5,.67-1.5,1.5s.67,1.5,1.5,1.5h15.16c.83,0,1.5-.67,1.5-1.5s-.67-1.5-1.5-1.5Z"/><path class="e" d="M66.79,56.91c.96,0,1.87-.47,2.43-1.25h0c.19-.26,.33-.55,.43-.86,.24-.76,.15-1.54-.17-2.2-.35-.72-.98-1.3-1.8-1.56l-19.71-6.16c-1.58-.5-3.27,.38-3.76,1.96-.49,1.59,.39,3.27,1.97,3.76l19.71,6.17c.3,.09,.6,.14,.9,.14Z"/><path class="e" d="M73.08,76.06c1.28,0,2.46-.82,2.86-2.11,.49-1.58-.39-3.26-1.97-3.76l-19.71-6.17c-1.58-.49-3.26,.39-3.76,1.97-.49,1.58,.39,3.26,1.97,3.76l19.71,6.17c.3,.09,.6,.14,.9,.14Z"/><path class="e" d="M297.42,97.9h-79.55c-.83,0-1.5,.67-1.5,1.5v54.07c-.95-.63-1.96-1.18-3.03-1.66-4.45-1.98-10.14-1.68-15.18,.66,.58-4.92,2.8-8.22,6.34-9.17,1.07-.29,1.7-1.39,1.42-2.45-.29-1.07-1.38-1.71-2.45-1.42-3.26,.87-5.75,2.96-7.36,6v-35c0-14.11-11.33-26.69-12.5-27.96v-2.24h.62c.83,0,1.5-.67,1.5-1.5v-7.74c0-.83-.67-1.5-1.5-1.5h-18.21c-.83,0-1.5,.67-1.5,1.5v7.74c0,.83,.67,1.5,1.5,1.5h.61v1.87c-.14,.07-.26,.16-.37,.28-.31,.32-5.01,5.28-8.47,12.64l-.02-.02v-24.55c0-.33-.11-.65-.31-.91l-11.63-15.09v-7.37c0-.82-.67-1.5-1.5-1.5h-33.28c-.09,0-.17,.01-.25,.02-1.73-1.65-4.07-2.66-6.64-2.66-1.62,0-3.17,.39-4.58,1.16-1.81-2.26-4.56-3.61-7.51-3.61-3.94,0-7.39,2.38-8.87,5.88-1.34-.68-2.84-1.05-4.37-1.05-.55,0-1.08,.05-1.6,.14l-2.69-8.19c-3.1-9.4-13.27-14.54-22.67-11.44l-5.71,1.87c-9.4,3.1-14.54,13.27-11.44,22.67l15.35,46.68h0v91.44c0,3.93,3.2,7.13,7.13,7.13h94.93c3.44,0,6.32-2.44,6.99-5.69,1.26,.65,2.68,1.02,4.19,1.02h9.13c3.54,5.2,9.37,10.98,16.38,10.98,.18,0,.36,0,.54-.01,3.36-.14,5.55-1.38,6.8-2.33,1.94,1.45,4.17,2.22,6.8,2.33,.17,.01,.35,.01,.53,.01,6.52,0,12.01-4.99,15.6-9.88h78.33c.83,0,1.5-.67,1.5-1.5V99.4c0-.83-.67-1.5-1.5-1.5Zm-142.65-26.94v21.17l-4.82-4.6c-.58-.55-1.49-.55-2.07,0l-7.81,7.47-6.18-5.9v-18.14l10.44-13.55,10.44,13.55Zm-42.22-22.38h30.28v4.88h-30.28v-4.88Zm-.76,7.88h29.49l-9.63,12.49h-29.48l5.79-7.52,3.83-4.97Zm-14.17,14.02v5.51c-3.27,1.09-6.2,2.92-8.6,5.31l-5.24-15.91h17.34l-3.19,4.15h0c-.19,.27-.3,.57-.3,.91,0,0,0,.02,0,.03Zm3,1.47h30.27v15.2c-.26,.06-.51,.18-.71,.38l-4.02,3.84c-2.52-9.51-11.2-16.53-21.49-16.53-1.38,0-2.74,.13-4.05,.38v-3.27Zm-21.79-23.63c1.56,0,3.07,.55,4.27,1.56,.41,.34,.98,.44,1.48,.26,.5-.19,.87-.62,.96-1.15,.55-3.19,3.3-5.5,6.53-5.5,2.4,0,4.62,1.3,5.79,3.4,.22,.38,.59,.65,1.01,.74,.43,.08,.88-.02,1.22-.29,1.18-.92,2.59-1.4,4.07-1.4,2.22,0,4.18,1.09,5.39,2.77v5.74l-3.43,4.46h0l-2.52,3.28-.16,.2h-20.63l-.57-1.73-4.05-12.31c.22-.02,.43-.03,.65-.03Zm-41.26,1.11c-2.58-7.83,1.7-16.3,9.53-18.88l5.7-1.87c1.55-.51,3.12-.75,4.67-.75,6.28,0,12.15,3.99,14.22,10.28l2.7,8.2,.96,2.91,4.02,12.25,.96,2.91,6.4,19.47c-1.62,2.2-2.84,4.71-3.56,7.42l-4.01-3.84c-.58-.55-1.49-.55-2.07,0l-.65,.62-15.87-4.97c-1.58-.49-3.27,.39-3.76,1.97-.43,1.38,.19,2.83,1.4,3.51l-5.89,5.63-14.75-44.86Zm33.92,43.46l-2.21,2.11-4.36-4.17,6.57,2.06Zm-18.42,95.6V97.72l.29-.27,7.07-6.76,7.35,7.03v78.07l-14.36,14.36c-.23-.51-.35-1.07-.35-1.66Zm4.13,4.13c-.59,0-1.15-.12-1.66-.35l13.73-13.73,14.08,14.08h-26.15Zm28.27-94.42v92.3l-14.69-14.69V97.71l3.97-3.8,3.37-3.22,3.58,3.42,.83,.8,2.92,2.79,.02,.02v.48Zm.24-4.4c.38-2.22,1.14-4.31,2.22-6.19,.61-1.09,1.34-2.12,2.16-3.06,2.01-2.35,4.59-4.21,7.53-5.37,.96-.38,1.97-.69,3-.91,1.31-.28,2.66-.43,4.05-.43,9.48,0,17.39,6.91,18.95,15.96l-1.26,1.2-7.81-7.47c-.58-.55-1.49-.55-2.07,0l-7.81,7.47-4.05-3.87-3-2.87-.76-.73c-.58-.56-1.5-.56-2.08,0l-2.83,2.7-2.4,2.3-2.58,2.47-1.26-1.2Zm70.56,4.87v89.82c0,2.28-1.86,4.13-4.14,4.13h-63.66V97.71l2.12-2.02,2.4-2.3,2.83-2.7,1.8,1.72,3,2.87,3.01,2.88c.58,.55,1.5,.55,2.08,0l7.81-7.47,7.81,7.47c.58,.55,1.49,.55,2.07,0l.48-.46,2.92-2.79,4.09-3.91,.32-.31,2.68,2.56,5.14,4.91c.58,.55,1.49,.55,2.07,0l7.81-7.47,5.86,5.6,1.5,1.43v.95Zm139.65,12.22h-21.7v-9.99h21.7v9.99Zm-21.7,23.38v-20.38h21.7v35.73h-21.7v-15.35Zm-54.85-33.37h51.85v9.37l-51.85,10.36v-19.73Zm0,22.79l51.85-10.35v18.47l-51.85,10.35v-18.47Zm-51.85-51.2h15.21v4.74h-15.21v-4.74Zm13.09,7.74v1.68h-10.98v-1.68h10.98Zm-12.61,4.68h13.77c1.69,1.93,7.98,9.55,10.38,18.64-2.15,1.42-5.06,1.35-7.52,1.03-3.21-.41-6.22-1.53-9.11-2.96-4.85-2.39-9.65-5.14-15.06-5.17,2.73-5.84,6.32-10.17,7.53-11.54Zm-8.73,14.56c6.49-.71,12.3,3.89,18.01,6.23,4.6,1.89,10.81,3.18,15.51,.9,.2,1.26,.32,2.54,.32,3.83v7.18h-33.84v-18.14Zm0,21.14h33.84v31.41c-4.77-1.92-10-2.06-14.14-.21-.32,.14-.63,.29-.94,.44h-18.76v-31.64Zm4.04,67.34c-1.54,0-2.96-.57-4.04-1.52v-31.18h14.34c-2.39,2.13-4.22,4.83-5.4,7.98-2.53,6.73-1.95,15.52,1.5,22.96,.25,.55,.55,1.14,.9,1.76h-7.3Zm56.06-1.97c-.78,1.51-1.8,3.13-2.99,4.71-3.27,4.31-7.91,8.24-12.9,8.24-.13,0-.27,0-.4-.01-3.5-.15-5.3-1.84-5.9-2.39-.29-.27-.65-.41-1.02-.41s-.74,.14-1.03,.41c-.59,.55-2.4,2.24-5.9,2.39-.13,.01-.26,.01-.4,.01-4.89,0-9.44-3.77-12.69-7.98-.77-.99-1.46-2-2.07-3-.65-1.04-1.2-2.07-1.64-3.02-3.13-6.73-3.67-14.65-1.42-20.65,1.5-4.01,4.12-7.04,7.78-9.03,.45-.25,.92-.48,1.4-.7,4.1-1.82,9.01-1.06,12.8,.7l.12,.06c.31,.14,.61,.3,.9,.45,.01,.9,.06,1.84,.16,2.8,.1,1.01,.94,1.77,1.94,1.79,.02,.01,.03,.01,.05,.01,.06,0,.13,0,.19-.01,1.1-.11,1.91-1.09,1.8-2.18-.08-.78-.12-1.52-.13-2.25,2.51-1.42,5.71-2.42,8.89-2.42,1.79,0,3.56,.32,5.21,1.05,1.59,.71,3.01,1.59,4.25,2.64,1.15,.96,2.15,2.07,3,3.32,.77,1.14,1.42,2.4,1.93,3.77,2.25,6,1.71,13.92-1.41,20.65-.16,.34-.33,.69-.52,1.05Zm3.24,.21c3.45-7.44,4.02-16.23,1.5-22.96-.98-2.6-2.4-4.9-4.21-6.82-.17-.18-.35-.36-.53-.53v-10.67l51.85-10.34v54.18h-50.13c.61-1.03,1.12-2,1.52-2.86Zm51.61,2.86v-36.43h21.7v36.43h-21.7Z"/><path class="e" d="M268.92,153.71c-1.79-2.56-4.78-4.01-8.41-4.08-3.47-.09-7.12,1.12-10.31,3.36-6.72,4.72-9.26,12.73-5.67,17.85,1.9,2.7,5.12,4.06,8.73,4.06,3.25,0,6.81-1.1,9.99-3.34,3.19-2.24,5.56-5.28,6.66-8.56,1.16-3.44,.81-6.74-.99-9.29Zm-1.85,8.34c-.45,1.34-1.17,2.63-2.11,3.83-.94,1.19-2.1,2.29-3.43,3.23-5.37,3.77-11.9,3.77-14.54,0-2.65-3.77-.43-9.91,4.94-13.68,2.59-1.82,5.52-2.82,8.28-2.82,.08,0,.16,0,.24,.01,2.65,.05,4.79,1.05,6.02,2.8,1.23,1.75,1.44,4.1,.6,6.62Z"/><path class="e" d="M184.24,138.81c0-4.29-3.19-8.31-6.27-12.18l-.73-.93c-.29-.36-.72-.57-1.18-.57h-.01c-.46,0-.89,.22-1.18,.58l-.98,1.26c-3.09,3.93-6.01,7.64-6.01,11.84,0,4.92,3.67,8.92,8.18,8.92s8.18-4,8.18-8.92Zm-8.18,5.92c-2.86,0-5.18-2.66-5.18-5.92,0-3.09,2.49-6.33,5.19-9.75,2.61,3.3,5.17,6.68,5.17,9.75,0,3.26-2.33,5.92-5.18,5.92Z"/></g></g><g id="d"/></svg>