<?xml version="1.0" encoding="UTF-8"?><svg xmlns="http://www.w3.org/2000/svg" viewBox="0 0 340 220"><defs><style>.e{fill:#f7fdfe;}.f{fill:#003f5e;}.g{fill:#007d85;}.h{fill:#fdce6d;}.i{fill:#b3d8da;}.j{fill:#e0eff0;}.k{fill:#4da4aa;}</style></defs><g id="a"><path class="j" d="M21.73,134.27c-1.17-5.58-1.75-11.27-1.69-16.94,.31-25.77,12.15-50.75,32.18-67.03,9.72-7.9,22.12-14.71,34.59-16.9,16.58-2.91,33.86,3.55,50.24,5.81,6.45,.89,12.71,1.44,18.88,1.62,3.09,.09,6.16,.09,9.22,0,35.15-5.25,69.01-26.7,104.83-18.55,4.29,1.18,8.21,2.74,11.8,4.62,50.24,30.42,43.59,124.98,.48,158.54-27.93,21.74-56.78,15.28-87.3,4.88-12.88-4.39-24.71-3.84-38.11-2.05-27.58,3.69-55.72,13.07-83.43,4.92-26.73-7.87-46.05-32.11-51.68-58.92Z"/></g><g id="b"><rect class="g" x="119.54" y="70.08" width="162.06" height="71" rx="1.2" ry="1.2" transform="translate(422.62 60.08) rotate(140.66)"/><path class="i" d="M168.68,165.89c-.08,.05-.14,.1-.2,.15l-.13,.11c-1.5-1.83-3.64-2.98-6.03-3.23-2.37-.22-4.69,.48-6.53,1.99-.04-.07-.09-.13-.14-.19s-.1-.12-.18-.2l-21.5-26.22-.03-.04-.17-.29-.16-.14c3.79-3.12,4.35-8.76,1.24-12.57,.07-.04,.13-.09,.19-.14,.07-.06,.14-.12,.19-.17L232.4,45.3l.3-.18,.11-.12c1.5,1.83,3.64,2.98,6.03,3.22,2.37,.22,4.69-.48,6.53-1.99,.04,.07,.08,.12,.12,.17,.07,.08,.15,.16,.24,.25l21.5,26.24,.19,.29,.13,.12c-3.79,3.13-4.35,8.76-1.25,12.56l-.29,.23-.04,.05-97.29,79.74Z"/><rect class="g" x="130.23" y="83.22" width="162.06" height="71" rx="1.2" ry="1.2" transform="translate(453.58 116.9) rotate(150.24)"/><path class="i" d="M169.78,172.89c-.09,.03-.16,.07-.22,.11l-.15,.08c-1.17-2.06-3.09-3.54-5.41-4.19-2.3-.61-4.7-.31-6.77,.87-.03-.08-.07-.14-.11-.21s-.08-.14-.14-.22l-16.84-29.43-.03-.05-.12-.31-.14-.16c4.26-2.44,5.75-7.91,3.31-12.19,.08-.03,.14-.07,.21-.11,.08-.05,.16-.09,.21-.14l109.08-62.38,.32-.12,.12-.1c1.17,2.06,3.09,3.54,5.41,4.18,2.3,.61,4.7,.31,6.77-.87,.03,.08,.06,.13,.09,.19,.05,.09,.12,.19,.19,.28l16.84,29.46,.14,.32,.11,.14c-4.25,2.45-5.75,7.91-3.32,12.17l-.32,.18-.05,.04-109.2,62.45Z"/><circle class="k" cx="211.33" cy="118.84" r="18.36"/><rect class="g" x="138.19" y="101.79" width="162.06" height="71" rx="1.2" ry="1.2" transform="translate(469.94 200.86) rotate(162.17)"/><path class="i" d="M167.43,181.71c-.09,.02-.17,.04-.24,.06l-.16,.05c-.72-2.26-2.29-4.1-4.43-5.22-2.13-1.08-4.54-1.27-6.81-.55-.01-.08-.04-.15-.06-.23s-.05-.15-.09-.25l-10.39-32.27-.02-.05-.05-.33-.1-.19c4.67-1.51,7.26-6.55,5.76-11.24,.08-.01,.15-.04,.23-.06,.09-.03,.18-.06,.23-.09l119.62-38.48,.34-.05,.14-.07c.72,2.26,2.29,4.1,4.43,5.2,2.13,1.08,4.54,1.27,6.81,.55,.01,.08,.03,.14,.05,.2,.03,.1,.08,.21,.13,.32l10.38,32.3,.07,.34,.08,.15c-4.67,1.52-7.26,6.55-5.76,11.23l-.35,.11-.06,.03-119.75,38.52Z"/><circle class="k" cx="219.26" cy="137.42" r="18.36"/><rect class="e" x="67.13" y="48.53" width="118.71" height="71.04" rx="6.69" ry="6.69"/><rect class="h" x="39.83" y="81.39" width="118.71" height="71.04" rx="6.69" ry="6.69"/><rect class="i" x="50.6" y="104.23" width="21.32" height="13.48" rx="4.27" ry="4.27"/></g><g id="c"><path class="f" d="M153.81,121.55v6.28l3-.96v-5.32h-3Zm0-11.38v36.05c0,2.86-2.33,5.19-5.19,5.19h-14.33l1.72,3h12.61c4.51,0,8.19-3.67,8.19-8.19v-37.76l-3,1.71Zm0,0v36.05c0,2.86-2.33,5.19-5.19,5.19h-14.33l1.72,3h12.61c4.51,0,8.19-3.67,8.19-8.19v-37.76l-3,1.71Zm0,0v36.05c0,2.86-2.33,5.19-5.19,5.19h-14.33l1.72,3h12.61c4.51,0,8.19-3.67,8.19-8.19v-37.76l-3,1.71Zm0,0v36.05c0,2.86-2.33,5.19-5.19,5.19h-14.33l1.72,3h12.61c4.51,0,8.19-3.67,8.19-8.19v-37.76l-3,1.71Zm0-1.08v37.13c0,2.86-2.33,5.19-5.19,5.19h-14.33l1.72,3h12.61c4.51,0,8.19-3.67,8.19-8.19v-39.61l-3,2.48Zm0,0v37.13c0,2.86-2.33,5.19-5.19,5.19h-14.33l1.72,3h12.61c4.51,0,8.19-3.67,8.19-8.19v-39.61l-3,2.48Zm0-11.79v48.92c0,2.86-2.33,5.19-5.19,5.19h-14.33l1.72,3h12.61c4.51,0,8.19-3.67,8.19-8.19v-51.4l-3,2.48Zm0,0v48.92c0,2.86-2.33,5.19-5.19,5.19h-14.33l1.72,3h12.61c4.51,0,8.19-3.67,8.19-8.19v-51.4l-3,2.48Zm0,0v48.92c0,2.86-2.33,5.19-5.19,5.19h-14.33l1.72,3h12.61c4.51,0,8.19-3.67,8.19-8.19v-51.4l-3,2.48Zm0,0v48.92c0,2.86-2.33,5.19-5.19,5.19h-14.33l1.72,3h12.61c4.51,0,8.19-3.67,8.19-8.19v-51.4l-3,2.48Zm0,23.34v25.58c0,2.86-2.33,5.19-5.19,5.19h-14.33l1.72,3h12.61c4.51,0,8.19-3.67,8.19-8.19v-27.3l-3,1.72Zm0,0v25.58c0,2.86-2.33,5.19-5.19,5.19h-14.33l1.72,3h12.61c4.51,0,8.19-3.67,8.19-8.19v-27.3l-3,1.72Zm0,0v25.58c0,2.86-2.33,5.19-5.19,5.19h-14.33l1.72,3h12.61c4.51,0,8.19-3.67,8.19-8.19v-27.3l-3,1.72Zm0,0v25.58c0,2.86-2.33,5.19-5.19,5.19h-14.33l1.72,3h12.61c4.51,0,8.19-3.67,8.19-8.19v-27.3l-3,1.72Zm0,0v25.58c0,2.86-2.33,5.19-5.19,5.19h-14.33l1.72,3h12.61c4.51,0,8.19-3.67,8.19-8.19v-27.3l-3,1.72Zm0,0v25.58c0,2.86-2.33,5.19-5.19,5.19h-14.33l1.72,3h12.61c4.51,0,8.19-3.67,8.19-8.19v-27.3l-3,1.72Zm0,0v25.58c0,2.86-2.33,5.19-5.19,5.19h-14.33l1.72,3h12.61c4.51,0,8.19-3.67,8.19-8.19v-27.3l-3,1.72Zm0,0v25.58c0,2.86-2.33,5.19-5.19,5.19h-14.33l1.72,3h12.61c4.51,0,8.19-3.67,8.19-8.19v-27.3l-3,1.72Zm0,0v25.58c0,2.86-2.33,5.19-5.19,5.19h-6.19l2.48,3h3.71c4.51,0,8.19-3.67,8.19-8.19v-27.3l-3,1.72Zm0,0v25.58c0,2.86-2.33,5.19-5.19,5.19h-6.19l2.48,3h3.71c4.51,0,8.19-3.67,8.19-8.19v-27.3l-3,1.72Zm0,0v25.58c0,2.86-2.33,5.19-5.19,5.19h-6.19l2.48,3h3.71c4.51,0,8.19-3.67,8.19-8.19v-27.3l-3,1.72Zm0,0v25.58c0,2.86-2.33,5.19-5.19,5.19h-6.19l2.48,3h3.71c4.51,0,8.19-3.67,8.19-8.19v-27.3l-3,1.72Zm0,0v25.58c0,2.86-2.33,5.19-5.19,5.19h-6.19l2.48,3h3.71c4.51,0,8.19-3.67,8.19-8.19v-27.3l-3,1.72Zm0,0v25.58c0,2.86-2.33,5.19-5.19,5.19h-6.19l2.48,3h3.71c4.51,0,8.19-3.67,8.19-8.19v-27.3l-3,1.72Zm0,0v25.58c0,2.86-2.33,5.19-5.19,5.19h-6.19l2.48,3h3.71c4.51,0,8.19-3.67,8.19-8.19v-27.3l-3,1.72Zm0,0v25.58c0,2.86-2.33,5.19-5.19,5.19h-6.19l2.48,3h3.71c4.51,0,8.19-3.67,8.19-8.19v-27.3l-3,1.72Zm0,0v25.58c0,2.86-2.33,5.19-5.19,5.19h-6.19l2.48,3h3.71c4.51,0,8.19-3.67,8.19-8.19v-27.3l-3,1.72Zm0,0v25.58c0,2.86-2.33,5.19-5.19,5.19h-6.19l2.48,3h3.71c4.51,0,8.19-3.67,8.19-8.19v-27.3l-3,1.72Zm0,0v25.58c0,2.86-2.33,5.19-5.19,5.19h-6.19l2.48,3h3.71c4.51,0,8.19-3.67,8.19-8.19v-27.3l-3,1.72Zm0,0v25.58c0,2.86-2.33,5.19-5.19,5.19h-6.19l2.48,3h3.71c4.51,0,8.19-3.67,8.19-8.19v-27.3l-3,1.72Zm0,0v25.58c0,2.86-2.33,5.19-5.19,5.19h-6.19l2.48,3h3.71c4.51,0,8.19-3.67,8.19-8.19v-27.3l-3,1.72Zm0,0v25.58c0,2.86-2.33,5.19-5.19,5.19h-6.19l2.48,3h3.71c4.51,0,8.19-3.67,8.19-8.19v-27.3l-3,1.72Zm0,0v25.58c0,2.86-2.33,5.19-5.19,5.19h-6.19l2.48,3h3.71c4.51,0,8.19-3.67,8.19-8.19v-27.3l-3,1.72Zm0,0v25.58c0,2.86-2.33,5.19-5.19,5.19h-6.19l2.48,3h3.71c4.51,0,8.19-3.67,8.19-8.19v-27.3l-3,1.72Zm0,0v25.58c0,2.86-2.33,5.19-5.19,5.19h-6.19l2.48,3h3.71c4.51,0,8.19-3.67,8.19-8.19v-27.3l-3,1.72Zm0,0v25.58c0,2.86-2.33,5.19-5.19,5.19h-6.19l2.48,3h3.71c4.51,0,8.19-3.67,8.19-8.19v-27.3l-3,1.72Zm-5.19-40.27H43.29c-4.52,0-8.19,3.68-8.19,8.19v57.66c0,4.52,3.67,8.19,8.19,8.19h105.33c4.51,0,8.19-3.67,8.19-8.19v-57.66c0-4.51-3.68-8.19-8.19-8.19Zm5.19,65.85c0,2.86-2.33,5.19-5.19,5.19H43.29c-2.87,0-5.19-2.33-5.19-5.19v-57.66c0-2.86,2.32-5.19,5.19-5.19h105.33c2.86,0,5.19,2.33,5.19,5.19v57.66Zm0-25.58v25.58c0,2.86-2.33,5.19-5.19,5.19h-6.19l2.48,3h3.71c4.51,0,8.19-3.67,8.19-8.19v-27.3l-3,1.72Zm0,0v25.58c0,2.86-2.33,5.19-5.19,5.19h-6.19l2.48,3h3.71c4.51,0,8.19-3.67,8.19-8.19v-27.3l-3,1.72Zm0,0v25.58c0,2.86-2.33,5.19-5.19,5.19h-6.19l2.48,3h3.71c4.51,0,8.19-3.67,8.19-8.19v-27.3l-3,1.72Zm0,0v25.58c0,2.86-2.33,5.19-5.19,5.19h-6.19l2.48,3h3.71c4.51,0,8.19-3.67,8.19-8.19v-27.3l-3,1.72Zm0,0v25.58c0,2.86-2.33,5.19-5.19,5.19h-6.19l2.48,3h3.71c4.51,0,8.19-3.67,8.19-8.19v-27.3l-3,1.72Zm0,0v25.58c0,2.86-2.33,5.19-5.19,5.19h-6.19l2.48,3h3.71c4.51,0,8.19-3.67,8.19-8.19v-27.3l-3,1.72Zm0,0v25.58c0,2.86-2.33,5.19-5.19,5.19h-6.19l2.48,3h3.71c4.51,0,8.19-3.67,8.19-8.19v-27.3l-3,1.72Zm0,0v25.58c0,2.86-2.33,5.19-5.19,5.19h-6.19l2.48,3h3.71c4.51,0,8.19-3.67,8.19-8.19v-27.3l-3,1.72Zm0,0v25.58c0,2.86-2.33,5.19-5.19,5.19h-6.19l2.48,3h3.71c4.51,0,8.19-3.67,8.19-8.19v-27.3l-3,1.72Zm0,0v25.58c0,2.86-2.33,5.19-5.19,5.19h-6.19l2.48,3h3.71c4.51,0,8.19-3.67,8.19-8.19v-27.3l-3,1.72Zm0,0v25.58c0,2.86-2.33,5.19-5.19,5.19h-6.19l2.48,3h3.71c4.51,0,8.19-3.67,8.19-8.19v-27.3l-3,1.72Zm0,0v25.58c0,2.86-2.33,5.19-5.19,5.19h-6.19l2.48,3h3.71c4.51,0,8.19-3.67,8.19-8.19v-27.3l-3,1.72Zm0,0v25.58c0,2.86-2.33,5.19-5.19,5.19h-6.19l2.48,3h3.71c4.51,0,8.19-3.67,8.19-8.19v-27.3l-3,1.72Zm0,0v25.58c0,2.86-2.33,5.19-5.19,5.19h-6.19l2.48,3h3.71c4.51,0,8.19-3.67,8.19-8.19v-27.3l-3,1.72Zm0,0v25.58c0,2.86-2.33,5.19-5.19,5.19h-6.19l2.48,3h3.71c4.51,0,8.19-3.67,8.19-8.19v-27.3l-3,1.72Zm0,0v25.58c0,2.86-2.33,5.19-5.19,5.19h-6.19l2.48,3h3.71c4.51,0,8.19-3.67,8.19-8.19v-27.3l-3,1.72Zm0,0v25.58c0,2.86-2.33,5.19-5.19,5.19h-6.19l2.48,3h3.71c4.51,0,8.19-3.67,8.19-8.19v-27.3l-3,1.72Zm0,0v25.58c0,2.86-2.33,5.19-5.19,5.19h-6.19l2.48,3h3.71c4.51,0,8.19-3.67,8.19-8.19v-27.3l-3,1.72Zm0,0v25.58c0,2.86-2.33,5.19-5.19,5.19h-14.33l1.72,3h12.61c4.51,0,8.19-3.67,8.19-8.19v-27.3l-3,1.72Zm0,0v25.58c0,2.86-2.33,5.19-5.19,5.19h-14.33l1.72,3h12.61c4.51,0,8.19-3.67,8.19-8.19v-27.3l-3,1.72Zm0,0v25.58c0,2.86-2.33,5.19-5.19,5.19h-14.33l1.72,3h12.61c4.51,0,8.19-3.67,8.19-8.19v-27.3l-3,1.72Zm0,0v25.58c0,2.86-2.33,5.19-5.19,5.19h-14.33l1.72,3h12.61c4.51,0,8.19-3.67,8.19-8.19v-27.3l-3,1.72Zm0,0v25.58c0,2.86-2.33,5.19-5.19,5.19h-14.33l1.72,3h12.61c4.51,0,8.19-3.67,8.19-8.19v-27.3l-3,1.72Zm0,0v25.58c0,2.86-2.33,5.19-5.19,5.19h-14.33l1.72,3h12.61c4.51,0,8.19-3.67,8.19-8.19v-27.3l-3,1.72Zm0,0v25.58c0,2.86-2.33,5.19-5.19,5.19h-14.33l1.72,3h12.61c4.51,0,8.19-3.67,8.19-8.19v-27.3l-3,1.72Zm0,0v25.58c0,2.86-2.33,5.19-5.19,5.19h-14.33l1.72,3h12.61c4.51,0,8.19-3.67,8.19-8.19v-27.3l-3,1.72Zm0-23.34v48.92c0,2.86-2.33,5.19-5.19,5.19h-14.33l1.72,3h12.61c4.51,0,8.19-3.67,8.19-8.19v-51.4l-3,2.48Zm0,0v48.92c0,2.86-2.33,5.19-5.19,5.19h-14.33l1.72,3h12.61c4.51,0,8.19-3.67,8.19-8.19v-51.4l-3,2.48Zm0,0v48.92c0,2.86-2.33,5.19-5.19,5.19h-14.33l1.72,3h12.61c4.51,0,8.19-3.67,8.19-8.19v-51.4l-3,2.48Zm0,0v48.92c0,2.86-2.33,5.19-5.19,5.19h-14.33l1.72,3h12.61c4.51,0,8.19-3.67,8.19-8.19v-51.4l-3,2.48Zm0,11.79v37.13c0,2.86-2.33,5.19-5.19,5.19h-14.33l1.72,3h12.61c4.51,0,8.19-3.67,8.19-8.19v-39.61l-3,2.48Zm0,0v37.13c0,2.86-2.33,5.19-5.19,5.19h-14.33l1.72,3h12.61c4.51,0,8.19-3.67,8.19-8.19v-39.61l-3,2.48Zm0,1.08v36.05c0,2.86-2.33,5.19-5.19,5.19h-14.33l1.72,3h12.61c4.51,0,8.19-3.67,8.19-8.19v-37.76l-3,1.71Zm0,0v36.05c0,2.86-2.33,5.19-5.19,5.19h-14.33l1.72,3h12.61c4.51,0,8.19-3.67,8.19-8.19v-37.76l-3,1.71Zm0,0v36.05c0,2.86-2.33,5.19-5.19,5.19h-14.33l1.72,3h12.61c4.51,0,8.19-3.67,8.19-8.19v-37.76l-3,1.71Zm0,8.12v27.93c0,2.86-2.33,5.19-5.19,5.19h-14.33l1.72,3h12.61c4.51,0,8.19-3.67,8.19-8.19v-28.89l-3,.96Z"/><path class="f" d="M181.67,118.72c-.59-.72-1.13-1.47-1.61-2.24-.94,1.26-2.44,2.07-4.14,2.07h-22.11v3h19.57l8.4-2.7s-.07-.09-.11-.13Zm-24.86-.17v.37l.65-.37h-.65Zm24.86,.17c-.59-.72-1.13-1.47-1.61-2.24-.94,1.26-2.44,2.07-4.14,2.07h-19.11v3h16.57l8.4-2.7s-.07-.09-.11-.13Zm0,0c-.59-.72-1.13-1.47-1.61-2.24-.94,1.26-2.44,2.07-4.14,2.07h-19.11v3h16.57l8.4-2.7s-.07-.09-.11-.13Zm0,0c-.59-.72-1.13-1.47-1.61-2.24-.94,1.26-2.44,2.07-4.14,2.07h-19.11v3h16.57l8.4-2.7s-.07-.09-.11-.13Zm0,0c-.59-.72-1.13-1.47-1.61-2.24-.94,1.26-2.44,2.07-4.14,2.07h-19.11v3h16.57l8.4-2.7s-.07-.09-.11-.13Zm0,0c-.59-.72-1.13-1.47-1.61-2.24-.94,1.26-2.44,2.07-4.14,2.07h-19.11v3h16.57l8.4-2.7s-.07-.09-.11-.13Zm-115.5-2.67c-.47,.4-1.09,.64-1.76,.64h-1.3c.5,1.13,1.26,2.13,2.19,2.92,1.2-.18,2.28-.73,3.12-1.54-.94-.43-1.73-1.14-2.25-2.02Zm-1.76-12.84h-2.01v3h2.01c.35,0,.68,.06,.99,.18v-3.09c-.32-.06-.65-.09-.99-.09Zm111.51-55.7H70.59c-4.51,0-8.19,3.67-8.19,8.19v27.67h3v-27.67c0-2.86,2.33-5.19,5.19-5.19h105.33c2.87,0,5.19,2.33,5.19,5.19v57.66c0,1.17-.39,2.25-1.05,3.12-.94,1.26-2.44,2.07-4.14,2.07h-22.11v3h22.11c2.35,0,4.47-.99,5.97-2.58l.18-.21h.01c.64-.73,1.14-1.57,1.49-2.48,.35-.91,.54-1.89,.54-2.92V55.7c0-4.52-3.67-8.19-8.19-8.19Zm5.75,71.21c-.59-.72-1.13-1.47-1.61-2.24-.94,1.26-2.44,2.07-4.14,2.07h-19.11v3h16.57l8.4-2.7s-.07-.09-.11-.13Zm0,0c-.59-.72-1.13-1.47-1.61-2.24-.94,1.26-2.44,2.07-4.14,2.07h-19.11v3h16.57l8.4-2.7s-.07-.09-.11-.13Zm0,0c-.59-.72-1.13-1.47-1.61-2.24-.94,1.26-2.44,2.07-4.14,2.07h-19.11v3h16.57l8.4-2.7s-.07-.09-.11-.13Zm0,0c-.59-.72-1.13-1.47-1.61-2.24-.94,1.26-2.44,2.07-4.14,2.07h-19.11v3h16.57l8.4-2.7s-.07-.09-.11-.13Zm-24.86-.17v1.93l6.02-1.93h-6.02Z"/><path class="f" d="M66.4,130.52c0,1.38-1.12,2.5-2.5,2.5h-15.55c-1.38,0-2.5-1.12-2.5-2.5s1.12-2.5,2.5-2.5h15.55c1.38,0,2.5,1.12,2.5,2.5Z"/><path class="f" d="M92.95,130.52c0,1.38-1.12,2.5-2.5,2.5h-15.55c-1.38,0-2.5-1.12-2.5-2.5s1.12-2.5,2.5-2.5h15.55c1.38,0,2.5,1.12,2.5,2.5Z"/><path class="f" d="M119.5,130.52c0,.29-.05,.57-.14,.82-.34,.98-1.27,1.68-2.36,1.68h-15.55c-1.38,0-2.5-1.12-2.5-2.5s1.12-2.5,2.5-2.5h15.55c.45,0,.88,.12,1.24,.33,.75,.43,1.26,1.24,1.26,2.17Z"/><path class="f" d="M146.05,130.52c0,.06,0,.13-.01,.19-.02,.3-.1,.6-.22,.86-.1,.22-.23,.41-.39,.59-.45,.53-1.13,.86-1.88,.86h-15.55c-.36,0-.7-.08-1.01-.21h0c-.87-.39-1.49-1.27-1.49-2.29,0-.55,.18-1.05,.48-1.47,.45-.62,1.19-1.03,2.02-1.03h15.55c1.33,0,2.42,1.05,2.49,2.36,.01,.05,.01,.09,.01,.14Z"/><path class="f" d="M147.01,94.96c0,2.49-2.01,4.5-4.5,4.5h-42.1c-2.49,0-4.5-2.01-4.5-4.5s2.01-4.5,4.5-4.5h42.1c2.49,0,4.5,2.02,4.5,4.5Z"/><path class="f" d="M92.64,142.85c0,.83-.68,1.5-1.5,1.5H47.37c-.83,0-1.5-.67-1.5-1.5s.67-1.5,1.5-1.5h43.77c.82,0,1.5,.67,1.5,1.5Z"/><path class="f" d="M145.4,142.74c0,.82-.67,1.5-1.5,1.5h-16.79c-.14,0-.28-.02-.41-.07-.63-.17-1.09-.75-1.09-1.43,0-.13,.02-.25,.05-.37,.16-.65,.75-1.13,1.45-1.13h16.79c.64,0,1.18,.39,1.39,.95,.07,.17,.11,.36,.11,.55Z"/><path class="f" d="M65.4,103.3c-.32-.06-.65-.09-.99-.09h-12.77c-3.18,0-5.77,2.59-5.77,5.78v4.93c0,3.18,2.59,5.77,5.77,5.77h12.77c.3,0,.6-.02,.89-.08,1.2-.18,2.28-.73,3.12-1.54,1.09-1.05,1.77-2.52,1.77-4.15v-4.93c0-2.85-2.07-5.22-4.79-5.69Zm-.99,13.39h-12.77c-1.53,0-2.77-1.25-2.77-2.77v-4.93c0-1.53,1.24-2.78,2.77-2.78h12.77c.35,0,.68,.06,.99,.18,1.04,.4,1.79,1.42,1.79,2.6v4.93c0,.85-.4,1.62-1.02,2.13-.47,.4-1.09,.64-1.76,.64Z"/><rect class="f" x="63.9" y="58.06" width="118.71" height="12.61"/><path class="f" d="M206.8,110.82l-9.05,2.9-2.05,.66c-.59,.47-.84,1.3-.56,2.05,.18,.46,.52,.8,.93,.99l1.38-.45,3.49-1.12,1.14-.36h.01c.06-.04,.12-.07,.18-.11,.02-.02,.04-.04,.06-.04l.04,.05,3.71-1.19-.91-1.11c.49-.51,.9-1.04,1.23-1.58,.15-.23,.28-.46,.4-.69Zm-.46-6.25c-.89-1.24-1.99-1.83-3.17-2.02-.08-.01-.16-.02-.24-.04-2.28-.26-4.82,.9-6.76,1.77l-.78,.35c-1.13,.5-1.99,.82-2.67,1-.07,.07-.14,.15-.2,.23l-4.93,1.58c.76,.97,1.66,1.51,2.6,1.76,.4,.1,.8,.16,1.21,.17l2.88-.92,5.47-1.76,.06-.02c.57-.22,1.05-.37,1.46-.47,.25-.05,.47-.09,.67-.1-.05-.03-.11-.05-.16-.06l4.56-1.47Zm-9.27-8.67c-.41-.86-1.41-1.25-2.3-.91-1.36,.53-2.38,1.01-3.21,1.51-.02,0-.04,.03-.07,.04l-.5-.62-3.19,1.83,.86,1.04c-.93,.96-1.6,2-1.98,3.05l10.39-5.94Z"/><path class="f" d="M153.81,93.41v3.89l3-2.48v-3.89l-3,2.48Zm-14.45,68.09l-5.16-6.25-.7-.84-2.47-3h-3.9l2.48,3,7.07,8.55,2.49,3.02,2.67,3.23-2.48-7.71Zm13,15.73l-1.61-1.95-1.44-1.74,.91,2.83c.02,.08,.06,.15,.09,.23h.01c0,.08,.02,.14,.04,.21,.26,.79,1.1,1.23,1.89,.97,.15-.05,.31-.09,.46-.13l-.35-.42Zm66.01-41.61c-1.06-.05-2.11,0-3.03,.04l-.86,.04h-.04l-3.37,2.79-.71,.57c1.54,.36,3.16,.3,4.26,.26h.16l4.39-3.64c-.26-.03-.53-.05-.8-.06Zm-17.18,11.03l-2.33,1.92c.54,.84,1.15,1.63,1.83,2.38l2.31-1.91c-.67-.74-1.28-1.54-1.81-2.39Zm28.2-23.3l-2.34,1.93c.73,.68,1.4,1.43,2,2.24l2.33-1.92c-.6-.8-1.26-1.55-1.99-2.25Zm39.84-31.01c-.17-.53-.59-.9-1.1-1l-.2,.16-1.62,1.34-3.99,3.3,4.63-1.49c.17,.37,.37,.73,.6,1.07l2.33-1.93c-.27-.45-.48-.93-.65-1.45Zm-105.3,87.95c-.33-.68-.72-1.31-1.19-1.88l-2.31,1.91c.53,.67,.94,1.43,1.21,2.28,.05,.16,.12,.31,.22,.43l.25-.21,2.15-1.78,1.71-1.4-2.04,.65ZM256.46,48.01l-17.62-21.33c-.46-.56-1.11-.91-1.83-.98-.72-.07-1.42,.15-1.98,.61l-50.92,42.07-1.5,1.24-1.27,1.05-.23,.19v3.89l3-2.48,52.6-43.46,17.11,20.71,1.94,2.34,2.64-1.51-1.94-2.34Zm26.2,31.71l-1.8-2.18-5-6.05-11.24-13.61,8.75,15.3,4.38,5.3,2.06,2.49,1.16-.37,1.02,3.18,.31-.25c.1-.09,.2-.18,.29-.28,.39-.43,.62-.96,.68-1.55,.07-.72-.15-1.42-.61-1.98Zm-166.03,48.3h-4.71l-.36,.3c-.56,.46-.9,1.11-.97,1.83-.07,.71,.15,1.42,.61,1.97l.74,.9h3.89l-2.13-2.58,2.93-2.42Z"/><g><polygon class="f" points="156.81 102.72 156.81 106.61 153.81 109.09 153.81 105.2 156.81 102.72"/><path class="f" d="M229.66,46.43l-.77,.63-44.78,37-3,2.48v-3.89l3-2.48,43.64-36.06c.06-.05,.13-.1,.2-.14h.02c.62-.36,1.43-.22,1.89,.35,.53,.63,.44,1.58-.2,2.11Z"/></g><g><polygon class="f" points="136.51 144.24 132.61 144.24 130.13 141.24 134.03 141.24 136.51 144.24"/><polygon class="f" points="149.7 164.92 146.46 161 144.54 158.67 143.78 156.31 143.17 154.41 141.01 154.41 138.53 151.41 142.43 151.41 144.91 154.41 147.22 157.2 149.7 164.92"/></g><g><path class="f" d="M178.69,153.45c-.66,2.03-2.24,3.73-4.43,4.44-.42,.13-.84,.22-1.26,.27l5.69-4.71Z"/><path class="f" d="M198.85,140.68l-2.59,2.14c-.31-1.12-.51-2.25-.61-3.38l2.93-2.42c-.05,1.21,.04,2.44,.27,3.66Z"/><path class="f" d="M215.96,126.54l-1.3,1.08-2.84,2.34-5.78,4.78c-.02-.12-.03-.24-.05-.36-.22-1.63,.27-3.14,1.35-4.39,.74-.88,1.78-1.64,3.06-2.21l-.13-.42,3-2.48,.6,1.86s.05,0,.07,0c.39-.06,.8-.11,1.25-.14,.24-.02,.5-.04,.77-.05Z"/><path class="f" d="M221.03,118.47c1.09,.32,2.16,.73,3.19,1.25l-2.59,2.14c-1.14-.45-2.32-.77-3.54-.96l2.94-2.43Z"/><polygon class="f" points="252.93 96 246.69 101.16 246.68 101.16 243.62 102.15 238.99 103.63 242.14 101.03 245.23 98.47 245.24 98.47 252.93 96"/><path class="f" d="M264,86.05l-2.4,.77-3.7,1.19,2.86-2.37,.79-.65c.64-.53,1.59-.44,2.12,.2,.21,.25,.32,.56,.33,.86Z"/></g><g><path class="f" d="M248.72,52.44l1.94,2.34-2.65,1.52-1.94-2.35-4.71-5.7-.61-.74c-.52-.64-.43-1.58,.2-2.11,.58-.48,1.42-.45,1.96,.05h.01c.06,.04,.1,.09,.15,.15l5.65,6.84Z"/><path class="f" d="M264.67,74.1c-.21,.17-.46,.29-.72,.33l-1.18-2.07-1.65-2.89c-.59,.24-1.19,.41-1.79,.53l-2.32-2.81c1.13,.05,2.27-.16,3.35-.65l.38,.46,1.58,1.9,2.55,3.09c.05,.07,.1,.14,.14,.21h.01c.34,.63,.21,1.43-.35,1.9Z"/></g><path class="f" d="M134.52,133.02h-3.03c.26-1.41,.12-2.9-.45-4.26-.1-.25-.22-.5-.36-.74h3.29c.6,1.61,.78,3.33,.55,5Z"/><g><path class="f" d="M264.28,85.96l-.28,.09-2.4,.77c-.31-.38-.59-.77-.84-1.18-.29-.47-.54-.96-.74-1.47l2.87-.92c.27,.6,.62,1.17,1.06,1.7,.24,.29,.35,.65,.33,1.01Z"/><path class="f" d="M264.95,74.44c-.23,.19-.45,.39-.65,.6l-.35-.61-1.18-2.07c.09-.08,.18-.15,.27-.23,.59-.49,1.43-.45,1.97,.07h.01c.05,.03,.09,.08,.13,.13,.53,.64,.44,1.59-.2,2.11Z"/></g><path class="f" d="M235.94,49.78c-.34,0-.67-.02-1.01-.05-2.78-.26-5.3-1.6-7.08-3.75-.53-.64-.44-1.58,.2-2.11,.64-.53,1.58-.44,2.11,.2,2.62,3.17,7.34,3.62,10.51,1,.64-.53,1.58-.44,2.11,.2,.53,.64,.44,1.58-.2,2.11-1.89,1.56-4.22,2.4-6.65,2.4Z"/><path class="f" d="M181.42,112.58c-.11-.26-.22-.53-.31-.81v1.59c0,1.17-.39,2.25-1.05,3.12,.48,.77,1.02,1.52,1.61,2.24,.04,.04,.07,.09,.11,.13l.29-.09h.01c.64-.73,1.14-1.57,1.49-2.48-.89-1.16-1.61-2.4-2.15-3.7Zm0,0c-.11-.26-.22-.53-.31-.81v1.59c0,1.17-.39,2.25-1.05,3.12,.48,.77,1.02,1.52,1.61,2.24,.04,.04,.07,.09,.11,.13l.29-.09h.01c.64-.73,1.14-1.57,1.49-2.48-.89-1.16-1.61-2.4-2.15-3.7Zm0,0c-.11-.26-.22-.53-.31-.81v1.59c0,1.17-.39,2.25-1.05,3.12,.48,.77,1.02,1.52,1.61,2.24,.04,.04,.07,.09,.11,.13l.29-.09h.01c.64-.73,1.14-1.57,1.49-2.48-.89-1.16-1.61-2.4-2.15-3.7Zm0,0c-.11-.26-.22-.53-.31-.81v1.59c0,1.17-.39,2.25-1.05,3.12,.48,.77,1.02,1.52,1.61,2.24,.04,.04,.07,.09,.11,.13l.29-.09h.01c.64-.73,1.14-1.57,1.49-2.48-.89-1.16-1.61-2.4-2.15-3.7Zm0,0c-.11-.26-.22-.53-.31-.81v1.59c0,1.17-.39,2.25-1.05,3.12,.48,.77,1.02,1.52,1.61,2.24,.04,.04,.07,.09,.11,.13l.29-.09h.01c.64-.73,1.14-1.57,1.49-2.48-.89-1.16-1.61-2.4-2.15-3.7Zm0,0c-.11-.26-.22-.53-.31-.81v1.59c0,1.17-.39,2.25-1.05,3.12,.48,.77,1.02,1.52,1.61,2.24,.04,.04,.07,.09,.11,.13l.29-.09h.01c.64-.73,1.14-1.57,1.49-2.48-.89-1.16-1.61-2.4-2.15-3.7Zm0,0c-.11-.26-.22-.53-.31-.81v1.59c0,1.17-.39,2.25-1.05,3.12,.48,.77,1.02,1.52,1.61,2.24,.04,.04,.07,.09,.11,.13l.29-.09h.01c.64-.73,1.14-1.57,1.49-2.48-.89-1.16-1.61-2.4-2.15-3.7Zm0,0c-.11-.26-.22-.53-.31-.81v1.59c0,1.17-.39,2.25-1.05,3.12,.48,.77,1.02,1.52,1.61,2.24,.04,.04,.07,.09,.11,.13l.29-.09h.01c.64-.73,1.14-1.57,1.49-2.48-.89-1.16-1.61-2.4-2.15-3.7Zm23.7-24.74h-.01l-3.4,1.95c1.21,.35,2.38,.83,3.5,1.45h.01l2.97-1.7c-.98-.66-2-1.23-3.07-1.7Zm11.16,13.12c-.22-.83-.49-1.66-.83-2.47l-2.87,.92,.09,.21c.36,.86,.64,1.75,.84,2.65l2.87-.92c-.03-.13-.06-.26-.1-.39Zm-31.94-10.28c-.08,.06-.16,.13-.23,.2-1.14,.96-2.14,2.03-3,3.17v6.27c.66-1.87,1.67-3.64,3-5.21v-2.27l11.66-6.67c-4.05,.25-8.07,1.73-11.43,4.51Zm.58,27.16l-2.84,.91c.64-.72,1.14-1.56,1.49-2.47-.89-1.16-1.61-2.4-2.15-3.7-.11-.26-.22-.53-.31-.81v1.59c0,1.17-.39,2.25-1.05,3.12,.48,.77,1.02,1.52,1.61,2.24,.04,.04,.07,.09,.11,.13,.04,.04,.07,.08,.11,.12,.7,.83,1.47,1.59,2.28,2.27l3.49-1.12c-.98-.65-1.91-1.41-2.74-2.28Zm28.81-9.25c-.17,1.17-.47,2.33-.9,3.44l3.48-1.11c.29-1.1,.47-2.22,.55-3.34l-3.13,1.01Zm-32.31,3.99c-.11-.26-.22-.53-.31-.81v1.59c0,1.17-.39,2.25-1.05,3.12,.48,.77,1.02,1.52,1.61,2.24,.04,.04,.07,.09,.11,.13l.29-.09h.01c.64-.73,1.14-1.57,1.49-2.48-.89-1.16-1.61-2.4-2.15-3.7Zm0,0c-.11-.26-.22-.53-.31-.81v1.59c0,1.17-.39,2.25-1.05,3.12,.48,.77,1.02,1.52,1.61,2.24,.04,.04,.07,.09,.11,.13l.29-.09h.01c.64-.73,1.14-1.57,1.49-2.48-.89-1.16-1.61-2.4-2.15-3.7Zm0,0c-.11-.26-.22-.53-.31-.81v1.59c0,1.17-.39,2.25-1.05,3.12,.48,.77,1.02,1.52,1.61,2.24,.04,.04,.07,.09,.11,.13l.29-.09h.01c.64-.73,1.14-1.57,1.49-2.48-.89-1.16-1.61-2.4-2.15-3.7Zm0,0c-.11-.26-.22-.53-.31-.81v1.59c0,1.17-.39,2.25-1.05,3.12,.48,.77,1.02,1.52,1.61,2.24,.04,.04,.07,.09,.11,.13l.29-.09h.01c.64-.73,1.14-1.57,1.49-2.48-.89-1.16-1.61-2.4-2.15-3.7Zm0,0c-.11-.26-.22-.53-.31-.81v1.59c0,1.17-.39,2.25-1.05,3.12,.48,.77,1.02,1.52,1.61,2.24,.04,.04,.07,.09,.11,.13l.29-.09h.01c.64-.73,1.14-1.57,1.49-2.48-.89-1.16-1.61-2.4-2.15-3.7Zm0,0c-.11-.26-.22-.53-.31-.81v1.59c0,1.17-.39,2.25-1.05,3.12,.48,.77,1.02,1.52,1.61,2.24,.04,.04,.07,.09,.11,.13l.29-.09h.01c.64-.73,1.14-1.57,1.49-2.48-.89-1.16-1.61-2.4-2.15-3.7Zm0,0c-.11-.26-.22-.53-.31-.81v1.59c0,1.17-.39,2.25-1.05,3.12,.48,.77,1.02,1.52,1.61,2.24,.04,.04,.07,.09,.11,.13l.29-.09h.01c.64-.73,1.14-1.57,1.49-2.48-.89-1.16-1.61-2.4-2.15-3.7Zm0,0c-.11-.26-.22-.53-.31-.81v1.59c0,1.17-.39,2.25-1.05,3.12,.48,.77,1.02,1.52,1.61,2.24,.04,.04,.07,.09,.11,.13l.29-.09h.01c.64-.73,1.14-1.57,1.49-2.48-.89-1.16-1.61-2.4-2.15-3.7Zm0,0c-.11-.26-.22-.53-.31-.81v1.59c0,1.17-.39,2.25-1.05,3.12,.48,.77,1.02,1.52,1.61,2.24,.04,.04,.07,.09,.11,.13l.29-.09h.01c.64-.73,1.14-1.57,1.49-2.48-.89-1.16-1.61-2.4-2.15-3.7Zm0,0c-.11-.26-.22-.53-.31-.81v1.59c0,1.17-.39,2.25-1.05,3.12,.48,.77,1.02,1.52,1.61,2.24,.04,.04,.07,.09,.11,.13l.29-.09h.01c.64-.73,1.14-1.57,1.49-2.48-.89-1.16-1.61-2.4-2.15-3.7Zm-.31-.81v.91l.31-.1c-.11-.26-.22-.53-.31-.81Zm28.28,6.88c-.71,.23-1.4,.5-2.07,.8-.94,.73-1.94,1.34-2.98,1.83-.24,.12-.48,.23-.72,.33-1.6,1.19-3,2.6-4.16,4.18,1.95-.23,3.88-.76,5.72-1.59,1.12-.87,2.37-1.61,3.73-2.18,.27-.2,.54-.41,.8-.63,.61-.5,1.18-1.04,1.72-1.6,.59-.62,1.14-1.27,1.63-1.95-1.23,.15-2.46,.42-3.67,.81Z"/><path class="f" d="M237.42,72.83l-11.78,6.74c-.43-1.02-.59-2.12-.49-3.19l9.77-5.59c.87,.42,1.67,1.02,2.33,1.82,.06,.07,.12,.14,.17,.22Z"/><g><path class="f" d="M156.81,130.29v9.16c-.08-.07-.14-.15-.2-.22-2.19-2.65-2.05-6.46,.2-8.94Z"/><path class="f" d="M162.81,128.09l-5.63,1.82c.11-.12,.23-.22,.35-.32,1.53-1.27,3.45-1.76,5.28-1.5Z"/></g><path class="f" d="M201.78,106.04c-.47-.16-1-.13-1.46,.14-.23,.13-.42,.31-.57,.51l.06-.02,1.46-.47c.25-.05,.47-.09,.67-.1-.05-.03-.11-.05-.16-.06Zm15.57,13.74c-.31-.87-.72-1.55-1.22-2.08-1.02-.04-2.04,.01-3.07,.14-1.23,.15-2.46,.42-3.67,.81-.71,.23-1.4,.5-2.07,.8-1.17,.52-2.26,1.14-3.27,1.86,.09-.01,.19-.02,.29-.03,1.05-.13,2.03-.37,2.77-.56l.84-.21c1.51-.39,2.64-.64,3.48-.72,1.43-.15,2.06,.16,2.42,.98,.54-.05,1.08-.08,1.62-.08,.72,0,1.44,.05,2.14,.14-.05-.35-.14-.7-.26-1.05Zm-10.55-8.97h0l-9.05,2.91c-.43,1.05-.55,2.15-.3,3.25l3.49-1.12c0-1.58,2-3.08,4.21-3.94,.35-.13,.77-.27,1.25-.4,.46-.12,.99-.25,1.58-.37,.64-.13,1.13-.57,1.33-1.13l-2.51,.8Zm8.57,18.05l-.71-1.24-.24-.41c.27-.2,.53-.41,.77-.62-.45,.03-.86,.08-1.25,.14-.02,0-.04,0-.07,0l-.6-1.86v-.02c-.12-.35-.33-.65-.6-.87-.76,.64-1.76,1.2-2.81,1.61-.04,.01-.07,.03-.11,.04,.01,.11,.03,.22,.07,.33l.45,1.39,.13,.42c-1.28,.57-2.32,1.33-3.06,2.21,1.27-.25,2.64-.54,3.83-1.02,.03-.02,.05-.03,.07-.03l.58,1.02,.4,.7c.04,.07,.09,.14,.14,.21,.68-.26,1.42-.45,2.17-.57,.31-.05,.65-.09,1.03-.12,.1-.43,.05-.9-.19-1.32Z"/><path class="f" d="M141.84,169.21l-2.48-7.71-.9-2.8-2.45-4.29-1.72-3h-3.45l1.71,3,3.15,5.5,3.47,6.07,3.72,6.51-1.05-3.28Zm11.97-62.49v3.45l3-1.71v-3.46l-3,1.72Zm142.65,.79l-8.44-14.76-5.43-9.5-3.06-5.34-3.67-6.42-13.56-23.71c-.36-.63-.94-1.08-1.63-1.27-.7-.19-1.43-.09-2.06,.27l-2.15,1.23-2.64,1.51-5.1,2.92-2.65,1.51-61.96,35.44-3,1.71v3.46l3-1.72,11.66-6.67,52.24-29.87,2.65-1.52,5.1-2.92,2.64-1.51,1.44-.82,4.78,8.35,8.75,15.3,3.24,5.67,1.52,2.66,1.68-.54,1.16-.37,1.02,3.18,3.28,10.2,7.17,12.54,1.27,2.22-.47,.27-2.66,1.52,.94,2.92,2.66-1.52,1.28-.73c.63-.36,1.08-.94,1.26-1.64,.2-.69,.1-1.42-.26-2.05Zm-121.85,69.35l-10.13,5.79-1.47,.84-.21,.12c.09,.02,.18,.03,.27,.03,.15,0,.31-.02,.46-.07,.07-.02,.13-.05,.19-.07,.04-.01,.08-.02,.12-.03l11.89-3.82,.09-.03,12.56-7.18-13.77,4.42Zm44.61-25.52c.21,.02,.42,0,.63-.07,.48-.15,.84-.48,1.05-.89l-1.68,.96Zm1.43,2.37c-2.25,.72-4.57,.96-6.84,.73l-3.97,2.27c1.52,.45,3.08,.72,4.65,.8l7.47-4.28c-.42,.18-.86,.34-1.31,.48Zm10.18-9.01c-1.16,2.51-2.93,4.73-5.19,6.43l7.48-4.28c.03-.05,.06-.09,.08-.14,.71-1.38,1.25-2.82,1.62-4.29l-3.99,2.28Zm25.64-14.66c1.35,.47,2.87,.52,4.34,.05,2.44-.78,4.14-2.82,4.61-5.17l-8.95,5.12Zm28.96-16.57l-2.65,1.52,.94,2.93,2.65-1.52-.94-2.93Zm-156.96,27.77h-1.36c-.7,0-1.29,.48-1.45,1.13l1.04,1.8c.13,.05,.27,.07,.41,.07h3.08l-1.72-3Zm-10.23-12.89c-.06,.56,.05,1.13,.34,1.63l.78,1.36c.09-.25,.14-.53,.14-.82,0-.93-.51-1.74-1.26-2.17Z"/><g><path class="f" d="M140.9,128.02l-.52,.3c-.23,.14-.49,.2-.74,.2-.42,0-.83-.18-1.12-.5h2.38Z"/><polygon class="f" points="157.46 118.55 156.81 118.92 153.81 120.64 153.81 117.19 156.81 115.47 156.81 118.55 157.46 118.55"/><path class="f" d="M249.9,65.69l-.86,.49h-.01l-11.61,6.65-11.78,6.74-17.45,9.97-2.97,1.7h-.01l-8.14,4.66-10.39,5.94-2.57,1.47-3,1.72v-3.46l3-1.71,3.69-2.11,3.19-1.83,10.71-6.13h.01l3.4-1.95h.01l20.03-11.46,9.77-5.59,13.49-7.71s.11-.06,.17-.08c.01,0,.01-.01,.02-.01,.68-.27,1.49,0,1.86,.65,.41,.72,.16,1.63-.56,2.05Z"/></g><g><path class="f" d="M140.33,144.24h-3.46l-1.71-3h3.45l.95,1.66,.18,.3h0l.59,1.04Z"/><polygon class="f" points="150.98 168.91 146.46 161 143.78 156.31 143.17 154.41 142.69 154.41 140.97 151.41 144.43 151.41 146.15 154.41 146.55 155.11 147.22 157.2 149.7 164.92 150.98 168.91"/></g><g><path class="f" d="M206.22,151.77l-2.86,1.63c-.84-.63-1.63-1.34-2.36-2.11l2.7-1.54c.77,.75,1.61,1.42,2.52,2.02Z"/><path class="f" d="M224.88,141.09h0l-12.79,7.32h-.42c-1-.02-1.8-.84-1.79-1.84,0-.13,.02-.26,.05-.38l2.43-1.39h.04c1.29,.02,2.75,.06,3.9-.14,2.66-.45,5.22-1.73,4.96-3.62-.06-.46-.18-.81-.44-1.08l3.2-1.83c.41,.63,.69,1.42,.82,2.39,.03,.19,.04,.38,.04,.57Z"/><path class="f" d="M235.25,135.17l-2.87,1.64c-.05-1.06-.2-2.13-.46-3.2l2.69-1.53c.3,1.02,.51,2.05,.64,3.09Z"/><path class="f" d="M263.7,118.89l-11.56,6.61c-.34-1.14-.36-2.3-.12-3.38l8.84-5.05c1.08,.36,2.06,.98,2.84,1.82Z"/></g><g><path class="f" d="M272.5,83.32l-2.93,.94-1.52-2.67-3.75-6.55-.35-.61-1.18-2.07-1.65-2.89-.48-.83c-.31-.54-.24-1.18,.1-1.64,.12-.16,.28-.29,.46-.4,.65-.37,1.47-.2,1.92,.36,.05,.06,.09,.12,.13,.19l7.72,13.51,1.53,2.66Z"/><path class="f" d="M280.41,97.89c-.01,.06-.02,.12-.04,.17-.11,.35-.35,.65-.69,.85-.23,.14-.49,.2-.74,.2-.44,0-.87-.19-1.16-.54-.05-.06-.1-.13-.14-.21l-.47-.83-.04-.06s.08,0,.13,0c.45-.05,.92-.14,1.37-.29,.71-.23,1.45,.09,1.78,.72Z"/></g><path class="f" d="M141.81,133.02h-3.03c.3-1.66,.04-3.43-.85-5h3.29c.62,1.63,.8,3.35,.59,5Z"/><path class="f" d="M280.41,97.89c-.33-.63-1.07-.95-1.78-.72-.45,.15-.92,.24-1.37,.29-.03,.02-.06,.04-.09,.07-1.03,.8-1.88,1.77-2.52,2.85,.56,.09,1.13,.14,1.7,.14s1.16-.05,1.73-.15l.09,.3c.13-.14,.26-.27,.4-.4h.01c.4-.37,.84-.69,1.32-.97,.33-.19,.56-.47,.67-.8h0s.02-.05,.02-.07l-.18-.54Z"/><path class="f" d="M262.48,68.82s-.11,.06-.16,.08c-.39,.23-.79,.41-1.2,.57-.59,.24-1.19,.41-1.79,.53-.67,.13-1.35,.2-2.03,.2-3.16,0-6.24-1.43-8.26-4.02h-.01c-.3-.39-.58-.81-.83-1.25-.38-.66-.21-1.48,.38-1.93,.01,0,.01-.01,.02-.01,.05-.04,.1-.07,.15-.1,.72-.41,1.64-.17,2.05,.55,1.32,2.32,3.71,3.66,6.21,3.75,1.13,.05,2.27-.16,3.35-.65,.21-.09,.42-.2,.63-.32,.72-.41,1.63-.16,2.04,.56l.09,.18c.28,.68,.01,1.48-.64,1.86Z"/><path class="f" d="M216.28,100.96c-1.16-.56-2.37-1.01-3.61-1.34-.14-.03-.28-.07-.42-.1-4.76-1.15-9.96-.56-14.54,2.06-1.93,1.1-3.6,2.48-4.99,4.05-.07,.07-.14,.15-.2,.23-.9,1.04-1.68,2.16-2.33,3.34-.12,.22-.24,.44-.35,.67l1.56-.5,2.88-.92c1.3-1.68,2.96-3.14,4.92-4.26,1.28-.73,2.61-1.28,3.97-1.64,1.45-.4,2.93-.59,4.4-.59,1.61,0,3.21,.23,4.75,.69l1.19-.38,2.87-.92,.42-.14c-.17-.08-.34-.17-.52-.25Zm8.3,18.93s-.07-.03-.1-.05c-.05,1.05-.22,2.11-.49,3.16,.46,.27,.91,.57,1.35,.88,.43,.31,.84,.63,1.24,.99,.08-.25,.16-.51,.23-.77,.22-.83,.4-1.67,.51-2.5-.86-.64-1.77-1.21-2.74-1.71Zm-2-14.14l-3.17,1.02c.77,.74,1.47,1.57,2.09,2.48l2.97-.95c-.57-.91-1.2-1.76-1.89-2.55Zm-7.24,29.91l-.86,.04h-.04c-1.76,.07-2.88,0-3.6-.22-1.49,.29-3.01,.38-4.53,.25,.56,1.59,1.67,2.49,2.94,2.99,.61-.05,1.22-.12,1.82-.23,2.23-.4,4.39-1.18,6.41-2.33,.3-.17,.6-.35,.89-.54-1.06-.05-2.11,0-3.03,.04Zm-27.56-18.74c-.1,1.05-.12,2.11-.05,3.18l2.96-.95c-.02-1.09,.07-2.17,.26-3.24l-3.17,1.01Zm8.71,14.71c-.34,1.06-.59,2.15-.74,3.26,.89,.67,1.85,1.25,2.85,1.76,.06-1.08,.22-2.13,.49-3.16-.93-.53-1.8-1.15-2.6-1.86Z"/><g><path class="f" d="M250.58,90.36l-9.93,3.19c.56-1.35,1.56-2.53,2.93-3.32,2.25-1.29,4.93-1.15,7,.13Z"/><path class="f" d="M253.82,95.71c.07,1.16-.15,2.32-.63,3.36h0l-6.49,2.09h0l-3.06,.99c-.54-.3-1.03-.67-1.48-1.12-.37-.37-.7-.78-.98-1.25l4.07-1.31h.01l7.69-2.47,.89-.29Z"/></g><path class="f" d="M173.97,144.77c-.58,1-1.42,1.87-2.5,2.48-1.64,.94-3.52,1.13-5.21,.66,.82-1.4,2.14-2.52,3.81-3.06,1.32-.42,2.66-.43,3.9-.08Z"/><path class="f" d="M224.84,140.52c-.13-.97-.41-1.76-.82-2.39-1.05-1.65-2.91-2.26-4.85-2.45-.26-.03-.53-.05-.8-.06-1.06-.05-2.11,0-3.03,.04l-.86,.04h-.04c-1.76,.07-2.88,0-3.6-.22-.9-.28-1.16-.79-1.27-1.56-.17-1.36,1.09-2.41,2.79-3.05,.68-.26,1.42-.45,2.17-.57,.31-.05,.65-.09,1.03-.12,.54-.04,1.17-.06,1.9-.05,1,.01,1.81-.79,1.82-1.8,.01-.99-.8-1.81-1.79-1.81-.56,0-1.06,0-1.53,.02-.27,.01-.53,.03-.77,.05-.45,.03-.86,.08-1.25,.14-.02,0-.04,0-.07,0l-.6-1.86v-.02c-.12-.35-.33-.65-.6-.87-.45-.36-1.07-.49-1.67-.3-.85,.27-1.36,1.1-1.25,1.95,.01,.11,.03,.22,.07,.33l.45,1.39,.13,.42c-1.28,.57-2.32,1.33-3.06,2.21-1.08,1.25-1.57,2.76-1.35,4.39,.02,.12,.03,.24,.05,.36,.07,.36,.16,.69,.27,.99,.56,1.59,1.67,2.49,2.94,2.99,.36,.15,.73,.26,1.11,.34,1.54,.36,3.16,.3,4.26,.26h.16l.71-.04c3.22-.14,4.69-.01,5.33,.68,.26,.27,.38,.62,.44,1.08,.26,1.89-2.3,3.17-4.96,3.62-1.15,.2-2.61,.16-3.9,.14h-.68c-.87-.03-1.6,.57-1.79,1.39-.03,.12-.05,.25-.05,.38-.01,1,.79,1.82,1.79,1.83h.42l.24,.02c1.44,.03,3.09,.06,4.56-.19,.03-.01,.05-.02,.07-.01l.61,1.88c.23,.74,.91,1.22,1.65,1.24,.21,.02,.42,0,.63-.07,.48-.15,.84-.48,1.05-.89h.01c.21-.43,.25-.92,.1-1.39l-.58-1.81c2.87-1.3,4.55-3.49,4.45-6.08h0c0-.2-.01-.39-.04-.58Z"/><path class="f" d="M133.35,128.02h-5.35c-.83,0-1.57,.41-2.02,1.03-.03,.32,.01,.65,.12,.98l.89,2.77h0c.31,.14,.65,.22,1.01,.22h2.21l-1.16-3.62,1.99-.64,2.31-.74Zm23.46-9.47v-1.22l-3,.96v3.16l3-.97,6.02-1.93h-6.02Zm147.96,26.36l-10.59-32.98-.94-2.92-.8-2.49-4.42-13.77-4.29-13.35c-.22-.69-.69-1.25-1.34-1.58-.48-.25-1-.34-1.53-.28-.18,.01-.36,.05-.53,.11l-.8,.26-1.78,.57-1.14,.37-5.64,1.81-2.92,.93-5.16,1.66-2.87,.92-44.57,14.32-2.87,.92-.33,.11-9.32,2.99-10.41,3.35-4.93,1.58-3.48,1.12-3,.96v3.16l.31-.1,2.69-.87,5.73-1.84,1.56-.5,2.88-.92,5.47-1.76,.06-.02,1.46-.47,.51-.16,4.56-1.47,5.98-1.92,1.19-.38,2.87-.92,.42-.14,23.85-7.66,9.93-3.19,7.31-2.35h.01l3.7-1.19,2.4-.77,.28-.09,5.29-1.7,2.93-.94,5.63-1.81,1.68-.54,1.16-.37,1.02,3.18,3.28,10.2,5.31,16.55,.94,2.92,10.31,32.1-151.92,48.79-7.02-21.85-1.05-3.28-2.48-7.71-.9-2.8-1.38-4.29-.96-3h-3.15l.96,3,.27,.84,1.5,4.66,.98,3.05,10.46,32.58c.37,1.15,1.43,1.88,2.58,1.88,.27,0,.55-.04,.82-.13l152.49-48.98c.69-.22,1.25-.69,1.58-1.33,.33-.65,.39-1.38,.16-2.07Zm-171.92-3.67h-3.15l.96,3h3.16l-.97-3Zm127.91-55.6l-2.86,2.37,3.7-1.19c-.31-.38-.59-.77-.84-1.18Z"/><g><path class="f" d="M146.04,130.71c-.02,.3-.1,.6-.22,.86-.02-.31,.06-.61,.22-.86Z"/><path class="f" d="M267.89,94.35l-.94,.3-4.63,1.49-9.13,2.93h0l-6.49,2.09h0l-3.06,.99-4.63,1.48h-.01l-14.51,4.67-2.97,.95-5.19,1.67-3.48,1.11-6.75,2.17-3.71,1.19-.28,.09h-.01l-1.14,.37-3.49,1.12-1.38,.45-5.38,1.73-2.96,.95-.07,.02-3.49,1.12-21.34,6.85h-.02l-5.63,1.82-.37,.12-3,.96v-3.16l3-.96,16.57-5.32,8.4-2.7,.29-.09h.01l2.84-.92,2.86-.92,3.17-1.01h0l4.75-1.53,2.05-.66,9.05-2.9h0l2.51-.81,4.42-1.42,3.13-1.01,2.55-.81,3.17-1.02,18.58-5.97,4.07-1.31h.01l7.69-2.47,.89-.29,13.15-4.22s.1-.03,.15-.03c.01,0,.02-.01,.03-.01,.27-.06,.54-.04,.78,.05,.43,.15,.78,.49,.93,.96,.25,.79-.18,1.63-.97,1.89Z"/></g><g><path class="f" d="M143.05,144.24h-3.15l-.11-.34c-.03-.08-.05-.17-.05-.26-.03-.14-.03-.29,0-.43h0c.08-.55,.46-1.02,1.02-1.2,.79-.26,1.63,.18,1.89,.97l.26,.81,.14,.45Z"/><path class="f" d="M152.36,177.23c-.08,.04-.16,.07-.25,.1-.15,.05-.31,.08-.46,.08-.56,0-1.07-.31-1.33-.8h-.01c-.03-.09-.07-.16-.09-.24l-.91-2.83-4.77-14.87-.76-2.36-.61-1.9-.97-3h3.16l.96,3,.23,.7,.67,2.09,2.48,7.72,1.28,3.99,1.82,5.66,.28,.88c.22,.7-.09,1.44-.72,1.78Z"/></g><path class="f" d="M284.37,144.74h-.01s-.02,.02-.03,.01c-.01,0-.02,0-.02,0-.06,.03-.11,.05-.17,.07l-108.32,34.79-.09,.03-11.89,3.82s-.08,.02-.12,.03c-.11,.03-.22,.04-.34,.04-.13,0-.25-.02-.37-.05-.37-.09-.7-.33-.9-.67-.06-.1-.11-.2-.15-.32-.26-.79,.18-1.63,.97-1.89l1-.32,2.04-.65h.01l8.63-2.78,13.77-4.42h.01l93.86-30.15,.97-.31c.79-.26,1.63,.18,1.88,.97,.23,.71-.1,1.46-.73,1.79Z"/><path class="f" d="M290.14,133.02c-.15,.05-.3,.08-.46,.08-.63,0-1.22-.41-1.42-1.05l-.29-.9-4.25-13.23-.94-2.93-4.61-14.32-.09-.3-.29-.9c-.1-.3-.09-.61-.01-.9,.14-.45,.49-.84,.98-.99,.6-.2,1.24,.01,1.61,.48,.07,.08,.13,.17,.18,.26,.01,.02,.01,.03,.01,.04,.02,.02,.03,.04,.03,.07,.02,.04,.04,.08,.05,.12l4.79,14.92,.94,2.93,4.74,14.74c.02,.06,.04,.13,.04,.19h0c.14,.74-.29,1.46-1.01,1.69Z"/><g><path class="f" d="M145.29,142.19c-.71,.64-1.51,1.18-2.38,1.6-.35,.17-.71,.32-1.08,.45h-1.5c-.25-.14-.45-.34-.59-.6-.04-.08-.08-.17-.11-.26-.05-.16-.08-.32-.07-.48,.01-.62,.41-1.2,1.04-1.4,.24-.08,.47-.16,.7-.26h2.6c.64,0,1.18,.39,1.39,.95Z"/><path class="f" d="M146.04,130.38v.33c-.02,.3-.1,.6-.22,.86-.1,.22-.23,.41-.39,.59,0-.02,0-.03-.01-.05-.21-.66,.06-1.37,.62-1.73Z"/></g><path class="f" d="M164.48,182.65c-.13,.36-.39,.67-.76,.85-.06,.02-.12,.05-.19,.07-.15,.05-.31,.07-.46,.07-.09,0-.18-.01-.27-.03-.37-.06-.71-.27-.94-.58-.1-.12-.17-.27-.22-.43-.27-.85-.68-1.61-1.21-2.28-1.77-2.29-4.79-3.41-7.72-2.67-.15,.04-.31,.08-.46,.13-.79,.26-1.63-.18-1.89-.97-.02-.07-.04-.13-.04-.2h-.01c-.08-.51,.09-1,.44-1.33,.16-.16,.35-.29,.58-.36,.49-.16,.98-.27,1.47-.35,3.81-.65,7.62,.89,9.94,3.84,.47,.57,.86,1.2,1.19,1.88,.12,.24,.24,.49,.33,.75,.09,.21,.17,.43,.24,.65,.1,.32,.09,.66-.02,.96Z"/><path class="f" d="M290.28,133.44c-3.92,1.26-6.09,5.48-4.83,9.4,.26,.78-.18,1.63-.97,1.88-.04,.01-.08,.02-.11,.02h-.01s-.02,.02-.03,.01c-.01,0-.02,0-.02,0-.1,.02-.19,.03-.28,.03-.64,0-1.23-.4-1.43-1.04-.16-.48-.27-.97-.35-1.46-.78-4.55,1.57-9.12,5.72-11.14,.44-.22,.91-.41,1.39-.56,.71-.23,1.46,.1,1.79,.74h0c.04,.08,.07,.15,.1,.23,.25,.79-.18,1.63-.97,1.88Z"/><path class="f" d="M280.57,98.49h0c.06,.69-.36,1.32-1.03,1.53-.32,.1-.63,.19-.96,.25h-.01c-.16,.05-.32,.08-.49,.1-.57,.1-1.15,.15-1.73,.15s-1.14-.05-1.7-.14c-2.89-.48-5.5-2.15-7.1-4.66-.23-.34-.43-.7-.6-1.07-.23-.44-.41-.91-.57-1.39-.05-.14-.07-.28-.07-.42-.02-.57,.3-1.11,.81-1.38,.01,0,.02-.01,.03-.01,.06-.03,.13-.06,.2-.08,.26-.09,.53-.1,.78-.03,.51,.1,.93,.47,1.1,1,.17,.52,.38,1,.65,1.45,1.46,2.54,4.32,4,7.25,3.68,.04,.01,.08,0,.13,0,.45-.05,.92-.14,1.37-.29,.71-.23,1.45,.09,1.78,.72,.04,.08,.07,.16,.1,.24,.02,.06,.04,.13,.04,.19,.01,.02,.01,.03,.01,.04,.01,.04,.01,.09,.01,.13Z"/><path class="f" d="M211.43,119.79c-.54,.56-1.11,1.1-1.72,1.6-.26,.22-.53,.43-.8,.63,.45-.19,.92-.37,1.4-.52,1.17-.38,2.36-.62,3.54-.73-.36-.82-.99-1.13-2.42-.98Zm0,0c-.54,.56-1.11,1.1-1.72,1.6-.26,.22-.53,.43-.8,.63,.45-.19,.92-.37,1.4-.52,1.17-.38,2.36-.62,3.54-.73-.36-.82-.99-1.13-2.42-.98Zm12.79-.07l-2.59,2.14c.82,.32,1.6,.7,2.36,1.14,.27-1.05,.44-2.11,.49-3.16-.08-.04-.17-.09-.26-.12Zm-12.79,.07c-.54,.56-1.11,1.1-1.72,1.6-.26,.22-.53,.43-.8,.63,.45-.19,.92-.37,1.4-.52,1.17-.38,2.36-.62,3.54-.73-.36-.82-.99-1.13-2.42-.98Zm23.82,15.38l-2.87,1.64c.13,2.76-.42,5.46-1.55,7.89l3.99-2.28c.39-1.57,.59-3.17,.59-4.78,0-.82-.05-1.65-.16-2.47Zm-11.03-15.45l-2.59,2.14c.82,.32,1.6,.7,2.36,1.14,.27-1.05,.44-2.11,.49-3.16-.08-.04-.17-.09-.26-.12Zm-12.79,.07c-.54,.56-1.11,1.1-1.72,1.6-.26,.22-.53,.43-.8,.63,.45-.19,.92-.37,1.4-.52,1.17-.38,2.36-.62,3.54-.73-.36-.82-.99-1.13-2.42-.98Zm23.82,15.38l-2.87,1.64c.13,2.76-.42,5.46-1.55,7.89l3.99-2.28c.39-1.57,.59-3.17,.59-4.78,0-.82-.05-1.65-.16-2.47Zm-11.03-15.45l-2.59,2.14c.82,.32,1.6,.7,2.36,1.14,.27-1.05,.44-2.11,.49-3.16-.08-.04-.17-.09-.26-.12Zm-12.79,.07c-.54,.56-1.11,1.1-1.72,1.6-.26,.22-.53,.43-.8,.63,.45-.19,.92-.37,1.4-.52,1.17-.38,2.36-.62,3.54-.73-.36-.82-.99-1.13-2.42-.98Zm23.82,15.38l-2.87,1.64c.13,2.76-.42,5.46-1.55,7.89l3.99-2.28c.39-1.57,.59-3.17,.59-4.78,0-.82-.05-1.65-.16-2.47Zm-11.03-15.45l-2.59,2.14c.82,.32,1.6,.7,2.36,1.14,.27-1.05,.44-2.11,.49-3.16-.08-.04-.17-.09-.26-.12Zm11.03,15.45l-2.87,1.64c.13,2.76-.42,5.46-1.55,7.89l3.99-2.28c.39-1.57,.59-3.17,.59-4.78,0-.82-.05-1.65-.16-2.47Zm-11.03-15.45l-2.59,2.14c.82,.32,1.6,.7,2.36,1.14,.27-1.05,.44-2.11,.49-3.16-.08-.04-.17-.09-.26-.12Zm11.03,15.45l-2.87,1.64c.13,2.76-.42,5.46-1.55,7.89l3.99-2.28c.39-1.57,.59-3.17,.59-4.78,0-.82-.05-1.65-.16-2.47Zm-23.82-15.38c-.54,.56-1.11,1.1-1.72,1.6-.26,.22-.53,.43-.8,.63,.45-.19,.92-.37,1.4-.52,1.17-.38,2.36-.62,3.54-.73-.36-.82-.99-1.13-2.42-.98Zm0,0c-.54,.56-1.11,1.1-1.72,1.6-.26,.22-.53,.43-.8,.63,.45-.19,.92-.37,1.4-.52,1.17-.38,2.36-.62,3.54-.73-.36-.82-.99-1.13-2.42-.98Zm0,0c-.54,.56-1.11,1.1-1.72,1.6-.26,.22-.53,.43-.8,.63,.45-.19,.92-.37,1.4-.52,1.17-.38,2.36-.62,3.54-.73-.36-.82-.99-1.13-2.42-.98Zm23.82,15.38c-.13-1.04-.34-2.07-.64-3.09-.05-.19-.11-.37-.17-.56-.69-2.16-1.73-4.16-3.06-5.92-.6-.8-1.26-1.55-1.99-2.25-.64-.63-1.34-1.22-2.07-1.75-.86-.64-1.77-1.21-2.74-1.71-.03-.02-.07-.03-.1-.05-.08-.04-.17-.09-.26-.12-1.03-.52-2.1-.93-3.19-1.25-1.6-.47-3.25-.73-4.9-.77-1.02-.04-2.04,.01-3.07,.14-1.23,.15-2.46,.42-3.67,.81-.71,.23-1.4,.5-2.07,.8-1.17,.52-2.26,1.14-3.27,1.86-.15,.09-.29,.2-.43,.3-1.6,1.19-3,2.6-4.16,4.18-1.3,1.77-2.31,3.75-2.97,5.84-.34,1.06-.59,2.15-.74,3.26-.2,1.49-.24,3.01-.1,4.55,.1,1.13,.3,2.26,.61,3.38,.08,.29,.17,.59,.26,.88,.57,1.75,1.35,3.38,2.34,4.87,.54,.84,1.15,1.63,1.83,2.38,.1,.12,.2,.23,.31,.34,.73,.77,1.52,1.48,2.36,2.11,.94,.73,1.95,1.37,3.02,1.92,1.12,.58,2.28,1.04,3.46,1.39,1.52,.45,3.08,.72,4.65,.8,.32,.01,.65,.02,.97,.02,2.05,0,4.11-.32,6.11-.96,5.02-1.61,9.11-5.06,11.55-9.72,.03-.05,.06-.09,.08-.14,.71-1.38,1.25-2.82,1.62-4.29,.39-1.57,.59-3.17,.59-4.78,0-.82-.05-1.65-.16-2.47Zm-9.61,15.96c-1.1,.83-2.32,1.54-3.65,2.09-.01,0-.02,0-.03,.01-.42,.18-.86,.34-1.31,.48-2.25,.72-4.57,.96-6.84,.73-2.09-.2-4.14-.8-6.06-1.79-.53-.27-1.04-.57-1.53-.88-.91-.6-1.75-1.27-2.52-2.02-.24-.23-.47-.47-.7-.71-.67-.74-1.28-1.54-1.81-2.39-.76-1.19-1.37-2.49-1.81-3.87-.22-.7-.4-1.4-.53-2.1-.23-1.22-.32-2.45-.27-3.66h0c0-.13,.01-.25,.02-.37,.06-1.08,.22-2.13,.49-3.16,.92-3.66,3.05-6.96,6.09-9.29,1.12-.87,2.37-1.61,3.73-2.18,.45-.19,.92-.37,1.4-.52,1.17-.38,2.36-.62,3.54-.73,.54-.05,1.08-.08,1.62-.08,.72,0,1.44,.05,2.14,.14,.16,.02,.32,.04,.48,.07,1.22,.19,2.4,.51,3.54,.96,.82,.32,1.6,.7,2.36,1.14,.46,.27,.91,.57,1.35,.88,.43,.31,.84,.63,1.24,.99,.16,.12,.32,.26,.47,.41,.73,.68,1.4,1.43,2,2.24,1.09,1.45,1.96,3.1,2.54,4.92,.12,.39,.23,.78,.33,1.17,.26,1.07,.41,2.14,.46,3.2,.13,2.76-.42,5.46-1.55,7.89-1.16,2.51-2.93,4.73-5.19,6.43Zm-14.21-31.34c-.54,.56-1.11,1.1-1.72,1.6-.26,.22-.53,.43-.8,.63,.45-.19,.92-.37,1.4-.52,1.17-.38,2.36-.62,3.54-.73-.36-.82-.99-1.13-2.42-.98Zm0,0c-.54,.56-1.11,1.1-1.72,1.6-.26,.22-.53,.43-.8,.63,.45-.19,.92-.37,1.4-.52,1.17-.38,2.36-.62,3.54-.73-.36-.82-.99-1.13-2.42-.98Zm0,0c-.54,.56-1.11,1.1-1.72,1.6-.26,.22-.53,.43-.8,.63,.45-.19,.92-.37,1.4-.52,1.17-.38,2.36-.62,3.54-.73-.36-.82-.99-1.13-2.42-.98Zm23.82,15.38l-2.87,1.64c.13,2.76-.42,5.46-1.55,7.89l3.99-2.28c.39-1.57,.59-3.17,.59-4.78,0-.82-.05-1.65-.16-2.47Zm-11.03-15.45l-2.59,2.14c.82,.32,1.6,.7,2.36,1.14,.27-1.05,.44-2.11,.49-3.16-.08-.04-.17-.09-.26-.12Zm11.03,15.45l-2.87,1.64c.13,2.76-.42,5.46-1.55,7.89l3.99-2.28c.39-1.57,.59-3.17,.59-4.78,0-.82-.05-1.65-.16-2.47Zm-23.82-15.38c-.54,.56-1.11,1.1-1.72,1.6-.26,.22-.53,.43-.8,.63,.45-.19,.92-.37,1.4-.52,1.17-.38,2.36-.62,3.54-.73-.36-.82-.99-1.13-2.42-.98Zm12.79-.07l-2.59,2.14c.82,.32,1.6,.7,2.36,1.14,.27-1.05,.44-2.11,.49-3.16-.08-.04-.17-.09-.26-.12Zm11.03,15.45l-2.87,1.64c.13,2.76-.42,5.46-1.55,7.89l3.99-2.28c.39-1.57,.59-3.17,.59-4.78,0-.82-.05-1.65-.16-2.47Zm-23.82-15.38c-.54,.56-1.11,1.1-1.72,1.6-.26,.22-.53,.43-.8,.63,.45-.19,.92-.37,1.4-.52,1.17-.38,2.36-.62,3.54-.73-.36-.82-.99-1.13-2.42-.98Zm12.79-.07l-2.59,2.14c.82,.32,1.6,.7,2.36,1.14,.27-1.05,.44-2.11,.49-3.16-.08-.04-.17-.09-.26-.12Zm11.03,15.45l-2.87,1.64c.13,2.76-.42,5.46-1.55,7.89l3.99-2.28c.39-1.57,.59-3.17,.59-4.78,0-.82-.05-1.65-.16-2.47Zm-23.82-15.38c-.54,.56-1.11,1.1-1.72,1.6-.26,.22-.53,.43-.8,.63,.45-.19,.92-.37,1.4-.52,1.17-.38,2.36-.62,3.54-.73-.36-.82-.99-1.13-2.42-.98Zm12.79-.07l-2.59,2.14c.82,.32,1.6,.7,2.36,1.14,.27-1.05,.44-2.11,.49-3.16-.08-.04-.17-.09-.26-.12Zm11.03,15.45l-2.87,1.64c.13,2.76-.42,5.46-1.55,7.89l3.99-2.28c.39-1.57,.59-3.17,.59-4.78,0-.82-.05-1.65-.16-2.47Zm-23.82-15.38c-.54,.56-1.11,1.1-1.72,1.6-.26,.22-.53,.43-.8,.63,.45-.19,.92-.37,1.4-.52,1.17-.38,2.36-.62,3.54-.73-.36-.82-.99-1.13-2.42-.98Zm12.79-.07l-2.59,2.14c.82,.32,1.6,.7,2.36,1.14,.27-1.05,.44-2.11,.49-3.16-.08-.04-.17-.09-.26-.12Z"/><path class="f" d="M265.42,124.92c-.47,2.35-2.17,4.39-4.61,5.17-1.47,.47-2.99,.42-4.34-.05-1.96-.68-3.59-2.24-4.28-4.37-.02-.06-.04-.11-.05-.17-.34-1.14-.36-2.3-.12-3.38,.51-2.31,2.2-4.29,4.6-5.07,1.44-.46,2.91-.42,4.24,.02,1.08,.36,2.06,.98,2.84,1.82,.68,.72,1.21,1.59,1.53,2.59,.37,1.15,.42,2.34,.19,3.44Z"/><path class="f" d="M178.69,153.45c-.66,2.03-2.24,3.73-4.43,4.44-.42,.13-.84,.22-1.26,.27t-.02,.01c-3.19,.39-6.32-1.53-7.34-4.71-.62-1.93-.33-3.93,.62-5.55,.82-1.4,2.14-2.52,3.81-3.06,1.32-.42,2.66-.43,3.9-.08,2.16,.59,3.98,2.23,4.71,4.51,.46,1.41,.43,2.86,0,4.17Z"/></g><g id="d"/></svg>