<?xml version="1.0" encoding="UTF-8"?><svg xmlns="http://www.w3.org/2000/svg" viewBox="0 0 340 220"><defs><style>.e{fill:#003f5e;}.f{fill:#fff;}.g{fill:#ff7734;}.h{fill:#b3d8da;}.i{fill:#e0eff0;}.j{fill:#4da4aa;}.k{fill:none;stroke:#003f5e;stroke-linecap:round;stroke-linejoin:round;stroke-width:3px;}</style></defs><g id="a"><path class="i" d="M313.16,118.25c.55,16.42-3.84,32.89-13.87,45.6-2.19,2.69-4.7,5.29-7.42,7.79-13.68,14.88-34.26,17.04-53.44,14.49-3.84-.34-7.65-.52-11.44-.57-18.94-.25-37.3,2.94-55.67,8-3.67,1.01-7.35,2.1-11.03,3.25-23.62,8.72-51.93,18.23-77.58,14.76-3.66-.5-7.27-1.26-10.81-2.32-36.33-10.82-55.83-56.31-39.01-90.79,1.06-3.41,2.11-6.83,3.05-10.24,1.89-6.83,3.38-13.65,3.77-20.39,.25-3.07,.48-6.14,.74-9.2,1.84-21.38,5.12-41.89,24.81-55.16,7.17-4.83,14.25-8.17,21.24-10.29,3.5-1.06,6.98-1.82,10.44-2.31,37.18-7.4,68.59,15.34,101.36,28.63,3.38,1.19,6.77,2.27,10.16,3.22,3.69,1.03,7.4,1.97,11.13,2.82,12.86,2.92,25.36,3.98,38.43,5.23,33.94,3.24,54.03,35.28,55.11,67.48Z"/></g><g id="b"><path class="g" d="M256.88,67.67c-2.39-5.77-6.11-10.96-10.83-15.05-4.77-4.14-10.51-7.11-16.66-8.55-18.66-4.39-38.22,5.58-45.78,23.63-7.56-18.05-27.12-28.02-45.78-23.63-6.15,1.45-11.9,4.41-16.66,8.55-4.71,4.09-8.44,9.29-10.83,15.05-4.14,10.01-3.77,20.65,.52,30.53,2.82,6.5,6.69,12.74,10.92,18.42,4.71,6.33,10.03,12.2,15.71,17.69l.1,.09c27.82,26.83,46.03,40.37,46.03,40.37,0,0,18.22-13.54,46.03-40.37l.1-.09c5.67-5.48,10.99-11.35,15.71-17.69,4.23-5.68,8.09-11.92,10.92-18.42,4.29-9.89,4.67-20.52,.52-30.53Z"/><path class="h" d="M103.77,36.27h-14.52v6h14.52c3.83,0,6.94,3.11,6.94,6.94,0,5.67-1.6,22.24-6.55,37.28-4,12.15-11.31,26.63-23.43,26.63s-19.44-14.48-23.43-26.63c-4.95-15.04-6.55-31.61-6.55-37.28,0-3.83,3.11-6.94,6.94-6.94h11.87v-6h-11.87c-7.13,0-12.94,5.8-12.94,12.94s1.86,23.99,6.85,39.15c6.62,20.12,16.69,30.76,29.13,30.76,12.44,0,22.52-10.64,29.14-30.76,4.99-15.17,6.85-32.07,6.85-39.15s-5.8-12.94-12.94-12.94Z"/><path class="j" d="M80.73,122.57h0c-9.38,0-22.26-5.25-31.26-29.73-.56-1.52,.26-3.21,1.79-3.72l6.86-2.31c1.48-.5,3.08,.27,3.62,1.74,3.75,10.14,9.89,21.02,18.99,21.02h0c5.41,0,13.07-3.98,19.51-22.47,.51-1.48,2.11-2.28,3.6-1.81l6.9,2.2c1.54,.49,2.38,2.16,1.85,3.69-9,25.85-22.2,31.39-31.85,31.39Z"/><rect class="j" x="73.71" y="118.12" width="14.6" height="10.84" rx="2.6" ry="2.6"/><circle class="e" cx="145.11" cy="139.22" r="7.83"/><circle class="h" cx="145.11" cy="139.22" r="15.68"/><path class="k" d="M283.05,124.79c-10.94-1.33-24.26-5.93-30.44-10-6.18,4.06-19.5,8.67-30.44,10,0,14.07-.04,18.68,0,29.5-.02,17.3,14.01,32.74,30.44,35.65,16.43-2.91,30.46-18.36,30.44-35.65,.04-10.81,0-15.43,0-29.5Z"/><path class="k" d="M275.95,131.32c-8.39-1.03-18.6-4.59-23.34-7.73-4.74,3.14-14.95,6.7-23.34,7.73,0,10.88-.03,14.44,0,22.81-.01,13.37,10.74,25.32,23.34,27.57,12.6-2.25,23.35-14.19,23.34-27.57,.03-8.36,0-11.93,0-22.81Z"/><polygon class="k" points="267.3 147.43 256.71 147.43 256.71 136.84 248.51 136.84 248.51 147.43 237.92 147.43 237.92 155.62 248.51 155.62 248.51 166.22 256.71 166.22 256.71 155.62 267.3 155.62 267.3 147.43"/><path class="j" d="M285.72,124.63c-10.94-1.33-24.26-5.93-30.44-10-6.18,4.06-19.5,8.67-30.44,10,0,14.07-.04,18.68,0,29.5-.02,17.3,14.01,32.74,30.44,35.65,16.43-2.91,30.46-18.36,30.44-35.65,.04-10.81,0-15.43,0-29.5Z"/><path class="f" d="M278.62,131.15c-8.39-1.03-18.6-4.59-23.34-7.73-4.74,3.14-14.95,6.7-23.34,7.73,0,10.88-.03,14.44,0,22.81-.01,13.37,10.74,25.32,23.34,27.57,12.6-2.25,23.35-14.19,23.34-27.57,.03-8.36,0-11.93,0-22.81Z"/><polygon class="g" points="269.97 147.26 259.38 147.26 259.38 136.67 251.18 136.67 251.18 147.26 240.59 147.26 240.59 155.46 251.18 155.46 251.18 166.05 259.38 166.05 259.38 155.46 269.97 155.46 269.97 147.26"/><path class="j" d="M112.22,193.84c-19.7-.47-35.21-17.04-35.21-36.75v-30.22h8v30.3c0,15.28,11.96,28.21,27.23,28.66s28.93-12.3,28.93-28.07v-16.64c0-2.21,1.79-4,4-4h0c2.21,0,4,1.79,4,4v16.64c0,20.18-16.66,36.55-36.95,36.07Z"/></g><g id="c"><g><path class="e" d="M284.55,124.67c0-.76-.57-1.4-1.32-1.49-7.58-.92-15.89-3.35-22.21-5.95h-.01c10.9-17.18,14.06-33.09,9.61-48.62-3.4-11.88-11.12-22.38-21.74-29.58-.68-.46-1.62-.29-2.08,.4-.46,.69-.29,1.62,.4,2.08,10.04,6.8,17.34,16.72,20.54,27.92,4.23,14.77,1.12,30.01-9.5,46.57-1.92-.88-3.56-1.77-4.8-2.59-.5-.33-1.15-.33-1.65,0-1.7,1.12-4.1,2.34-6.95,3.54,4.16-5.79,7.48-11.52,9.88-17.06,2.38-5.49,3.58-11.08,3.58-16.63,0-5.12-1.02-10.18-3.04-15.08-2.48-5.98-6.36-11.38-11.23-15.61-4.97-4.32-10.96-7.39-17.31-8.88-18.27-4.29-37.52,4.89-46.12,21.55-8.61-16.66-27.86-25.85-46.13-21.55-6.35,1.49-12.33,4.56-17.3,8.88-.54,.47-1.07,.96-1.59,1.46,.08-1.43,.12-2.69,.12-3.73,0-3.04-.91-5.87-2.48-8.23h0c7.73-5.47,16.94-8.93,26.55-9.68,.83-.07,1.44-.79,1.38-1.61-.06-.83-.79-1.47-1.61-1.38-10.21,.79-20.01,4.5-28.21,10.35h0c-2.71-2.71-6.45-4.39-10.57-4.39h-4.87c-1-.85-2.36-1.25-3.72-1.07l-4.34,.57c-2.22,.28-3.89,2.05-3.89,4.11v2.88c0,2.05,1.67,3.82,3.89,4.11l4.34,.56c.21,.03,.43,.04,.64,.04,1.16,0,2.27-.4,3.13-1.15l.05-.05h4.77c1.08,0,2.08,.35,2.89,.94h0c-4.08,4.16-7.49,8.94-10,14.2-.36,.74-.05,1.64,.7,2,.21,.1,.43,.14,.65,.14,.56,0,1.09-.31,1.35-.85,2.3-4.81,5.4-9.21,9.1-13.05,.16,.49,.25,1.02,.25,1.56,0,5.29-1.43,20.26-5.75,34.44-1.82,0-3.49,1.13-4.13,2.96-6.19,17.74-13.26,21.46-18.1,21.46-8.41,0-14.21-10.9-17.58-20.04-.67-1.81-2.37-2.91-4.18-2.87-4.7-14.63-6.22-30.48-6.22-35.95,0-2.72,2.21-4.94,4.94-4.94h5.43c-.86-.78-1.34-1.82-1.34-2.95v-.05h-4.09c-4.38,0-7.94,3.56-7.94,7.94,0,5.61,1.55,21.8,6.32,36.71l-3.8,1.28c-4.75-14.83-6.52-31.09-6.52-37.99s5.35-11.94,11.94-11.94h4.09c.01-1.13,.51-2.18,1.39-2.96,.02-.01,.03-.03,.05-.04h-5.53c-8.24,0-14.94,6.7-14.94,14.94,0,7.12,1.83,23.94,6.75,39.17-.54,.41-.98,.95-1.28,1.58-.51,1.08-.57,2.28-.16,3.4,6.83,18.59,15.94,26.42,24.16,29.28v3.73c0,1.98,1.42,3.64,3.3,4.01v26.72c0,10.31,4.11,19.75,10.75,26.67,6.64,6.93,15.81,11.34,25.92,11.57,.31,.01,.61,.02,.92,.02,9.86,0,19.14-3.79,26.23-10.71,7.31-7.14,11.34-16.68,11.34-26.87v-2.3c1.69-.58,3.27-1.42,4.68-2.47,16.81,15.09,27.21,22.86,27.35,22.96,.27,.2,.58,.3,.9,.3s.63-.1,.89-.3c.17-.12,15.53-11.6,39.17-33.81,0,3.31,.01,6.62,.02,10.9-.02,17.67,13.9,33.98,31.68,37.13,.08,.02,.17,.03,.26,.03s.17-.01,.26-.03c17.78-3.15,31.69-19.46,31.68-37.12,.02-6.83,.01-11.18,.01-17.01-.01-3.4-.01-7.3-.01-12.49ZM87.23,45.37c-1.66,0-3-1.34-3-3v-4c0-1.65,1.34-3,3-3h0c-1.66,0-3,1.35-3,3v4c0,1.66,1.34,3,3,3h0Zm15.71,39.83c2.07-6.89,3.48-13.94,4.38-20.01,.98-6.62,1.37-12.07,1.37-14.88,0-1.38-.35-2.67-.97-3.8h0c-.48-.89-1.13-1.67-1.9-2.31h0c-1.37-1.14-3.14-1.83-5.07-1.83h-3.43v-4h3.43c3.14,0,6.01,1.22,8.14,3.21,.73,.68,1.37,1.46,1.91,2.3,1.2,1.86,1.89,4.07,1.89,6.43,0,1.84-.13,4.33-.4,7.28-.17,1.88-.4,3.94-.7,6.14-.94,6.88-2.52,15.06-4.92,22.95l-.63-.2-3.08-.98-.1-.03c.03-.09,.06-.18,.08-.27Zm-30.74,42.27v-5.65c0-.09,.01-.18,.03-.26,.01-.02,.01-.04,.02-.06-.94-.22-1.9-.53-2.87-.91-7.29-2.87-15.31-10.27-21.53-27.17-.12-.34-.1-.72,.06-1.06,.16-.34,.45-.6,.81-.72l1.49-.5,3.79-1.27,1.58-.53c.15-.05,.3-.08,.44-.08,.49,0,.96,.27,1.2,.71,0,.01,0,.03,.02,.04,.03,.05,.05,.1,.07,.16,5.32,14.39,12.37,22,20.4,22,5.81,0,14.16-4.07,20.93-23.48,.02-.06,.05-.12,.08-.17,0,0,0-.02,0-.03,.31-.57,1-.88,1.63-.67l1.59,.51,1.33,.42,2.48,.79,.72,.23,.78,.25c.36,.11,.65,.36,.82,.7,.17,.33,.19,.71,.07,1.07-.24,.68-.48,1.35-.72,2v.02c-.14,.38-.28,.75-.42,1.11-.43,1.09-.86,2.14-1.3,3.14-5.75,13.3-12.72,19.62-19.17,22.32-.96,.42-1.91,.74-2.84,.99,.01,.01,.02,.03,.02,.04,.05,.13,.08,.26,.08,.41v5.65c0,.29-.11,.56-.3,.75-.2,.21-.49,.34-.8,.34h-9.41c-.31,0-.59-.13-.79-.34-.19-.19-.3-.46-.3-.75Zm52.72,12.85c0,.86,.06,1.71,.19,2.54-7.86-8.1-15.21-16.34-21.23-25.4-.46-.69-1.39-.88-2.08-.42-.69,.46-.87,1.39-.42,2.08,7.4,11.13,16.7,20.97,26.47,30.8h0s.01,.03,.02,.04c2.09,3.09,5.17,5.46,8.78,6.66v2.26c0,7.23-2.87,14-8.08,19.06-5.21,5.05-12.06,7.72-19.31,7.5-14.21-.42-25.77-12.6-25.77-27.16v-26.8c1.88-.37,3.3-2.03,3.3-4.01v-3.94c6.89-2.58,14.34-8.72,20.52-21.74,2.56,5.49,6,11.14,10.23,16.82,3.08,4.14,6.46,8.17,10.26,12.19-1.82,2.73-2.89,6.01-2.89,9.52Zm19.74,18.56c0,9.37-3.71,18.15-10.44,24.72-6.72,6.57-15.54,10.06-24.98,9.84-18.6-.43-33.74-16.25-33.74-35.24v-26.64h5v26.72c0,16.16,12.87,29.69,28.68,30.16,8.08,.27,15.7-2.72,21.49-8.35,5.8-5.62,8.99-13.16,8.99-21.21v-16.65c0-1.08,.69-2.01,1.66-2.35,.26-.1,.54-.15,.84-.15,1.38,0,2.5,1.12,2.5,2.5v16.65Zm-8.73-19.99c.24-1.05,.74-2,1.44-2.77,1.16-1.31,2.85-2.13,4.73-2.13,3.49,0,6.33,2.84,6.33,6.33,0,1.09-.28,2.12-.77,3.02v-1.11c0-3.03-2.47-5.5-5.5-5.5-1.16,0-2.24,.36-3.12,.98-.84,.58-1.51,1.38-1.92,2.32-.3,.67-.46,1.42-.46,2.2v1.33c-.57-.95-.9-2.05-.9-3.24,0-.49,.06-.97,.17-1.43Zm14.13,13.16c-.75,.52-1.55,.96-2.4,1.32v-5.56c.4-.29,.78-.62,1.13-.98,1.64-1.68,2.64-3.99,2.64-6.51,0-5.14-4.18-9.33-9.33-9.33-2.73,0-5.18,1.17-6.89,3.04-.69,.76-1.26,1.62-1.67,2.57-.5,1.14-.78,2.4-.78,3.72,0,3.12,1.54,5.89,3.9,7.58v5.52c-1.43-.59-2.74-1.42-3.89-2.42h0c-.97-.86-1.82-1.84-2.52-2.92-.01,0-.02-.02-.02-.03h0c-1.47-2.23-2.3-4.88-2.3-7.73,0-2.66,.74-5.15,2.02-7.28,.52-.88,1.14-1.69,1.84-2.43,2.59-2.75,6.26-4.47,10.32-4.47,7.82,0,14.18,6.36,14.18,14.18,0,3.78-1.49,7.22-3.91,9.77-.69,.73-1.47,1.39-2.31,1.96Zm30.53,21.93c-2.83-2.17-12.22-9.53-26-21.88,2.91-3.08,4.69-7.23,4.69-11.78,0-9.47-7.71-17.18-17.18-17.18-4.87,0-9.27,2.03-12.4,5.3-3.59-3.84-6.81-7.68-9.74-11.62-4.59-6.16-8.2-12.26-10.75-18.12-.09-.2-.17-.4-.25-.61,.69-1.67,1.37-3.44,2.02-5.32,.39-1.12,.32-2.33-.22-3.39-.31-.63-.75-1.16-1.3-1.56,3.14-10.27,4.93-21.07,5.72-29.01,1.22-1.42,2.53-2.74,3.94-3.96,4.61-4,10.15-6.85,16.03-8.23,17.92-4.21,36.86,5.57,44.05,22.75,.24,.56,.78,.92,1.39,.92s1.15-.36,1.38-.92c7.2-17.18,26.14-26.96,44.06-22.75,5.88,1.38,11.42,4.23,16.02,8.23,2.26,1.96,4.29,4.19,6.05,6.63,1.75,2.44,3.23,5.08,4.38,7.86,3.9,9.44,3.72,19.59-.52,29.36-2.54,5.86-6.16,11.96-10.74,18.12-.54,.72-1.08,1.44-1.64,2.15-5.46,1.89-11.74,3.5-17.59,4.21-.76,.09-1.32,.73-1.32,1.49,0,5.19,0,9.09,0,12.49v1.96c-21.39,20.25-36.36,32.01-40.07,34.86Zm100.96-19.81c.01,15.9-12.95,31.15-28.94,34.12-16-2.97-28.96-18.22-28.94-34.13-.02-5.5-.02-9.4,0-13.75v-4.15c0-2.89,0-6.17,0-10.27,3.96-.57,8.27-1.54,12.45-2.76,1.79-.52,3.55-1.09,5.25-1.69,4.36-1.55,8.32-3.31,11.24-5.09,6.7,4.09,18.91,8.11,28.94,9.54,0,4.54,0,8.07,.01,11.18,0,5.82,.01,10.17-.01,17Z"/><path class="e" d="M277.45,131.2c0-.76-.57-1.4-1.32-1.49-8.63-1.06-18.5-4.71-22.69-7.49-.51-.34-1.16-.34-1.66,0-3.18,2.11-9.62,4.72-16.32,6.31-1.67,.41-3.36,.74-5.01,.99-.46,.07-.91,.13-1.36,.19-.76,.09-1.32,.73-1.32,1.49v1.06c0,1.55,0,2.94-.01,4.22v4.33c0,4.53-.01,7.9,.01,13.19-.01,13.82,10.78,26.58,24.57,29.05,.09,0,.18,.02,.27,.02s.17-.01,.26-.02c13.8-2.47,24.59-15.23,24.58-29.04,.01-5.3,.01-8.67,0-13.2v-9.61Zm-3,22.8c.01,12.12-9.76,23.74-21.84,26.04-12.08-2.3-21.85-13.92-21.84-26.04-.02-5.29-.01-8.66-.01-13.18,0-2.09,.01-4.43,.01-7.31v-1c.38-.06,.77-.12,1.16-.19,7.33-1.26,15.79-4.14,20.68-7.08,5.14,3.1,14.26,6.13,21.84,7.27v8.31c.01,4.52,.01,7.89,0,13.18Z"/><path class="e" d="M267.3,145.81h-9.1v-9.09c0-.83-.67-1.5-1.5-1.5h-8.19c-.83,0-1.5,.67-1.5,1.5v9.09h-9.09c-.83,0-1.5,.67-1.5,1.5v8.19c0,.83,.67,1.5,1.5,1.5h9.09v9.09c0,.83,.67,1.5,1.5,1.5h8.19c.83,0,1.5-.67,1.5-1.5v-9.09h9.1c.82,0,1.5-.67,1.5-1.5v-8.19c0-.83-.68-1.5-1.5-1.5Zm-1.5,8.19h-9.1c-.82,0-1.5,.67-1.5,1.5v9.09h-5.19v-9.09c0-.83-.67-1.5-1.5-1.5h-9.09v-5.19h9.09c.83,0,1.5-.67,1.5-1.5v-9.09h5.19v9.09c0,.83,.68,1.5,1.5,1.5h9.1v5.19Z"/><path class="e" d="M223.09,111.52c0-1.93-1.57-3.5-3.5-3.5h-14.67l-6.23-14.28c-.6-1.35-1.98-2.2-3.46-2.09-1.47,.11-2.73,1.13-3.12,2.56l-8.05,29.01-10.27-46.62c-.35-1.57-1.71-2.7-3.31-2.75-1.57-.01-3.03,1-3.47,2.54l-9.26,32.38h-16.15c-1.93,0-3.5,1.57-3.5,3.5s1.57,3.5,3.5,3.5h18.79c1.57,0,2.94-1.03,3.37-2.54l6.17-21.6,10.33,46.84c.34,1.57,1.71,2.7,3.32,2.74,.03,.01,.06,.01,.09,.01,1.57,0,2.95-1.05,3.38-2.57l9.17-33.07,3.2,7.34c.56,1.28,1.82,2.1,3.21,2.1h16.96c1.93,0,3.5-1.57,3.5-3.5Z"/><path class="e" d="M60.16,35.41c-.88,.78-1.38,1.83-1.39,2.96h0v4h0v.05c0,1.13,.48,2.17,1.34,2.95h0l.05,.05c.86,.75,1.96,1.15,3.12,1.15,.22,0,.43-.01,.65-.04l4.33-.56c2.22-.29,3.89-2.06,3.89-4.11v-2.88c0-2.06-1.67-3.83-3.89-4.11l-4.33-.57c-1.37-.18-2.72,.21-3.72,1.07h0s-.03,.03-.05,.04Zm1.61,3s0-.03,.01-.04h0s-.01,.03-.01,.04v3.96h0v-3.96Z"/><path class="e" d="M280.88,55.96c-.36-.75-1.26-1.05-2-.69-.75,.36-1.06,1.26-.69,2,4.41,9.07,7.46,25.15,3.73,38.99-.22,.8,.26,1.62,1.06,1.84,.13,.04,.26,.05,.39,.05,.66,0,1.27-.44,1.45-1.11,3.92-14.59,.71-31.53-3.93-41.08Z"/><path class="e" d="M121.44,163.51c.28,.23,.61,.34,.95,.34,.43,0,.87-.19,1.16-.55,.52-.64,.43-1.59-.21-2.11-.09-.07-8.85-7.27-19.23-19.71-.53-.63-1.47-.72-2.11-.19-.64,.53-.72,1.48-.19,2.11,10.58,12.67,19.27,19.81,19.64,20.11Z"/></g></g><g id="d"/></svg>