<svg width="177" height="53" viewBox="0 0 177 53" fill="none" xmlns="http://www.w3.org/2000/svg">
<g clip-path="url(#clip0_10882_1076)">
<path d="M174.904 46.4271C174.904 49.1579 172.693 51.3685 169.961 51.3685H6.72318C3.99171 51.3685 1.78052 49.1579 1.78052 46.4271V6.63618C1.78052 3.90543 3.99171 1.69482 6.72318 1.69482H169.961C172.693 1.69482 174.904 3.90543 174.904 6.63618V46.4271Z" fill="white"/>
<path d="M169.961 52.5387H6.72316C3.34134 52.5387 0.609863 49.808 0.609863 46.427V6.63609C0.609863 3.25516 3.34134 0.524414 6.72316 0.524414H169.961C173.343 0.524414 176.075 3.25516 176.075 6.63609V46.297C176.075 49.808 173.343 52.5387 169.961 52.5387Z" fill="#A6A6A6"/>
<path d="M174.904 46.4271C174.904 49.1579 172.693 51.3685 169.961 51.3685H6.72318C3.99171 51.3685 1.78052 49.1579 1.78052 46.4271V6.63618C1.78052 3.90543 3.99171 1.69482 6.72318 1.69482H169.961C172.693 1.69482 174.904 3.90543 174.904 6.63618V46.4271Z" fill="black"/>
<path d="M39.7609 26.2713C39.7609 22.1101 43.1428 20.0296 43.4029 19.8995C41.4518 17.0387 38.3302 16.6486 37.2896 16.6486C34.6882 16.3886 32.2169 18.2091 30.9162 18.2091C29.6154 18.2091 27.5343 16.6486 25.4532 16.7787C22.7217 16.7787 20.1203 18.4691 18.6896 20.9398C15.6979 26.0112 17.9091 33.5533 20.7707 37.7144C22.2014 39.795 23.8924 42.0056 25.9735 41.8756C28.0546 41.7455 28.835 40.5752 31.4364 40.5752C33.9078 40.5752 34.6882 41.8756 36.8994 41.8756C39.1106 41.8756 40.5413 39.795 41.9721 37.8445C43.663 35.5038 44.3134 33.2932 44.3134 33.1632C44.1833 32.9031 39.891 31.2126 39.7609 26.2713ZM35.5987 13.9179C36.7693 12.4875 37.5497 10.537 37.2896 8.58643C35.5987 8.71646 33.6476 9.75675 32.3469 11.0571C31.3064 12.2274 30.3959 14.308 30.656 16.1285C32.6071 16.3886 34.428 15.3483 35.5987 13.9179Z" fill="white"/>
<path d="M169.961 0.524414H82.5542L116.763 52.5387H169.961C173.343 52.5387 176.075 49.808 176.075 46.427V6.63609C176.075 3.25516 173.343 0.524414 169.961 0.524414Z" fill="url(#paint0_linear_10882_1076)"/>
<path d="M70.4575 41.4858H67.4659L65.9051 36.4144H60.312L58.7512 41.4858H55.8896L61.4827 24.1911H64.8645L70.4575 41.4858ZM65.3848 34.3339L63.954 29.7826C63.8239 29.2625 63.5638 28.2222 63.0435 26.5317C62.9134 27.3119 62.6533 28.3522 62.2631 29.7826L60.7022 34.3339H65.3848ZM84.7652 35.1141C84.7652 37.1946 84.245 38.8851 83.0743 40.1855C82.0338 41.2258 80.7331 41.8759 79.1722 41.8759C77.4813 41.8759 76.3107 41.2258 75.6603 40.0554V46.5572H72.9288V33.1635C72.9288 31.8632 72.9288 30.4328 72.7988 29.0024H75.2701L75.4002 30.9529C76.3107 29.5225 77.7414 28.7423 79.5624 28.7423C80.9932 28.7423 82.2939 29.2625 83.2044 30.4328C84.2449 31.6031 84.7652 33.1635 84.7652 35.1141ZM81.9037 35.2441C81.9037 34.0738 81.6435 33.0335 81.1233 32.2533C80.4729 31.4731 79.6925 31.083 78.6519 31.083C78.0016 31.083 77.3512 31.343 76.8309 31.7331C76.3107 32.2533 75.9205 32.7734 75.7904 33.5536C75.6603 33.8137 75.6603 34.0738 75.6603 34.3339V36.4144C75.6603 37.3247 75.9205 38.1049 76.4407 38.7551C76.961 39.4053 77.7414 39.6653 78.6519 39.6653C79.6925 39.6653 80.4729 39.2752 81.1233 38.495C81.6435 37.5848 81.9037 36.5445 81.9037 35.2441ZM99.0729 35.1141C99.0729 37.1946 98.5527 38.8851 97.382 40.1855C96.3415 41.2258 95.0408 41.8759 93.4799 41.8759C91.789 41.8759 90.6184 41.2258 89.968 40.0554V46.5572H87.2366V33.1635C87.2366 31.8632 87.2366 30.4328 87.1065 29.0024H89.5778L89.7079 30.9529C90.6184 29.5225 92.0492 28.7423 93.8701 28.7423C95.3009 28.7423 96.6016 29.2625 97.5121 30.4328C98.5527 31.6031 99.0729 33.1635 99.0729 35.1141ZM96.2114 35.2441C96.2114 34.0738 95.9513 33.0335 95.431 32.2533C94.7806 31.4731 94.0002 31.083 92.9597 31.083C92.3093 31.083 91.6589 31.343 91.1387 31.7331C90.6184 32.2533 90.2282 32.7734 90.0981 33.5536C89.968 33.9438 89.968 34.2038 89.968 34.3339V36.4144C89.968 37.3247 90.2282 38.1049 90.7485 38.7551C91.2687 39.4053 92.0492 39.6653 92.9597 39.6653C94.0002 39.6653 94.7806 39.2752 95.431 38.495C95.9513 37.5848 96.2114 36.5445 96.2114 35.2441ZM115.072 36.6745C115.072 38.1049 114.551 39.4053 113.511 40.3155C112.34 41.3558 110.779 41.8759 108.828 41.8759C107.007 41.8759 105.446 41.4858 104.406 40.8356L105.056 38.495C106.227 39.2752 107.658 39.5353 109.088 39.5353C110.129 39.5353 110.909 39.2752 111.56 38.8851C112.08 38.365 112.47 37.8448 112.47 36.9346C112.47 36.2844 112.21 35.6342 111.69 35.1141C111.169 34.5939 110.389 34.2038 109.348 33.8137C106.357 32.6434 104.796 31.083 104.796 28.8724C104.796 27.442 105.316 26.2716 106.357 25.3614C107.397 24.4511 108.828 24.061 110.649 24.061C112.21 24.061 113.511 24.3211 114.551 24.8413L113.771 27.0519C112.73 26.5317 111.69 26.2716 110.389 26.2716C109.348 26.2716 108.698 26.5317 108.048 27.0519C107.528 27.442 107.397 27.9621 107.397 28.6123C107.397 29.2625 107.658 29.9126 108.178 30.3027C108.698 30.6929 109.479 31.213 110.649 31.6031C112.08 32.2533 113.251 32.9035 113.901 33.6837C114.811 34.4639 115.072 35.5042 115.072 36.6745ZM124.307 31.083H121.315V37.1946C121.315 38.7551 121.835 39.5353 122.876 39.5353C123.396 39.5353 123.786 39.5353 124.046 39.4053L124.176 41.4858C123.656 41.7459 122.876 41.7459 121.965 41.7459C120.925 41.7459 120.014 41.3558 119.364 40.7056C118.714 40.0554 118.453 38.8851 118.453 37.3247V31.083H116.632V29.0024H118.453V26.6617L121.185 25.8815V29.0024H124.176L124.307 31.083ZM138.094 35.1141C138.094 37.0646 137.574 38.625 136.403 39.7954C135.232 41.0957 133.672 41.7459 131.851 41.7459C130.03 41.7459 128.599 41.0957 127.428 39.9254C126.388 38.7551 125.737 37.1946 125.737 35.3741C125.737 33.4236 126.258 31.8632 127.428 30.5628C128.599 29.3925 130.03 28.7423 131.981 28.7423C133.802 28.7423 135.232 29.3925 136.403 30.5628C137.574 31.7331 138.094 33.2936 138.094 35.1141ZM135.232 35.2441C135.232 34.0738 134.972 33.1635 134.452 32.2533C133.932 31.213 133.021 30.8229 131.981 30.8229C130.81 30.8229 130.03 31.343 129.379 32.2533C128.859 33.0335 128.599 34.0738 128.599 35.2441C128.599 36.4144 128.859 37.3247 129.379 38.2349C130.03 39.2752 130.81 39.6653 131.851 39.6653C132.891 39.6653 133.802 39.1452 134.322 38.1049C134.972 37.3247 135.232 36.4144 135.232 35.2441ZM147.069 31.4731C146.809 31.4731 146.549 31.343 146.158 31.343C145.118 31.343 144.467 31.7331 143.947 32.5134C143.427 33.1635 143.297 33.9438 143.297 34.984V41.4858H140.565V32.9035C140.565 31.6031 140.565 30.3027 140.435 29.0024H142.907L143.037 31.343H143.167C143.427 30.5628 143.947 29.9126 144.598 29.3925C145.118 29.0024 145.898 28.7423 146.549 28.7423C146.809 28.7423 147.069 28.7423 147.199 28.7423L147.069 31.4731ZM159.556 34.724C159.556 35.1141 159.556 35.5042 159.426 36.0243H151.101C151.101 37.1946 151.491 38.2349 152.272 38.8851C152.922 39.4053 153.832 39.7954 155.003 39.7954C156.174 39.7954 157.344 39.6653 158.385 39.1452L158.775 41.0957C157.605 41.6159 156.174 41.8759 154.613 41.8759C152.662 41.8759 151.101 41.3558 150.06 40.1855C149.02 39.0151 148.37 37.4547 148.37 35.6342C148.37 33.8137 148.89 32.1233 149.93 30.9529C150.971 29.6526 152.402 29.0024 154.353 29.0024C156.174 29.0024 157.474 29.6526 158.385 30.9529C159.165 31.7331 159.556 33.1635 159.556 34.724ZM156.824 33.9438C156.824 33.1635 156.694 32.3833 156.304 31.8632C155.784 31.083 155.133 30.6929 154.093 30.6929C153.182 30.6929 152.402 31.083 151.881 31.8632C151.361 32.5134 151.101 33.1635 151.101 34.0738L156.824 33.9438Z" fill="white"/>
<path d="M59.4015 18.0794C58.6211 18.0794 57.9707 18.0794 57.4504 17.9494V9.62708C58.2309 9.49704 59.0113 9.49704 59.7917 9.49704C62.9134 9.49704 64.4742 11.0575 64.4742 13.6582C64.4742 16.519 62.6532 18.0794 59.4015 18.0794ZM59.9218 10.5373C59.5316 10.5373 59.1414 10.5373 58.8812 10.6674V17.0391C59.0113 17.0391 59.4015 17.0391 59.7917 17.0391C61.8728 17.0391 63.0435 15.8688 63.0435 13.6582C62.9134 11.5776 61.8728 10.5373 59.9218 10.5373ZM69.0267 18.0794C67.2057 18.0794 66.0351 16.779 66.0351 14.9585C66.0351 13.008 67.2057 11.7076 69.0267 11.7076C70.8477 11.7076 72.0183 13.008 72.0183 14.8285C72.0183 16.779 70.8477 18.0794 69.0267 18.0794ZM69.0267 12.7479C67.9861 12.7479 67.4658 13.6582 67.4658 14.9585C67.4658 16.2589 68.1162 17.1692 69.0267 17.1692C69.9372 17.1692 70.5875 16.1289 70.5875 14.9585C70.5875 13.6582 69.9372 12.7479 69.0267 12.7479ZM82.2938 11.8377L80.3428 17.9494H79.0421L78.2617 15.3486C78.0015 14.6985 77.8715 14.0483 77.7414 13.3981C77.6113 14.0483 77.4813 14.6985 77.2211 15.3486L76.3106 17.9494H75.0099L73.1889 11.8377H74.7498L75.4001 14.6985C75.5302 15.3486 75.6603 15.9988 75.7903 16.649C75.9204 16.1289 76.0505 15.4787 76.3106 14.6985L77.2211 11.7076H78.3917L79.1722 14.5684C79.4323 15.2186 79.5624 15.9988 79.6924 16.649C79.8225 15.9988 79.9526 15.3486 80.0827 14.5684L80.8631 11.7076L82.2938 11.8377ZM89.3176 17.9494H88.0169V14.4384C88.0169 13.3981 87.6267 12.7479 86.7162 12.7479C85.9358 12.7479 85.4155 13.3981 85.4155 14.3084V17.9494H84.1148V13.5281C84.1148 13.008 84.1148 12.3578 84.1148 11.8377H85.1554V12.7479C85.5456 12.0978 86.326 11.7076 87.1064 11.7076C88.4071 11.7076 89.1876 12.7479 89.1876 14.3084L89.3176 17.9494ZM93.0897 17.9494H91.789V9.10693H93.0897V17.9494ZM98.0323 18.0794C96.2114 18.0794 95.0407 16.779 95.0407 14.9585C95.0407 13.008 96.2114 11.7076 98.0323 11.7076C99.8533 11.7076 101.024 13.008 101.024 14.8285C101.154 16.779 99.8533 18.0794 98.0323 18.0794ZM98.1624 12.7479C97.1218 12.7479 96.6016 13.6582 96.6016 14.9585C96.6016 16.2589 97.2519 17.1692 98.1624 17.1692C99.0729 17.1692 99.7232 16.1289 99.7232 14.9585C99.7232 13.6582 99.0729 12.7479 98.1624 12.7479ZM106.487 17.9494L106.357 17.2992C105.967 17.8193 105.316 18.0794 104.536 18.0794C103.495 18.0794 102.715 17.2992 102.715 16.2589C102.715 14.6985 104.016 13.9183 106.357 13.9183V13.7882C106.357 13.008 105.967 12.6179 105.056 12.6179C104.406 12.6179 103.885 12.7479 103.495 13.138L103.105 12.2278C103.625 11.8377 104.406 11.7076 105.186 11.7076C106.747 11.7076 107.658 12.4879 107.658 14.3084V16.519C107.658 17.1692 107.658 17.5593 107.788 17.9494H106.487ZM106.227 14.9585C104.666 14.9585 104.016 15.3486 104.016 16.2589C104.016 16.9091 104.406 17.1692 104.926 17.1692C105.576 17.1692 106.227 16.649 106.227 15.8688V14.9585ZM114.291 17.9494V16.9091C113.901 17.6893 113.251 18.0794 112.34 18.0794C110.909 18.0794 109.739 16.779 109.739 14.9585C109.739 13.008 110.909 11.7076 112.47 11.7076C113.251 11.7076 113.901 11.9677 114.161 12.4879V9.10693H115.462V16.3889C115.462 17.0391 115.462 17.5593 115.462 18.0794L114.291 17.9494ZM114.031 14.4384C114.031 13.5281 113.511 12.878 112.6 12.878C111.56 12.878 110.909 13.7882 110.909 15.0886C110.909 16.3889 111.56 17.1692 112.47 17.1692C113.381 17.1692 113.901 16.3889 113.901 15.4787L114.031 14.4384ZM124.046 18.0794C122.225 18.0794 121.055 16.779 121.055 14.9585C121.055 13.008 122.225 11.7076 124.046 11.7076C125.867 11.7076 127.038 13.008 127.038 14.8285C127.168 16.779 125.867 18.0794 124.046 18.0794ZM124.046 12.7479C123.006 12.7479 122.486 13.6582 122.486 14.9585C122.486 16.2589 123.136 17.1692 124.046 17.1692C124.957 17.1692 125.607 16.1289 125.607 14.9585C125.737 13.6582 125.087 12.7479 124.046 12.7479ZM134.452 17.9494H133.151V14.4384C133.151 13.3981 132.761 12.7479 131.851 12.7479C131.07 12.7479 130.55 13.3981 130.55 14.3084V17.9494H129.249V13.5281C129.249 13.008 129.249 12.3578 129.249 11.8377H130.42V12.7479C130.81 12.0978 131.59 11.7076 132.371 11.7076C133.672 11.7076 134.452 12.7479 134.452 14.3084V17.9494ZM143.557 12.878H141.996V15.8688C141.996 16.649 142.256 17.0391 142.776 17.0391C143.037 17.0391 143.167 17.0391 143.427 17.0391V18.0794C143.167 18.2094 142.776 18.2094 142.386 18.2094C141.346 18.2094 140.695 17.5593 140.695 16.1289V12.878H139.785V11.8377H140.695V10.7974L141.996 10.4073V11.9677H143.557V12.878ZM150.841 17.9494H149.54V14.4384C149.54 13.3981 149.15 12.7479 148.239 12.7479C147.589 12.7479 146.939 13.2681 146.939 14.1783V17.8193H145.638V9.10693H146.939V12.7479C147.329 12.0978 147.979 11.7076 148.76 11.7076C150.06 11.7076 150.841 12.7479 150.841 14.3084V17.9494ZM158.255 15.2186H154.093C154.093 16.3889 154.873 17.0391 156.044 17.0391C156.694 17.0391 157.214 16.9091 157.735 16.779L157.995 17.6893C157.474 17.9494 156.694 18.0794 155.914 18.0794C153.963 18.0794 152.922 16.9091 152.922 14.9585C152.922 13.138 154.093 11.7076 155.784 11.7076C157.344 11.7076 158.385 12.878 158.385 14.5684C158.255 14.8285 158.255 15.0886 158.255 15.2186ZM156.954 14.3084C156.954 13.3981 156.434 12.7479 155.653 12.7479C154.873 12.7479 154.223 13.3981 154.223 14.3084H156.954Z" fill="white"/>
</g>
<defs>
<linearGradient id="paint0_linear_10882_1076" x1="129.328" y1="52.6625" x2="129.328" y2="-697.692" gradientUnits="userSpaceOnUse">
<stop stop-color="#1A1A1A" stop-opacity="0.1"/>
<stop offset="0.123" stop-color="#212121" stop-opacity="0.151"/>
<stop offset="0.308" stop-color="#353535" stop-opacity="0.227"/>
<stop offset="0.532" stop-color="#575757" stop-opacity="0.318"/>
<stop offset="0.783" stop-color="#858585" stop-opacity="0.421"/>
<stop offset="1" stop-color="#B3B3B3" stop-opacity="0.51"/>
</linearGradient>
<clipPath id="clip0_10882_1076">
<rect width="175.467" height="52" fill="white" transform="translate(0.609863 0.524414)"/>
</clipPath>
</defs>
</svg>
