<?xml version="1.0" encoding="UTF-8"?><svg id="a" xmlns="http://www.w3.org/2000/svg" viewBox="0 0 693.7 162.3"><defs><style>.b{fill:#fff;}</style></defs><path d="M126.2,161.9c-.2,.1-.5,.2-.7,.3h.9l-.2-.3Z"/><path class="b" d="M169.4,22.9l-10.2,46.2c-8.4-14.1-21.3-25.3-37-32.2-39-17-83.6-1-99.5,35.5-3.9,9-5.7,18.2-5.7,27.4L0,22.9H48.5L42.6,0H126.8l-5.9,23h48.5v-.1Z"/><path d="M53.6,154.1c-.7-.5-1.4-1-2.1-1.6l2.1-2.1c-.1,1.3-.1,2.5,0,3.7Z"/><path class="b" d="M152.4,99.9l-3.2,14.6c-14-1-27.7,1.8-39.7,7.7l-9.2-12.3,10.8-6.6-9.3-4.7c7.4-2.6,15.2-4,23.3-4,9,0,18.3,1.7,27.3,5.3Z"/><path class="b" d="M147.4,122.4l-6.7,30.2c-1.7,1.5-3.5,2.9-5.4,4.1l-21-28.1c9-4.2,18.9-6.4,29.2-6.4,1.3,.1,2.6,.1,3.9,.2Z"/><path class="b" d="M126.2,161.9c-.2,.1-.5,.2-.7,.3h-42.8c.3-.8,.6-1.6,1-2.4,5.2-11.9,13.8-21.3,24.4-27.8l18.1,29.9Z"/><path class="b" d="M103.9,125.3c-11.9,7.3-21.7,17.9-27.5,31.4-.8,1.8-1.5,3.7-2,5.6h-6.4s-.1,0-.1-.1c-2.6-1.1-5.1-2.4-7.5-3.8-.2-5.5,.3-10.9,1.6-16.4l1.9-1.9-1.1-1.1c.7-2.3,1.5-4.7,2.5-7,4.3-9.8,10.9-18,19-24.1l2.6,11.7,9.4-6.9,7.6,12.6Z"/><path class="b" d="M155.8,84.5l-1.7,7.5c-21-8.1-43.3-6.9-61.7,1.8l-12.7-6.4,2.7,12.1c-10.5,7.2-19.1,17.1-24.5,29.4l-1.5,3.9-1.8-1.8-11.2,11.2c-3.2-12.9-2.5-26.7,3-39.4,10.3-23.6,34.2-37.5,59.9-37.5,9.4,0,19.1,1.9,28.4,5.8l-2.8,2.8,9.2,9.2,5.6-5.6c3.3,2.1,6.3,4.5,9.1,7Z"/><path class="b" d="M143.9,61.9l-3.1,3.1c-.7-.3-1.4-.7-2.2-1-39-17-83.7-1-99.5,35.5-4.7,10.7-5.3,24.5-3.2,35.8-11.6-17.6-14.5-39.8-5.9-59.6,4.4-10,11.2-18.3,19.5-24.5l10.8,16.3,10.9-7.2-10.4-15.7c8.9-4.2,18.9-6.4,29.1-6.4s19.6,2,29.2,6.1c9.5,4.2,18,10.2,24.8,17.6Z"/><path class="b" d="M51.3,162.3H30.9l-7.2-32.5c4.2,9.2,10.3,17.8,18.1,24.9,2.9,2.7,6.1,5.3,9.5,7.6Z"/><g><path class="b" d="M237.8,55.5c-2.3-3.9-5.2-7.6-12.2-7.6-10.1,0-13.9,6.4-13.9,20s3.8,19.9,13.9,19.9c7.3,0,11.4-3.9,13.9-6.1l9.3,10.1c-6.6,6.1-14.9,8.2-23.1,8.2-22,0-29.9-12.2-29.9-32.1s7.9-32.2,29.9-32.2c15.2,0,21,7.1,24.6,13.3l-12.5,6.5Z"/><path class="b" d="M286,100c-22,0-29.9-12.2-29.9-32.1s7.9-32.2,29.9-32.2,29.9,12.2,29.9,32.2-7.9,32.1-29.9,32.1Zm0-52.1c-10.1,0-13.9,6.4-13.9,20s3.8,19.9,13.9,19.9,13.9-6.4,13.9-19.9-3.8-20-13.9-20Z"/><path class="b" d="M373.1,98.8V59.6l-11.3,24.7h-7.1l-12.6-24.6v39.1h-14.5V37h18.2l12.5,25.7,11.2-25.7h18v61.8h-14.4Z"/><path class="b" d="M422.5,79.9h-6.1v18.9h-15.4V37h21.3c18.6,0,25.2,7.5,25.2,21.4s-6.7,21.5-25,21.5Zm-.5-30.3h-5.7v17.7h6.5c7.2,0,8.7-3.3,8.7-8.8s-2.2-8.9-9.5-8.9Z"/><path class="b" d="M492.2,98.8l-3.6-11.8h-21.3l-3.5,11.8h-14.8l19.3-61.8h19.9l19.7,61.8h-15.7Zm-14.3-47l-7.1,23.4h14.2l-7.1-23.4Z"/><path class="b" d="M539.3,100c-12.6,0-20.1-3.7-26.2-12.6l12.5-7.4c3.2,5,7.7,7.7,14.2,7.7,4.7,0,9.4-1.9,9.4-5.6,0-4.8-3.1-6.5-14.5-9-11.6-2.5-20.1-6.7-20.1-19,0-11.3,9-18.4,24.1-18.4,10.6,0,18.6,3.5,23.5,11.5l-12.2,7.1c-2.4-3.7-6.3-6.3-11.4-6.3-6.5,0-9.1,2.6-9.1,5.8,0,4,4.7,5.2,11,6.5,10.2,2.1,23.6,5.4,23.6,21.8,.1,10.3-8.4,17.9-24.8,17.9Z"/><path class="b" d="M595.7,100c-12.6,0-20.1-3.7-26.2-12.6l12.5-7.4c3.2,5,7.7,7.7,14.2,7.7,4.7,0,9.4-1.9,9.4-5.6,0-4.8-3.1-6.5-14.5-9-11.6-2.5-20.1-6.7-20.1-19,0-11.3,9-18.4,24.1-18.4,10.6,0,18.6,3.5,23.5,11.5l-12.2,7.1c-2.4-3.7-6.3-6.3-11.4-6.3-6.5,0-9.1,2.6-9.1,5.8,0,4,4.7,5.2,11,6.5,10.2,2.1,23.6,5.4,23.6,21.8,.1,10.3-8.5,17.9-24.8,17.9Z"/></g><g><path class="b" d="M216.7,129.6c-1.1-1.8-2.8-3.9-6.6-3.9-5.8,0-8,3.7-8,10.8s2.2,10.8,8,10.8c3.6,0,5.6-1.7,7-2.9l3.5,4c-3,2.7-6.6,3.6-10.5,3.6-10,0-14-5.5-14-15.5s4-15.5,14-15.5c6.6,0,9.6,3,11.3,6.1l-4.7,2.5Z"/><path class="b" d="M226.7,151.3v-29.8h5.8v25h13.4v4.8h-19.2Z"/><path class="b" d="M250.2,151.3v-4.5h3.9v-20.8h-3.9v-4.5h13.5v4.5h-3.9v20.9h3.9v4.5h-13.5v-.1Z"/><path class="b" d="M289.5,129.6c-1.1-1.8-2.8-3.9-6.6-3.9-5.8,0-8,3.7-8,10.8s2.2,10.8,8,10.8c3.6,0,5.6-1.7,7-2.9l3.5,4c-3,2.7-6.6,3.6-10.5,3.6-10,0-14-5.5-14-15.5s4-15.5,14-15.5c6.6,0,9.6,3,11.3,6.1l-4.7,2.5Z"/><path class="b" d="M317.1,151.3l-7.8-14.4-4,4.5v9.9h-5.8v-29.8h5.8v12.6l10.8-12.6h6.8l-9.6,10.9,10.5,18.9h-6.7Z"/><path class="b" d="M331.3,151.8c-2.3,0-3.2-1.1-3.2-3,0-2,1-3,3.2-3s3.2,.9,3.2,3c.1,2.2-1.1,3-3.2,3Z"/><path class="b" d="M371.3,151.3l-2.3-6.9h-11.1l-2.2,6.9h-5.7l9.8-29.8h7.5l10,29.8h-6Zm-7.8-24.2l-4.1,12.7h8.2l-4.1-12.7Z"/><path class="b" d="M391.8,141.2h-3.7v10.2h-5.8v-29.8h9.6c8.1,0,11.6,3,11.6,9.7-.1,6.5-3.3,9.9-11.7,9.9Zm-.1-14.8h-3.6v9.9h3.5c4.3,0,5.7-1.3,5.7-5,.1-3.5-1.7-4.9-5.6-4.9Z"/><path class="b" d="M419,141.2h-3.7v10.2h-5.8v-29.8h9.6c8.1,0,11.6,3,11.6,9.7-.1,6.5-3.3,9.9-11.7,9.9Zm-.1-14.8h-3.6v9.9h3.5c4.3,0,5.7-1.3,5.7-5,.1-3.5-1.7-4.9-5.6-4.9Z"/><path class="b" d="M436.7,151.3v-29.8h5.8v25h13.4v4.8h-19.2Z"/><path class="b" d="M472,139.3v12.1h-5.8v-11.7l-10-18.1h6.3l6.7,12.5,6.9-12.5h5.9l-10,17.7Z"/><path class="b" d="M485.8,151.8c-2.3,0-3.2-1.1-3.2-3,0-2,1-3,3.2-3s3.2,.9,3.2,3c.1,2.2-1.1,3-3.2,3Z"/><path class="b" d="M518.2,151.3h-11.4v-29.8h10.4c7.3,0,10.5,2,10.5,6.9,0,3.8-2,5.7-4.5,6.6,4,.7,6.4,3,6.4,7.6,0,5.5-3.7,8.7-11.4,8.7Zm-1.8-25.1h-3.8v7.1h3.4c4.3,0,5.6-1.6,5.6-3.7,.1-2.6-1.6-3.4-5.2-3.4Zm1.1,11.8h-4.9v8.6h4.3c3.9,0,6.6-.9,6.6-4.3,.1-3.3-2-4.3-6-4.3Z"/><path class="b" d="M535.8,151.3v-29.8h19.5v4.8h-13.7v7.1h12.4v4.8h-12.4v8.3h13.7v4.8h-19.5Z"/><path class="b" d="M579.5,151.3l-12.3-21.9v21.9h-5.4v-29.8h7l11.6,20.5v-20.5h5.4v29.8h-6.3Z"/><path class="b" d="M593.2,151.3v-29.8h19.5v4.8h-13.7v7.1h12.4v4.8h-12.4v8.3h13.7v4.8h-19.5Z"/><path class="b" d="M625.1,126.4v7.4h12.4v4.8h-12.4v12.8h-5.8v-29.8h19.5v4.8h-13.7Z"/><path class="b" d="M643.7,151.3v-4.5h3.9v-20.8h-3.9v-4.5h13.5v4.5h-3.9v20.9h3.9v4.5h-13.5v-.1Z"/><path class="b" d="M675.7,126.4v25h-5.8v-25h-9v-4.8h23.8v4.8h-9Z"/><path class="b" d="M690.4,151.8c-2.3,0-3.2-1.1-3.2-3,0-2,1-3,3.2-3s3.2,.9,3.2,3c.1,2.2-1.1,3-3.2,3Z"/></g></svg>